M48
;Layer_Color=9474304
;FILE_FORMAT=2:5
INCH,LZ
;TYPE=PLATED
T1F00S00C0.01181
T2F00S00C0.01299
T3F00S00C0.02008
;TYPE=NON_PLATED
T4F00S00C0.01968
%
T01
X0040177Y0068555
X0049433Y0073299
X0049933Y0064055
X0059433Y0072055
Y0088087
X0052433Y0089055
X0050433Y0097555
X0054933
X0047933Y0101555
X0039915Y0102573
X0043433Y0093555
X0039933Y0083055
X0054433Y0110055
X0058433Y0106055
X0069433Y0104555
X0076933Y0114055
X0062433Y0115055
X0058933Y0123555
X0054933Y0126555
X0054465Y0134524
X0050933Y0131055
X0045071Y0126917
X0039433Y0125555
X0039933Y0131055
X0050933Y0141555
X0059933Y0138555
X0061933Y0147555
X0067059Y0144929
X0074933Y0145055
X0081433Y0144055
X0080933Y0131555
X0074933Y0128555
X0070189Y0127311
X0063933Y0126055
X0065551Y0163583
Y0173819
X0072244
X0093433Y0145055
X0098496Y0145118
X0103433Y0145055
X0105433Y0136555
X0100433Y0135555
X010998Y0134508
X0116933Y0146555
X0118433Y0093555
X0114933Y0089555
X0107433Y0081555
X0096433
X0091433Y0079055
Y0075055
X0090433Y0093555
X0087433Y0100055
X0086433Y0107055
X0091933Y0110055
X0095433Y0099555
X0111209Y0074279
X0119433Y0069555
X0124933Y0080055
X0124433Y0092055
X0127433Y0096555
X0131433Y0100555
X0133433Y0109555
Y0114055
X0131933Y0118555
X0138528Y0114961
X0137933Y0129555
X0131433Y0133055
X0128622Y0138744
X0132559Y0141681
X0136496Y0138618
X0121433Y0140055
X0144433Y0147555
X0153933Y0141555
X0147433Y0100555
Y0078555
Y0068555
X0197658
X0206913Y0073299
X0207413Y0064055
X0216913Y0072055
Y0088087
X0209913Y0089055
X0207913Y0097555
X0212413
X0205413Y0101555
X0197396Y0102573
X0200913Y0093555
X0197413Y0083055
X0211913Y0110055
X0215913Y0106055
X0226913Y0104555
X0234413Y0114055
X0219913Y0115055
X0216413Y0123555
X0212413Y0126555
X0211945Y0134524
X0208413Y0131055
X0202551Y0126917
X0196913Y0125555
X0197413Y0131055
X0208413Y0141555
X0217413Y0138555
X0219413Y0147555
X0224539Y0144929
X0232413Y0145055
X0238913Y0144055
X0238413Y0131555
X0232413Y0128555
X0227669Y0127311
X0221413Y0126055
X0223031Y0163583
Y0173819
X0229724
X0250913Y0145055
X0255976Y0145118
X0260913Y0145055
X0262913Y0136555
X0257913Y0135555
X0267461Y0134508
X0274413Y0146555
X0272413Y0089555
X0264913Y0081555
X0253913
X0248913Y0079055
Y0075055
X0247913Y0093555
X0244913Y0100055
X0243913Y0107055
X0249413Y0110055
X0252913Y0099555
X0268689Y0074279
X0276913Y0069555
X0282413Y0080055
X0281913Y0092055
X0275913Y0093555
X0284913Y0096555
X0288913Y0100555
X0290913Y0109555
Y0114055
X0289413Y0118555
X0296008Y0114961
X0295413Y0129555
X0288913Y0133055
X0286102Y0138744
X0290039Y0141681
X0293976Y0138618
X0278913Y0140055
X0301913Y0147555
X0311413Y0141555
X0304913Y0100555
Y0078555
Y0068555
Y0237846
Y0247847
Y0269847
X0288913
X0284913Y0265846
X0281913Y0261347
X0275913Y0262846
X0282413Y0249346
X0276913Y0238846
X0290913Y0278847
Y0283347
X0289413Y0287846
X0296008Y0284252
X0295413Y0298847
X0288913Y0302346
X0286102Y0308035
X0290039Y0310972
X0293976Y0307909
X0278913Y0309347
X0301913Y0316846
X0311413Y0310846
X0274413Y0315846
X0260913Y0314347
X0255976Y0314409
X0250913Y0314347
X0238913Y0313347
X0232413Y0314347
X0224539Y031422
X0219413Y0316846
X0217413Y0307846
X0211945Y0303815
X0208413Y0300346
X0212413Y0295847
X0216413Y0292846
X0221413Y0295346
X0227669Y0296602
X0232413Y0297847
X0238413Y0300847
X0234413Y0283347
X0219913Y0284347
X0215913Y0275346
X0211913Y0279346
X0212413Y0266846
X0207913
X0205413Y0270847
X0197396Y0271864
X0200913Y0262846
X0209913Y0258347
X0216913Y0257378
Y0241347
X0206913Y024259
X0207413Y0233347
X0197658Y0237846
X0197413Y0252346
X0196913Y0294847
X0197413Y0300346
X0202551Y0296209
X0208413Y0310846
X0223031Y0332874
Y034311
X0229724
X0257913Y0304847
X0262913Y0305847
X0267461Y0303799
X0249413Y0279346
X0243913Y0276346
X0244913Y0269346
X0252913Y0268847
X0247913Y0262846
X0248913Y0248346
Y0244346
X0253913Y0250847
X0264913
X0268689Y0243571
X0272413Y0258846
X0226913Y0273847
X0147433Y0269847
X0131433
X0127433Y0265846
X0124433Y0261347
X0124933Y0249346
X0119433Y0238846
X0147433Y0237846
Y0247847
X0133433Y0278847
Y0283347
X0131933Y0287846
X0138528Y0284252
X0137933Y0298847
X0131433Y0302346
X0128622Y0308035
X0132559Y0310972
X0136496Y0307909
X0121433Y0309347
X0144433Y0316846
X0153933Y0310846
X0116933Y0315846
X0103433Y0314347
X0098496Y0314409
X0093433Y0314347
X0081433Y0313347
X0074933Y0314347
X0067059Y031422
X0061933Y0316846
X0059933Y0307846
X0054465Y0303815
X0050933Y0300346
X0054933Y0295847
X0058933Y0292846
X0063933Y0295346
X0070189Y0296602
X0074933Y0297847
X0080933Y0300847
X0076933Y0283347
X0062433Y0284347
X0058433Y0275346
X0054433Y0279346
X0054933Y0266846
X0050433
X0047933Y0270847
X0039915Y0271864
X0043433Y0262846
X0052433Y0258347
X0059433Y0257378
Y0241347
X0049433Y024259
X0049933Y0233347
X0040177Y0237846
X0039933Y0252346
X0039433Y0294847
X0039933Y0300346
X0045071Y0296209
X0050933Y0310846
X0065551Y0332874
Y034311
X0072244
X0100433Y0304847
X0105433Y0305847
X010998Y0303799
X0091933Y0279346
X0086433Y0276346
X0087433Y0269346
X0095433Y0268847
X0090433Y0262846
X0091433Y0248346
Y0244346
X0096433Y0250847
X0107433
X0111209Y0243571
X0114933Y0258846
X0118433Y0262846
X0069433Y0273847
X0059433Y0410638
X0049433Y0411882
X0049933Y0402638
X0040177Y0407138
X0039933Y0421638
X0043433Y0432138
X0050433Y0436138
X0054933
X0052433Y0427638
X0059433Y0426669
X0058433Y0444638
X0054433Y0448638
X0062433Y0453638
X0058933Y0462138
X0054933Y0465138
X0054465Y0473106
X0050933Y0469638
X0045071Y04655
X0039433Y0464138
X0039933Y0469638
X0050933Y0480138
X0059933Y0477138
X0061933Y0486138
X0067059Y0483512
X0074933Y0483638
X0081433Y0482638
X0080933Y0470138
X0074933Y0467138
X0070189Y0465894
X0063933Y0464638
X0076933Y0452638
X0086433Y0445638
X0087433Y0438638
X0095433Y0438138
X0090433Y0432138
X0091433Y0417638
Y0413638
X0096433Y0420138
X0107433
X0111209Y0412862
X0114933Y0428138
X0118433Y0432138
X0091933Y0448638
X0069433Y0443138
X0047933Y0440138
X0039915Y0441155
X0065551Y0502165
Y0512402
X0072244
X0093433Y0483638
X0098496Y0483701
X0103433Y0483638
X0105433Y0475138
X0100433Y0474138
X010998Y0473091
X0116933Y0485138
X0121433Y0478638
X0128622Y0477327
X0132559Y0480264
X0136496Y0477201
X0137933Y0468138
X0131433Y0471638
X0131933Y0457138
X0133433Y0452638
Y0448138
X0138528Y0453543
X0131433Y0439138
X0127433Y0435138
X0124433Y0430638
X0124933Y0418638
X0119433Y0408138
X0147433Y0407138
Y0417138
Y0439138
X0153933Y0480138
X0144433Y0486138
X0197413Y0469638
X0196913Y0464138
X0202551Y04655
X0208413Y0469638
X0211945Y0473106
X0212413Y0465138
X0216413Y0462138
X0221413Y0464638
X0227669Y0465894
X0232413Y0467138
X0238413Y0470138
X0238913Y0482638
X0232413Y0483638
X0224539Y0483512
X0219413Y0486138
X0217413Y0477138
X0208413Y0480138
X0211913Y0448638
X0215913Y0444638
X0212413Y0436138
X0207913
X0205413Y0440138
X0197396Y0441155
X0200913Y0432138
X0209913Y0427638
X0216913Y0426669
Y0410638
X0206913Y0411882
X0207413Y0402638
X0197658Y0407138
X0197413Y0421638
X0226913Y0443138
X0234413Y0452638
X0219913Y0453638
X0243913Y0445638
X0244913Y0438638
X0252913Y0438138
X0247913Y0432138
X0248913Y0417638
Y0413638
X0253913Y0420138
X0264913
X0268689Y0412862
X0272413Y0428138
X0249413Y0448638
X0257913Y0474138
X0262913Y0475138
X0267461Y0473091
X0260913Y0483638
X0255976Y0483701
X0250913Y0483638
X0274413Y0485138
X0223031Y0502165
Y0512402
X0229724
X0278913Y0478638
X0286102Y0477327
X0290039Y0480264
X0293976Y0477201
X0295413Y0468138
X0288913Y0471638
X0289413Y0457138
X0290913Y0452638
Y0448138
X0296008Y0453543
X0288913Y0439138
X0284913Y0435138
X0281913Y0430638
X0275913Y0432138
X0282413Y0418638
X0276913Y0408138
X0304913Y0407138
Y0417138
Y0439138
X0311413Y0480138
X0301913Y0486138
T02
X0105847Y0109468
Y0114193
Y0118917
Y0123642
X0110571
X0115295
Y0118917
X0110571
Y0114193
X0115295
Y0109468
X0110571
X012002
Y0114193
Y0118917
Y0123642
X0263327
X0268051
X0272776
Y0118917
X0268051
X0263327
Y0114193
X0268051
X0272776
Y0109468
X0268051
X0263327
X02775
Y0114193
Y0118917
Y0123642
Y027876
Y0283484
Y0288209
Y0292933
X0272776
X0268051
X0263327
Y0288209
X0268051
X0272776
Y0283484
X0268051
X0263327
Y027876
X0268051
X0272776
X012002
Y0283484
Y0288209
Y0292933
X0115295
X0110571
X0105847
Y0288209
X0110571
X0115295
Y0283484
X0110571
X0105847
Y027876
X0110571
X0115295
Y0448051
Y0452776
Y04575
Y0462224
X0110571
X0105847
Y04575
X0110571
Y0452776
X0105847
Y0448051
X0110571
X012002
Y0452776
Y04575
Y0462224
X0263327
X0268051
X0272776
Y04575
X0268051
X0263327
Y0452776
X0268051
X0272776
Y0448051
X0268051
X0263327
X02775
Y0452776
Y04575
Y0462224
T03
X0078741Y0064776
X0091536
X0101378
X0236221
X0249016
X0258859
Y0234067
X0249016
X0236221
X0101378
X0091536
X0078741
Y0403359
X0091536
X0101378
X0236221
X0249016
X0258859
T04
X0109055Y0154528
X0111811
X0114567
X0117323
X0120079
X0122835
X0125591
X0128347
X0131102
X0133858
X0266535
X0269291
X0272047
X0274803
X0277559
X0280315
X0283071
X0285827
X0288583
X0291339
Y0323819
X0288583
X0285827
X0283071
X0280315
X0277559
X0274803
X0272047
X0269291
X0266535
X0133858
X0131102
X0128347
X0125591
X0122835
X0120079
X0117323
X0114567
X0111811
X0109055
Y049311
X0111811
X0114567
X0117323
X0120079
X0122835
X0125591
X0128347
X0131102
X0133858
X0266535
X0269291
X0272047
X0274803
X0277559
X0280315
X0283071
X0285827
X0288583
X0291339
M30
