G04 Layer_Color=8388736*
%FSLAX25Y25*%
%MOIN*%
G70*
G01*
G75*
%ADD71C,0.07874*%
G04:AMPARAMS|DCode=72|XSize=5.55mil|YSize=5.63mil|CornerRadius=0mil|HoleSize=0mil|Usage=FLASHONLY|Rotation=315.000|XOffset=0mil|YOffset=0mil|HoleType=Round|Shape=Rectangle|*
%AMROTATEDRECTD72*
4,1,4,-0.00395,-0.00003,0.00003,0.00395,0.00395,0.00003,-0.00003,-0.00395,-0.00395,-0.00003,0.0*
%
%ADD72ROTATEDRECTD72*%

%ADD73C,0.08674*%
%ADD74O,0.03556X0.01784*%
%ADD75O,0.01784X0.03556*%
%ADD76R,0.21666X0.21666*%
%ADD77R,0.03162X0.03162*%
%ADD78R,0.03950X0.02375*%
%ADD79R,0.01981X0.03359*%
%ADD80R,0.02965X0.03950*%
%ADD81R,0.03162X0.03162*%
%ADD82R,0.03950X0.04343*%
%ADD83R,0.03359X0.04343*%
%ADD84R,0.04343X0.03950*%
%ADD85R,0.08280X0.09265*%
%ADD86R,0.05918X0.05524*%
%ADD87R,0.06115X0.02375*%
%ADD88C,0.05906*%
%ADD89O,0.01587X0.02769*%
%ADD90R,0.01587X0.02769*%
%ADD91O,0.02769X0.01587*%
%ADD92R,0.02769X0.01587*%
%ADD93R,0.01772X0.01870*%
%ADD94R,0.01870X0.01772*%
%ADD95R,0.01870X0.01378*%
%ADD96R,0.01476X0.01575*%
%ADD97R,0.02769X0.03064*%
%ADD98R,0.03064X0.02769*%
%ADD99R,0.08280X0.05131*%
%ADD100R,0.14186X0.16548*%
%ADD101O,0.04540X0.02572*%
%ADD102R,0.02375X0.03359*%
%ADD103R,0.02375X0.03950*%
%ADD104R,0.03556X0.03162*%
%ADD105O,0.03556X0.08674*%
%ADD106R,0.03556X0.08674*%
%ADD107C,0.00800*%
%ADD108C,0.08280*%
%ADD109C,0.03556*%
%ADD110C,0.03398*%
D71*
X23622Y19685D02*
G03*
X23622Y19685I-3937J0D01*
G01*
X341437Y540000D02*
G03*
X341437Y540000I-3937J0D01*
G01*
D72*
X47392Y136065D02*
D03*
X204872D02*
D03*
X47392Y305356D02*
D03*
X204872D02*
D03*
X47392Y474648D02*
D03*
X204872D02*
D03*
D73*
X19685Y19685D02*
D03*
X337500Y540000D02*
D03*
D74*
X99350Y127382D02*
D03*
Y125413D02*
D03*
Y123445D02*
D03*
Y121476D02*
D03*
Y119508D02*
D03*
Y117539D02*
D03*
Y115571D02*
D03*
Y113602D02*
D03*
Y111634D02*
D03*
Y109665D02*
D03*
Y107697D02*
D03*
Y105728D02*
D03*
X126516D02*
D03*
Y107697D02*
D03*
Y109665D02*
D03*
Y111634D02*
D03*
Y113602D02*
D03*
Y115571D02*
D03*
Y117539D02*
D03*
Y119508D02*
D03*
Y121476D02*
D03*
Y123445D02*
D03*
Y125413D02*
D03*
Y127382D02*
D03*
X256831D02*
D03*
Y125413D02*
D03*
Y123445D02*
D03*
Y121476D02*
D03*
Y119508D02*
D03*
Y117539D02*
D03*
Y115571D02*
D03*
Y113602D02*
D03*
Y111634D02*
D03*
Y109665D02*
D03*
Y107697D02*
D03*
Y105728D02*
D03*
X283996D02*
D03*
Y107697D02*
D03*
Y109665D02*
D03*
Y111634D02*
D03*
Y113602D02*
D03*
Y115571D02*
D03*
Y117539D02*
D03*
Y119508D02*
D03*
Y121476D02*
D03*
Y123445D02*
D03*
Y125413D02*
D03*
Y127382D02*
D03*
X99350Y296673D02*
D03*
Y294705D02*
D03*
Y292736D02*
D03*
Y290768D02*
D03*
Y288799D02*
D03*
Y286831D02*
D03*
Y284862D02*
D03*
Y282894D02*
D03*
Y280925D02*
D03*
Y278957D02*
D03*
Y276988D02*
D03*
Y275020D02*
D03*
X126516D02*
D03*
Y276988D02*
D03*
Y278957D02*
D03*
Y280925D02*
D03*
Y282894D02*
D03*
Y284862D02*
D03*
Y286831D02*
D03*
Y288799D02*
D03*
Y290768D02*
D03*
Y292736D02*
D03*
Y294705D02*
D03*
Y296673D02*
D03*
X256831D02*
D03*
Y294705D02*
D03*
Y292736D02*
D03*
Y290768D02*
D03*
Y288799D02*
D03*
Y286831D02*
D03*
Y284862D02*
D03*
Y282894D02*
D03*
Y280925D02*
D03*
Y278957D02*
D03*
Y276988D02*
D03*
Y275020D02*
D03*
X283996D02*
D03*
Y276988D02*
D03*
Y278957D02*
D03*
Y280925D02*
D03*
Y282894D02*
D03*
Y284862D02*
D03*
Y286831D02*
D03*
Y288799D02*
D03*
Y290768D02*
D03*
Y292736D02*
D03*
Y294705D02*
D03*
Y296673D02*
D03*
X99350Y465965D02*
D03*
Y463996D02*
D03*
Y462028D02*
D03*
Y460059D02*
D03*
Y458091D02*
D03*
Y456122D02*
D03*
Y454153D02*
D03*
Y452185D02*
D03*
Y450216D02*
D03*
Y448248D02*
D03*
Y446279D02*
D03*
Y444311D02*
D03*
X126516D02*
D03*
Y446279D02*
D03*
Y448248D02*
D03*
Y450216D02*
D03*
Y452185D02*
D03*
Y454153D02*
D03*
Y456122D02*
D03*
Y458091D02*
D03*
Y460059D02*
D03*
Y462028D02*
D03*
Y463996D02*
D03*
Y465965D02*
D03*
X256831D02*
D03*
Y463996D02*
D03*
Y462028D02*
D03*
Y460059D02*
D03*
Y458091D02*
D03*
Y456122D02*
D03*
Y454153D02*
D03*
Y452185D02*
D03*
Y450216D02*
D03*
Y448248D02*
D03*
Y446279D02*
D03*
Y444311D02*
D03*
X283996D02*
D03*
Y446279D02*
D03*
Y448248D02*
D03*
Y450216D02*
D03*
Y452185D02*
D03*
Y454153D02*
D03*
Y456122D02*
D03*
Y458091D02*
D03*
Y460059D02*
D03*
Y462028D02*
D03*
Y463996D02*
D03*
Y465965D02*
D03*
D75*
X102106Y102972D02*
D03*
X104075D02*
D03*
X106043D02*
D03*
X108012D02*
D03*
X109980D02*
D03*
X111949D02*
D03*
X113917D02*
D03*
X115886D02*
D03*
X117854D02*
D03*
X119823D02*
D03*
X121791D02*
D03*
X123760D02*
D03*
Y130138D02*
D03*
X121791D02*
D03*
X119823D02*
D03*
X117854D02*
D03*
X115886D02*
D03*
X113917D02*
D03*
X111949D02*
D03*
X109980D02*
D03*
X108012D02*
D03*
X106043D02*
D03*
X104075D02*
D03*
X102106D02*
D03*
X259587Y102972D02*
D03*
X261555D02*
D03*
X263524D02*
D03*
X265492D02*
D03*
X267461D02*
D03*
X269429D02*
D03*
X271398D02*
D03*
X273366D02*
D03*
X275335D02*
D03*
X277303D02*
D03*
X279272D02*
D03*
X281240D02*
D03*
Y130138D02*
D03*
X279272D02*
D03*
X277303D02*
D03*
X275335D02*
D03*
X273366D02*
D03*
X271398D02*
D03*
X269429D02*
D03*
X267461D02*
D03*
X265492D02*
D03*
X263524D02*
D03*
X261555D02*
D03*
X259587D02*
D03*
X102106Y272264D02*
D03*
X104075D02*
D03*
X106043D02*
D03*
X108012D02*
D03*
X109980D02*
D03*
X111949D02*
D03*
X113917D02*
D03*
X115886D02*
D03*
X117854D02*
D03*
X119823D02*
D03*
X121791D02*
D03*
X123760D02*
D03*
Y299429D02*
D03*
X121791D02*
D03*
X119823D02*
D03*
X117854D02*
D03*
X115886D02*
D03*
X113917D02*
D03*
X111949D02*
D03*
X109980D02*
D03*
X108012D02*
D03*
X106043D02*
D03*
X104075D02*
D03*
X102106D02*
D03*
X259587Y272264D02*
D03*
X261555D02*
D03*
X263524D02*
D03*
X265492D02*
D03*
X267461D02*
D03*
X269429D02*
D03*
X271398D02*
D03*
X273366D02*
D03*
X275335D02*
D03*
X277303D02*
D03*
X279272D02*
D03*
X281240D02*
D03*
Y299429D02*
D03*
X279272D02*
D03*
X277303D02*
D03*
X275335D02*
D03*
X273366D02*
D03*
X271398D02*
D03*
X269429D02*
D03*
X267461D02*
D03*
X265492D02*
D03*
X263524D02*
D03*
X261555D02*
D03*
X259587D02*
D03*
X102106Y441555D02*
D03*
X104075D02*
D03*
X106043D02*
D03*
X108012D02*
D03*
X109980D02*
D03*
X111949D02*
D03*
X113917D02*
D03*
X115886D02*
D03*
X117854D02*
D03*
X119823D02*
D03*
X121791D02*
D03*
X123760D02*
D03*
Y468720D02*
D03*
X121791D02*
D03*
X119823D02*
D03*
X117854D02*
D03*
X115886D02*
D03*
X113917D02*
D03*
X111949D02*
D03*
X109980D02*
D03*
X108012D02*
D03*
X106043D02*
D03*
X104075D02*
D03*
X102106D02*
D03*
X259587Y441555D02*
D03*
X261555D02*
D03*
X263524D02*
D03*
X265492D02*
D03*
X267461D02*
D03*
X269429D02*
D03*
X271398D02*
D03*
X273366D02*
D03*
X275335D02*
D03*
X277303D02*
D03*
X279272D02*
D03*
X281240D02*
D03*
Y468720D02*
D03*
X279272D02*
D03*
X277303D02*
D03*
X275335D02*
D03*
X273366D02*
D03*
X271398D02*
D03*
X269429D02*
D03*
X267461D02*
D03*
X265492D02*
D03*
X263524D02*
D03*
X261555D02*
D03*
X259587D02*
D03*
D76*
X112933Y116555D02*
D03*
X270413D02*
D03*
X112933Y285846D02*
D03*
X270413D02*
D03*
X112933Y455138D02*
D03*
X270413D02*
D03*
D77*
X79933Y110024D02*
D03*
Y106087D02*
D03*
Y94587D02*
D03*
Y98524D02*
D03*
X64933Y112024D02*
D03*
Y108087D02*
D03*
Y100524D02*
D03*
Y96587D02*
D03*
X129433Y87087D02*
D03*
Y91024D02*
D03*
X75433Y120587D02*
D03*
Y124524D02*
D03*
Y131587D02*
D03*
Y135524D02*
D03*
X58433Y130587D02*
D03*
Y134524D02*
D03*
X111933Y93524D02*
D03*
Y89587D02*
D03*
X129433Y70087D02*
D03*
Y74024D02*
D03*
Y83024D02*
D03*
Y79087D02*
D03*
X134433Y91024D02*
D03*
Y87087D02*
D03*
X237413Y110024D02*
D03*
Y106087D02*
D03*
Y94587D02*
D03*
Y98524D02*
D03*
X222413Y112024D02*
D03*
Y108087D02*
D03*
Y100524D02*
D03*
Y96587D02*
D03*
X286913Y87087D02*
D03*
Y91024D02*
D03*
X232913Y120587D02*
D03*
Y124524D02*
D03*
Y131587D02*
D03*
Y135524D02*
D03*
X215913Y130587D02*
D03*
Y134524D02*
D03*
X269413Y93524D02*
D03*
Y89587D02*
D03*
X286913Y70087D02*
D03*
Y74024D02*
D03*
Y83024D02*
D03*
Y79087D02*
D03*
X291913Y91024D02*
D03*
Y87087D02*
D03*
X79933Y279315D02*
D03*
Y275378D02*
D03*
Y263878D02*
D03*
Y267815D02*
D03*
X64933Y281315D02*
D03*
Y277378D02*
D03*
Y269815D02*
D03*
Y265878D02*
D03*
X129433Y256378D02*
D03*
Y260315D02*
D03*
X75433Y289878D02*
D03*
Y293815D02*
D03*
Y300878D02*
D03*
Y304815D02*
D03*
X58433Y299878D02*
D03*
Y303815D02*
D03*
X111933Y262815D02*
D03*
Y258878D02*
D03*
X129433Y239378D02*
D03*
Y243315D02*
D03*
Y252315D02*
D03*
Y248378D02*
D03*
X134433Y260315D02*
D03*
Y256378D02*
D03*
X237413Y279315D02*
D03*
Y275378D02*
D03*
Y263878D02*
D03*
Y267815D02*
D03*
X222413Y281315D02*
D03*
Y277378D02*
D03*
Y269815D02*
D03*
Y265878D02*
D03*
X286913Y256378D02*
D03*
Y260315D02*
D03*
X232913Y289878D02*
D03*
Y293815D02*
D03*
Y300878D02*
D03*
Y304815D02*
D03*
X215913Y299878D02*
D03*
Y303815D02*
D03*
X269413Y262815D02*
D03*
Y258878D02*
D03*
X286913Y239378D02*
D03*
Y243315D02*
D03*
Y252315D02*
D03*
Y248378D02*
D03*
X291913Y260315D02*
D03*
Y256378D02*
D03*
X79933Y448606D02*
D03*
Y444669D02*
D03*
Y433169D02*
D03*
Y437106D02*
D03*
X64933Y450606D02*
D03*
Y446669D02*
D03*
Y439106D02*
D03*
Y435169D02*
D03*
X129433Y425669D02*
D03*
Y429606D02*
D03*
X75433Y459169D02*
D03*
Y463106D02*
D03*
Y470169D02*
D03*
Y474106D02*
D03*
X58433Y469169D02*
D03*
Y473106D02*
D03*
X111933Y432106D02*
D03*
Y428169D02*
D03*
X129433Y408669D02*
D03*
Y412606D02*
D03*
Y421606D02*
D03*
Y417669D02*
D03*
X134433Y429606D02*
D03*
Y425669D02*
D03*
X237413Y448606D02*
D03*
Y444669D02*
D03*
Y433169D02*
D03*
Y437106D02*
D03*
X222413Y450606D02*
D03*
Y446669D02*
D03*
Y439106D02*
D03*
Y435169D02*
D03*
X286913Y425669D02*
D03*
Y429606D02*
D03*
X232913Y459169D02*
D03*
Y463106D02*
D03*
Y470169D02*
D03*
Y474106D02*
D03*
X215913Y469169D02*
D03*
Y473106D02*
D03*
X269413Y432106D02*
D03*
Y428169D02*
D03*
X286913Y408669D02*
D03*
Y412606D02*
D03*
Y421606D02*
D03*
Y417669D02*
D03*
X291913Y429606D02*
D03*
Y425669D02*
D03*
D78*
X69677Y112024D02*
D03*
Y108087D02*
D03*
X75189Y110055D02*
D03*
X69677Y100524D02*
D03*
Y96587D02*
D03*
X75189Y98555D02*
D03*
X70189Y120587D02*
D03*
Y124524D02*
D03*
X64677Y122555D02*
D03*
X70189Y131587D02*
D03*
Y135524D02*
D03*
X64677Y133555D02*
D03*
X227157Y112024D02*
D03*
Y108087D02*
D03*
X232669Y110055D02*
D03*
X227157Y100524D02*
D03*
Y96587D02*
D03*
X232669Y98555D02*
D03*
X227669Y120587D02*
D03*
Y124524D02*
D03*
X222158Y122555D02*
D03*
X227669Y131587D02*
D03*
Y135524D02*
D03*
X222158Y133555D02*
D03*
X69677Y281315D02*
D03*
Y277378D02*
D03*
X75189Y279346D02*
D03*
X69677Y269815D02*
D03*
Y265878D02*
D03*
X75189Y267846D02*
D03*
X70189Y289878D02*
D03*
Y293815D02*
D03*
X64677Y291846D02*
D03*
X70189Y300878D02*
D03*
Y304815D02*
D03*
X64677Y302847D02*
D03*
X227157Y281315D02*
D03*
Y277378D02*
D03*
X232669Y279346D02*
D03*
X227157Y269815D02*
D03*
Y265878D02*
D03*
X232669Y267846D02*
D03*
X227669Y289878D02*
D03*
Y293815D02*
D03*
X222158Y291846D02*
D03*
X227669Y300878D02*
D03*
Y304815D02*
D03*
X222158Y302847D02*
D03*
X69677Y450606D02*
D03*
Y446669D02*
D03*
X75189Y448638D02*
D03*
X69677Y439106D02*
D03*
Y435169D02*
D03*
X75189Y437138D02*
D03*
X70189Y459169D02*
D03*
Y463106D02*
D03*
X64677Y461138D02*
D03*
X70189Y470169D02*
D03*
Y474106D02*
D03*
X64677Y472138D02*
D03*
X227157Y450606D02*
D03*
Y446669D02*
D03*
X232669Y448638D02*
D03*
X227157Y439106D02*
D03*
Y435169D02*
D03*
X232669Y437138D02*
D03*
X227669Y459169D02*
D03*
Y463106D02*
D03*
X222158Y461138D02*
D03*
X227669Y470169D02*
D03*
Y474106D02*
D03*
X222158Y472138D02*
D03*
D79*
X90622Y141055D02*
D03*
X94559D02*
D03*
X98496D02*
D03*
X102433D02*
D03*
X63122D02*
D03*
X67059D02*
D03*
X70996D02*
D03*
X74933D02*
D03*
X248102D02*
D03*
X252039D02*
D03*
X255976D02*
D03*
X259913D02*
D03*
X220602D02*
D03*
X224539D02*
D03*
X228476D02*
D03*
X232413D02*
D03*
X90622Y310347D02*
D03*
X94559D02*
D03*
X98496D02*
D03*
X102433D02*
D03*
X63122D02*
D03*
X67059D02*
D03*
X70996D02*
D03*
X74933D02*
D03*
X248102D02*
D03*
X252039D02*
D03*
X255976D02*
D03*
X259913D02*
D03*
X220602D02*
D03*
X224539D02*
D03*
X228476D02*
D03*
X232413D02*
D03*
X90622Y479638D02*
D03*
X94559D02*
D03*
X98496D02*
D03*
X102433D02*
D03*
X63122D02*
D03*
X67059D02*
D03*
X70996D02*
D03*
X74933D02*
D03*
X248102D02*
D03*
X252039D02*
D03*
X255976D02*
D03*
X259913D02*
D03*
X220602D02*
D03*
X224539D02*
D03*
X228476D02*
D03*
X232413D02*
D03*
D80*
X108043Y149224D02*
D03*
X85012D02*
D03*
X80543D02*
D03*
X57512D02*
D03*
X265524D02*
D03*
X242492D02*
D03*
X238024D02*
D03*
X214992D02*
D03*
X108043Y318516D02*
D03*
X85012D02*
D03*
X80543D02*
D03*
X57512D02*
D03*
X265524D02*
D03*
X242492D02*
D03*
X238024D02*
D03*
X214992D02*
D03*
X108043Y487807D02*
D03*
X85012D02*
D03*
X80543D02*
D03*
X57512D02*
D03*
X265524D02*
D03*
X242492D02*
D03*
X238024D02*
D03*
X214992D02*
D03*
D81*
X79965Y114055D02*
D03*
X83902D02*
D03*
X58965Y119055D02*
D03*
X62902D02*
D03*
X125402Y135555D02*
D03*
X121465D02*
D03*
X103965Y97555D02*
D03*
X107902D02*
D03*
X54965Y93555D02*
D03*
X58902D02*
D03*
X54965Y101055D02*
D03*
X58902D02*
D03*
X237445Y114055D02*
D03*
X241382D02*
D03*
X216445Y119055D02*
D03*
X220382D02*
D03*
X282882Y135555D02*
D03*
X278945D02*
D03*
X261445Y97555D02*
D03*
X265382D02*
D03*
X212445Y93555D02*
D03*
X216382D02*
D03*
X212445Y101055D02*
D03*
X216382D02*
D03*
X79965Y283347D02*
D03*
X83902D02*
D03*
X58965Y288347D02*
D03*
X62902D02*
D03*
X125402Y304847D02*
D03*
X121465D02*
D03*
X103965Y266846D02*
D03*
X107902D02*
D03*
X54965Y262846D02*
D03*
X58902D02*
D03*
X54965Y270346D02*
D03*
X58902D02*
D03*
X237445Y283347D02*
D03*
X241382D02*
D03*
X216445Y288347D02*
D03*
X220382D02*
D03*
X282882Y304847D02*
D03*
X278945D02*
D03*
X261445Y266846D02*
D03*
X265382D02*
D03*
X212445Y262846D02*
D03*
X216382D02*
D03*
X212445Y270346D02*
D03*
X216382D02*
D03*
X79965Y452638D02*
D03*
X83902D02*
D03*
X58965Y457638D02*
D03*
X62902D02*
D03*
X125402Y474138D02*
D03*
X121465D02*
D03*
X103965Y436138D02*
D03*
X107902D02*
D03*
X54965Y432138D02*
D03*
X58902D02*
D03*
X54965Y439638D02*
D03*
X58902D02*
D03*
X237445Y452638D02*
D03*
X241382D02*
D03*
X216445Y457638D02*
D03*
X220382D02*
D03*
X282882Y474138D02*
D03*
X278945D02*
D03*
X261445Y436138D02*
D03*
X265382D02*
D03*
X212445Y432138D02*
D03*
X216382D02*
D03*
X212445Y439638D02*
D03*
X216382D02*
D03*
D82*
X40177Y64055D02*
D03*
X45689D02*
D03*
X115677Y80055D02*
D03*
X121189D02*
D03*
X197658Y64055D02*
D03*
X203169D02*
D03*
X273158Y80055D02*
D03*
X278669D02*
D03*
X40177Y233347D02*
D03*
X45689D02*
D03*
X115677Y249346D02*
D03*
X121189D02*
D03*
X197658Y233347D02*
D03*
X203169D02*
D03*
X273158Y249346D02*
D03*
X278669D02*
D03*
X40177Y402638D02*
D03*
X45689D02*
D03*
X115677Y418638D02*
D03*
X121189D02*
D03*
X197658Y402638D02*
D03*
X203169D02*
D03*
X273158Y418638D02*
D03*
X278669D02*
D03*
D83*
X45693Y69331D02*
D03*
X49433D02*
D03*
X53173D02*
D03*
Y78780D02*
D03*
X45693D02*
D03*
X115693Y74279D02*
D03*
X123173D02*
D03*
Y64831D02*
D03*
X119433D02*
D03*
X115693D02*
D03*
X203173Y69331D02*
D03*
X206913D02*
D03*
X210653D02*
D03*
Y78780D02*
D03*
X203173D02*
D03*
X273173Y74279D02*
D03*
X280654D02*
D03*
Y64831D02*
D03*
X276913D02*
D03*
X273173D02*
D03*
X45693Y238622D02*
D03*
X49433D02*
D03*
X53173D02*
D03*
Y248071D02*
D03*
X45693D02*
D03*
X115693Y243571D02*
D03*
X123173D02*
D03*
Y234122D02*
D03*
X119433D02*
D03*
X115693D02*
D03*
X203173Y238622D02*
D03*
X206913D02*
D03*
X210653D02*
D03*
Y248071D02*
D03*
X203173D02*
D03*
X273173Y243571D02*
D03*
X280654D02*
D03*
Y234122D02*
D03*
X276913D02*
D03*
X273173D02*
D03*
X45693Y407913D02*
D03*
X49433D02*
D03*
X53173D02*
D03*
Y417362D02*
D03*
X45693D02*
D03*
X115693Y412862D02*
D03*
X123173D02*
D03*
Y403413D02*
D03*
X119433D02*
D03*
X115693D02*
D03*
X203173Y407913D02*
D03*
X206913D02*
D03*
X210653D02*
D03*
Y417362D02*
D03*
X203173D02*
D03*
X273173Y412862D02*
D03*
X280654D02*
D03*
Y403413D02*
D03*
X276913D02*
D03*
X273173D02*
D03*
D84*
X39933Y73299D02*
D03*
Y78811D02*
D03*
X116933Y136299D02*
D03*
Y141811D02*
D03*
X149933Y147311D02*
D03*
Y141799D02*
D03*
X108433Y64299D02*
D03*
Y69811D02*
D03*
X197413Y73299D02*
D03*
Y78811D02*
D03*
X274413Y136299D02*
D03*
Y141811D02*
D03*
X307413Y147311D02*
D03*
Y141799D02*
D03*
X265913Y64299D02*
D03*
Y69811D02*
D03*
X39933Y242590D02*
D03*
Y248102D02*
D03*
X116933Y305591D02*
D03*
Y311102D02*
D03*
X149933Y316602D02*
D03*
Y311090D02*
D03*
X108433Y233591D02*
D03*
Y239102D02*
D03*
X197413Y242590D02*
D03*
Y248102D02*
D03*
X274413Y305591D02*
D03*
Y311102D02*
D03*
X307413Y316602D02*
D03*
Y311090D02*
D03*
X265913Y233591D02*
D03*
Y239102D02*
D03*
X39933Y411882D02*
D03*
Y417394D02*
D03*
X116933Y474882D02*
D03*
Y480394D02*
D03*
X149933Y485894D02*
D03*
Y480382D02*
D03*
X108433Y402882D02*
D03*
Y408394D02*
D03*
X197413Y411882D02*
D03*
Y417394D02*
D03*
X274413Y474882D02*
D03*
Y480394D02*
D03*
X307413Y485894D02*
D03*
Y480382D02*
D03*
X265913Y402882D02*
D03*
Y408394D02*
D03*
D85*
X158465Y128642D02*
D03*
Y111516D02*
D03*
X315945Y128642D02*
D03*
Y111516D02*
D03*
X158465Y297933D02*
D03*
Y280807D02*
D03*
X315945Y297933D02*
D03*
Y280807D02*
D03*
X158465Y467224D02*
D03*
Y450098D02*
D03*
X315945Y467224D02*
D03*
Y450098D02*
D03*
D86*
X144291Y129921D02*
D03*
Y110236D02*
D03*
X301772Y129921D02*
D03*
Y110236D02*
D03*
X144291Y299213D02*
D03*
Y279528D02*
D03*
X301772Y299213D02*
D03*
Y279528D02*
D03*
X144291Y468504D02*
D03*
Y448819D02*
D03*
X301772Y468504D02*
D03*
Y448819D02*
D03*
D87*
X145965Y114961D02*
D03*
Y125197D02*
D03*
Y122638D02*
D03*
Y120079D02*
D03*
Y117520D02*
D03*
X303445Y114961D02*
D03*
Y125197D02*
D03*
Y122638D02*
D03*
Y120079D02*
D03*
Y117520D02*
D03*
X145965Y284252D02*
D03*
Y294488D02*
D03*
Y291929D02*
D03*
Y289370D02*
D03*
Y286811D02*
D03*
X303445Y284252D02*
D03*
Y294488D02*
D03*
Y291929D02*
D03*
Y289370D02*
D03*
Y286811D02*
D03*
X145965Y453543D02*
D03*
Y463779D02*
D03*
Y461221D02*
D03*
Y458661D02*
D03*
Y456102D02*
D03*
X303445Y453543D02*
D03*
Y463779D02*
D03*
Y461221D02*
D03*
Y458661D02*
D03*
Y456102D02*
D03*
D88*
X51433Y149055D02*
D03*
X152933Y64055D02*
D03*
X208913Y149055D02*
D03*
X310413Y64055D02*
D03*
X51433Y318347D02*
D03*
X152933Y233347D02*
D03*
X208913Y318347D02*
D03*
X310413Y233347D02*
D03*
X51433Y487638D02*
D03*
X152933Y402638D02*
D03*
X208913Y487638D02*
D03*
X310413Y402638D02*
D03*
D89*
X43496Y123264D02*
D03*
X51370D02*
D03*
Y111846D02*
D03*
X43496D02*
D03*
X200976Y123264D02*
D03*
X208850D02*
D03*
Y111846D02*
D03*
X200976D02*
D03*
X43496Y292555D02*
D03*
X51370D02*
D03*
Y281138D02*
D03*
X43496D02*
D03*
X200976Y292555D02*
D03*
X208850D02*
D03*
Y281138D02*
D03*
X200976D02*
D03*
X43496Y461846D02*
D03*
X51370D02*
D03*
Y450429D02*
D03*
X43496D02*
D03*
X200976Y461846D02*
D03*
X208850D02*
D03*
Y450429D02*
D03*
X200976D02*
D03*
D90*
X45071Y123264D02*
D03*
X46646D02*
D03*
X48221D02*
D03*
X49795D02*
D03*
Y111846D02*
D03*
X48221D02*
D03*
X46646D02*
D03*
X45071D02*
D03*
X202551Y123264D02*
D03*
X204126D02*
D03*
X205701D02*
D03*
X207276D02*
D03*
Y111846D02*
D03*
X205701D02*
D03*
X204126D02*
D03*
X202551D02*
D03*
X45071Y292555D02*
D03*
X46646D02*
D03*
X48221D02*
D03*
X49795D02*
D03*
Y281138D02*
D03*
X48221D02*
D03*
X46646D02*
D03*
X45071D02*
D03*
X202551Y292555D02*
D03*
X204126D02*
D03*
X205701D02*
D03*
X207276D02*
D03*
Y281138D02*
D03*
X205701D02*
D03*
X204126D02*
D03*
X202551D02*
D03*
X45071Y461846D02*
D03*
X46646D02*
D03*
X48221D02*
D03*
X49795D02*
D03*
Y450429D02*
D03*
X48221D02*
D03*
X46646D02*
D03*
X45071D02*
D03*
X202551Y461846D02*
D03*
X204126D02*
D03*
X205701D02*
D03*
X207276D02*
D03*
Y450429D02*
D03*
X205701D02*
D03*
X204126D02*
D03*
X202551D02*
D03*
D91*
X53142Y121492D02*
D03*
Y113618D02*
D03*
X41724D02*
D03*
Y121492D02*
D03*
X210622D02*
D03*
Y113618D02*
D03*
X199205D02*
D03*
Y121492D02*
D03*
X53142Y290784D02*
D03*
Y282909D02*
D03*
X41724D02*
D03*
Y290784D02*
D03*
X210622D02*
D03*
Y282909D02*
D03*
X199205D02*
D03*
Y290784D02*
D03*
X53142Y460075D02*
D03*
Y452201D02*
D03*
X41724D02*
D03*
Y460075D02*
D03*
X210622D02*
D03*
Y452201D02*
D03*
X199205D02*
D03*
Y460075D02*
D03*
D92*
X53142Y119917D02*
D03*
Y118342D02*
D03*
Y116768D02*
D03*
Y115193D02*
D03*
X41724D02*
D03*
Y116768D02*
D03*
Y118342D02*
D03*
Y119917D02*
D03*
X210622D02*
D03*
Y118342D02*
D03*
Y116768D02*
D03*
Y115193D02*
D03*
X199205D02*
D03*
Y116768D02*
D03*
Y118342D02*
D03*
Y119917D02*
D03*
X53142Y289209D02*
D03*
Y287634D02*
D03*
Y286059D02*
D03*
Y284484D02*
D03*
X41724D02*
D03*
Y286059D02*
D03*
Y287634D02*
D03*
Y289209D02*
D03*
X210622D02*
D03*
Y287634D02*
D03*
Y286059D02*
D03*
Y284484D02*
D03*
X199205D02*
D03*
Y286059D02*
D03*
Y287634D02*
D03*
Y289209D02*
D03*
X53142Y458500D02*
D03*
Y456925D02*
D03*
Y455350D02*
D03*
Y453776D02*
D03*
X41724D02*
D03*
Y455350D02*
D03*
Y456925D02*
D03*
Y458500D02*
D03*
X210622D02*
D03*
Y456925D02*
D03*
Y455350D02*
D03*
Y453776D02*
D03*
X199205D02*
D03*
Y455350D02*
D03*
Y456925D02*
D03*
Y458500D02*
D03*
D93*
X46900Y134537D02*
D03*
X44931D02*
D03*
X42963D02*
D03*
Y140541D02*
D03*
X44931D02*
D03*
X46900D02*
D03*
X204380Y134537D02*
D03*
X202411D02*
D03*
X200443D02*
D03*
Y140541D02*
D03*
X202411D02*
D03*
X204380D02*
D03*
X46900Y303829D02*
D03*
X44931D02*
D03*
X42963D02*
D03*
Y309833D02*
D03*
X44931D02*
D03*
X46900D02*
D03*
X204380Y303829D02*
D03*
X202411D02*
D03*
X200443D02*
D03*
Y309833D02*
D03*
X202411D02*
D03*
X204380D02*
D03*
X46900Y473120D02*
D03*
X44931D02*
D03*
X42963D02*
D03*
Y479124D02*
D03*
X44931D02*
D03*
X46900D02*
D03*
X204380Y473120D02*
D03*
X202411D02*
D03*
X200443D02*
D03*
Y479124D02*
D03*
X202411D02*
D03*
X204380D02*
D03*
D94*
X41929Y136555D02*
D03*
Y138524D02*
D03*
X47933D02*
D03*
X199409Y136555D02*
D03*
Y138524D02*
D03*
X205413D02*
D03*
X41929Y305847D02*
D03*
Y307815D02*
D03*
X47933D02*
D03*
X199409Y305847D02*
D03*
Y307815D02*
D03*
X205413D02*
D03*
X41929Y475138D02*
D03*
Y477106D02*
D03*
X47933D02*
D03*
X199409Y475138D02*
D03*
Y477106D02*
D03*
X205413D02*
D03*
D95*
X47935Y136752D02*
D03*
X205415D02*
D03*
X47935Y306043D02*
D03*
X205415D02*
D03*
X47935Y475335D02*
D03*
X205415D02*
D03*
D96*
X48132Y136457D02*
D03*
X205612D02*
D03*
X48132Y305748D02*
D03*
X205612D02*
D03*
X48132Y475039D02*
D03*
X205612D02*
D03*
D97*
X131433Y126037D02*
D03*
Y130073D02*
D03*
X112433Y142573D02*
D03*
Y138537D02*
D03*
X58433Y110037D02*
D03*
Y114073D02*
D03*
X84433Y124037D02*
D03*
Y128073D02*
D03*
X84433Y135573D02*
D03*
Y131537D02*
D03*
X92433Y88073D02*
D03*
Y84037D02*
D03*
X97933Y93573D02*
D03*
Y89537D02*
D03*
X288913Y126037D02*
D03*
Y130073D02*
D03*
X269913Y142573D02*
D03*
Y138537D02*
D03*
X215913Y110037D02*
D03*
Y114073D02*
D03*
X241913Y124037D02*
D03*
Y128073D02*
D03*
X241913Y135573D02*
D03*
Y131537D02*
D03*
X249913Y88073D02*
D03*
Y84037D02*
D03*
X255413Y93573D02*
D03*
Y89537D02*
D03*
X131433Y295329D02*
D03*
Y299364D02*
D03*
X112433Y311864D02*
D03*
Y307829D02*
D03*
X58433Y279329D02*
D03*
Y283364D02*
D03*
X84433Y293329D02*
D03*
Y297364D02*
D03*
X84433Y304864D02*
D03*
Y300829D02*
D03*
X92433Y257364D02*
D03*
Y253329D02*
D03*
X97933Y262864D02*
D03*
Y258829D02*
D03*
X288913Y295329D02*
D03*
Y299364D02*
D03*
X269913Y311864D02*
D03*
Y307829D02*
D03*
X215913Y279329D02*
D03*
Y283364D02*
D03*
X241913Y293329D02*
D03*
Y297364D02*
D03*
X241913Y304864D02*
D03*
Y300829D02*
D03*
X249913Y257364D02*
D03*
Y253329D02*
D03*
X255413Y262864D02*
D03*
Y258829D02*
D03*
X131433Y464620D02*
D03*
Y468655D02*
D03*
X112433Y481155D02*
D03*
Y477120D02*
D03*
X58433Y448620D02*
D03*
Y452656D02*
D03*
X84433Y462620D02*
D03*
Y466655D02*
D03*
X84433Y474156D02*
D03*
Y470120D02*
D03*
X92433Y426655D02*
D03*
Y422620D02*
D03*
X97933Y432156D02*
D03*
Y428120D02*
D03*
X288913Y464620D02*
D03*
Y468655D02*
D03*
X269913Y481155D02*
D03*
Y477120D02*
D03*
X215913Y448620D02*
D03*
Y452656D02*
D03*
X241913Y462620D02*
D03*
Y466655D02*
D03*
X241913Y474156D02*
D03*
Y470120D02*
D03*
X249913Y426655D02*
D03*
Y422620D02*
D03*
X255413Y432156D02*
D03*
Y428120D02*
D03*
D98*
X115451Y97555D02*
D03*
X111415D02*
D03*
X93451Y119055D02*
D03*
X89415D02*
D03*
X39915Y106055D02*
D03*
X43951D02*
D03*
X46951Y131055D02*
D03*
X42915D02*
D03*
X53451Y106055D02*
D03*
X49415D02*
D03*
X70951Y170055D02*
D03*
X66915D02*
D03*
X272931Y97555D02*
D03*
X268896D02*
D03*
X250931Y119055D02*
D03*
X246896D02*
D03*
X197396Y106055D02*
D03*
X201431D02*
D03*
X204431Y131055D02*
D03*
X200396D02*
D03*
X210931Y106055D02*
D03*
X206896D02*
D03*
X228431Y170055D02*
D03*
X224396D02*
D03*
X115451Y266846D02*
D03*
X111415D02*
D03*
X93451Y288347D02*
D03*
X89415D02*
D03*
X39915Y275346D02*
D03*
X43951D02*
D03*
X46951Y300346D02*
D03*
X42915D02*
D03*
X53451Y275346D02*
D03*
X49415D02*
D03*
X70951Y339347D02*
D03*
X66915D02*
D03*
X272931Y266846D02*
D03*
X268896D02*
D03*
X250931Y288347D02*
D03*
X246896D02*
D03*
X197396Y275346D02*
D03*
X201431D02*
D03*
X204431Y300346D02*
D03*
X200396D02*
D03*
X210931Y275346D02*
D03*
X206896D02*
D03*
X228431Y339347D02*
D03*
X224396D02*
D03*
X115451Y436138D02*
D03*
X111415D02*
D03*
X93451Y457638D02*
D03*
X89415D02*
D03*
X39915Y444638D02*
D03*
X43951D02*
D03*
X46951Y469638D02*
D03*
X42915D02*
D03*
X53451Y444638D02*
D03*
X49415D02*
D03*
X70951Y508638D02*
D03*
X66915D02*
D03*
X272931Y436138D02*
D03*
X268896D02*
D03*
X250931Y457638D02*
D03*
X246896D02*
D03*
X197396Y444638D02*
D03*
X201431D02*
D03*
X204431Y469638D02*
D03*
X200396D02*
D03*
X210931Y444638D02*
D03*
X206896D02*
D03*
X228431Y508638D02*
D03*
X224396D02*
D03*
D99*
X90933Y125134D02*
D03*
Y134976D02*
D03*
X248413Y125134D02*
D03*
Y134976D02*
D03*
X90933Y294425D02*
D03*
Y304268D02*
D03*
X248413Y294425D02*
D03*
Y304268D02*
D03*
X90933Y463717D02*
D03*
Y473559D02*
D03*
X248413Y463717D02*
D03*
Y473559D02*
D03*
D100*
X75433Y80555D02*
D03*
X232913D02*
D03*
X75433Y249847D02*
D03*
X232913D02*
D03*
X75433Y419138D02*
D03*
X232913D02*
D03*
D101*
X86752Y88055D02*
D03*
Y83055D02*
D03*
Y78055D02*
D03*
Y73055D02*
D03*
X64114D02*
D03*
Y78055D02*
D03*
Y83055D02*
D03*
Y88055D02*
D03*
X244232D02*
D03*
Y83055D02*
D03*
Y78055D02*
D03*
Y73055D02*
D03*
X221595D02*
D03*
Y78055D02*
D03*
Y83055D02*
D03*
Y88055D02*
D03*
X86752Y257347D02*
D03*
Y252346D02*
D03*
Y247346D02*
D03*
Y242347D02*
D03*
X64114D02*
D03*
Y247346D02*
D03*
Y252346D02*
D03*
Y257347D02*
D03*
X244232D02*
D03*
Y252346D02*
D03*
Y247346D02*
D03*
Y242347D02*
D03*
X221595D02*
D03*
Y247346D02*
D03*
Y252346D02*
D03*
Y257347D02*
D03*
X86752Y426638D02*
D03*
Y421638D02*
D03*
Y416638D02*
D03*
Y411638D02*
D03*
X64114D02*
D03*
Y416638D02*
D03*
Y421638D02*
D03*
Y426638D02*
D03*
X244232D02*
D03*
Y421638D02*
D03*
Y416638D02*
D03*
Y411638D02*
D03*
X221595D02*
D03*
Y416638D02*
D03*
Y421638D02*
D03*
Y426638D02*
D03*
D102*
X102374Y93295D02*
D03*
X107492D02*
D03*
Y85815D02*
D03*
X104933D02*
D03*
X102374D02*
D03*
X259854Y93295D02*
D03*
X264972D02*
D03*
Y85815D02*
D03*
X262413D02*
D03*
X259854D02*
D03*
X102374Y262587D02*
D03*
X107492D02*
D03*
Y255106D02*
D03*
X104933D02*
D03*
X102374D02*
D03*
X259854Y262587D02*
D03*
X264972D02*
D03*
Y255106D02*
D03*
X262413D02*
D03*
X259854D02*
D03*
X102374Y431878D02*
D03*
X107492D02*
D03*
Y424398D02*
D03*
X104933D02*
D03*
X102374D02*
D03*
X259854Y431878D02*
D03*
X264972D02*
D03*
Y424398D02*
D03*
X262413D02*
D03*
X259854D02*
D03*
D103*
X96433Y76811D02*
D03*
X98402Y71299D02*
D03*
X94465D02*
D03*
X137933Y125811D02*
D03*
X139902Y120299D02*
D03*
X135965D02*
D03*
X253913Y76811D02*
D03*
X255882Y71299D02*
D03*
X251945D02*
D03*
X295413Y125811D02*
D03*
X297382Y120299D02*
D03*
X293445D02*
D03*
X96433Y246102D02*
D03*
X98402Y240591D02*
D03*
X94465D02*
D03*
X137933Y295102D02*
D03*
X139902Y289591D02*
D03*
X135965D02*
D03*
X253913Y246102D02*
D03*
X255882Y240591D02*
D03*
X251945D02*
D03*
X295413Y295102D02*
D03*
X297382Y289591D02*
D03*
X293445D02*
D03*
X96433Y415394D02*
D03*
X98402Y409882D02*
D03*
X94465D02*
D03*
X137933Y464394D02*
D03*
X139902Y458882D02*
D03*
X135965D02*
D03*
X253913Y415394D02*
D03*
X255882Y409882D02*
D03*
X251945D02*
D03*
X295413Y464394D02*
D03*
X297382Y458882D02*
D03*
X293445D02*
D03*
D104*
X83705Y119055D02*
D03*
X80161D02*
D03*
X241185D02*
D03*
X237642D02*
D03*
X83705Y288347D02*
D03*
X80161D02*
D03*
X241185D02*
D03*
X237642D02*
D03*
X83705Y457638D02*
D03*
X80161D02*
D03*
X241185D02*
D03*
X237642D02*
D03*
D105*
X128622Y147555D02*
D03*
X132559D02*
D03*
X136496D02*
D03*
X286102D02*
D03*
X290039D02*
D03*
X293976D02*
D03*
X128622Y316846D02*
D03*
X132559D02*
D03*
X136496D02*
D03*
X286102D02*
D03*
X290039D02*
D03*
X293976D02*
D03*
X128622Y486138D02*
D03*
X132559D02*
D03*
X136496D02*
D03*
X286102D02*
D03*
X290039D02*
D03*
X293976D02*
D03*
D106*
X140433Y147555D02*
D03*
X297913D02*
D03*
X140433Y316846D02*
D03*
X297913D02*
D03*
X140433Y486138D02*
D03*
X297913D02*
D03*
D107*
X109055Y154528D02*
D03*
X111811D02*
D03*
X114567D02*
D03*
X117323D02*
D03*
X120079D02*
D03*
X122835D02*
D03*
X125591D02*
D03*
X128347D02*
D03*
X131102D02*
D03*
X133858D02*
D03*
X266535D02*
D03*
X269291D02*
D03*
X272047D02*
D03*
X274803D02*
D03*
X277559D02*
D03*
X280315D02*
D03*
X283071D02*
D03*
X285827D02*
D03*
X288583D02*
D03*
X291339D02*
D03*
X109055Y323819D02*
D03*
X111811D02*
D03*
X114567D02*
D03*
X117323D02*
D03*
X120079D02*
D03*
X122835D02*
D03*
X125591D02*
D03*
X128347D02*
D03*
X131102D02*
D03*
X133858D02*
D03*
X266535D02*
D03*
X269291D02*
D03*
X272047D02*
D03*
X274803D02*
D03*
X277559D02*
D03*
X280315D02*
D03*
X283071D02*
D03*
X285827D02*
D03*
X288583D02*
D03*
X291339D02*
D03*
X109055Y493110D02*
D03*
X111811D02*
D03*
X114567D02*
D03*
X117323D02*
D03*
X120079D02*
D03*
X122835D02*
D03*
X125591D02*
D03*
X128347D02*
D03*
X131102D02*
D03*
X133858D02*
D03*
X266535D02*
D03*
X269291D02*
D03*
X272047D02*
D03*
X274803D02*
D03*
X277559D02*
D03*
X280315D02*
D03*
X283071D02*
D03*
X285827D02*
D03*
X288583D02*
D03*
X291339D02*
D03*
D108*
X91536Y64776D02*
D03*
X101378D02*
D03*
X78741D02*
D03*
X249016D02*
D03*
X258859D02*
D03*
X236221D02*
D03*
X91536Y234067D02*
D03*
X101378D02*
D03*
X78741D02*
D03*
X249016D02*
D03*
X258859D02*
D03*
X236221D02*
D03*
X91536Y403359D02*
D03*
X101378D02*
D03*
X78741D02*
D03*
X249016D02*
D03*
X258859D02*
D03*
X236221D02*
D03*
D109*
X95433Y99555D02*
D03*
X58933Y123555D02*
D03*
X153933Y141555D02*
D03*
X39915Y102573D02*
D03*
X39933Y131055D02*
D03*
X59433Y72055D02*
D03*
X40177Y68555D02*
D03*
X98496Y145118D02*
D03*
X87433Y100055D02*
D03*
X86433Y107055D02*
D03*
X43433Y93555D02*
D03*
X133433Y109555D02*
D03*
X81433Y144055D02*
D03*
X52433Y89055D02*
D03*
X50433Y97555D02*
D03*
X91933Y110055D02*
D03*
X80933Y131555D02*
D03*
X124933Y80055D02*
D03*
X118433Y93555D02*
D03*
X131433Y100555D02*
D03*
X54933Y126555D02*
D03*
X39433Y125555D02*
D03*
X45071Y126917D02*
D03*
X91433Y75055D02*
D03*
Y79055D02*
D03*
X103433Y145055D02*
D03*
X74933D02*
D03*
X50933Y131055D02*
D03*
X58433Y106055D02*
D03*
X59433Y88087D02*
D03*
X47933Y101555D02*
D03*
X54433Y110055D02*
D03*
X109980Y134508D02*
D03*
X131433Y133055D02*
D03*
X90433Y93555D02*
D03*
X111209Y74279D02*
D03*
X49933Y64055D02*
D03*
X105433Y136555D02*
D03*
X100433Y135555D02*
D03*
X116933Y146555D02*
D03*
X93433Y145055D02*
D03*
X67059Y144929D02*
D03*
X128622Y138744D02*
D03*
X136496Y138618D02*
D03*
X144433Y147555D02*
D03*
X132559Y141681D02*
D03*
X39933Y83055D02*
D03*
X49433Y73299D02*
D03*
X124433Y92055D02*
D03*
X127433Y96555D02*
D03*
X133433Y114055D02*
D03*
X131933Y118555D02*
D03*
X96433Y81555D02*
D03*
X119433Y69555D02*
D03*
X107433Y81555D02*
D03*
X114933Y89555D02*
D03*
X138528Y114961D02*
D03*
X137933Y129555D02*
D03*
X121433Y140055D02*
D03*
X74933Y128555D02*
D03*
X76933Y114055D02*
D03*
X62433Y115055D02*
D03*
X147433Y68555D02*
D03*
Y78555D02*
D03*
Y100555D02*
D03*
X54933Y97555D02*
D03*
X70189Y127311D02*
D03*
X63933Y126055D02*
D03*
X69433Y104555D02*
D03*
X54465Y134524D02*
D03*
X59933Y138555D02*
D03*
X61933Y147555D02*
D03*
X50933Y141555D02*
D03*
X72244Y173819D02*
D03*
X65551D02*
D03*
Y163583D02*
D03*
X252913Y99555D02*
D03*
X216413Y123555D02*
D03*
X311413Y141555D02*
D03*
X197396Y102573D02*
D03*
X197413Y131055D02*
D03*
X216913Y72055D02*
D03*
X197658Y68555D02*
D03*
X255976Y145118D02*
D03*
X244913Y100055D02*
D03*
X243913Y107055D02*
D03*
X200913Y93555D02*
D03*
X290913Y109555D02*
D03*
X238913Y144055D02*
D03*
X209913Y89055D02*
D03*
X207913Y97555D02*
D03*
X249413Y110055D02*
D03*
X238413Y131555D02*
D03*
X282413Y80055D02*
D03*
X275913Y93555D02*
D03*
X288913Y100555D02*
D03*
X212413Y126555D02*
D03*
X196913Y125555D02*
D03*
X202551Y126917D02*
D03*
X248913Y75055D02*
D03*
Y79055D02*
D03*
X260913Y145055D02*
D03*
X232413D02*
D03*
X208413Y131055D02*
D03*
X215913Y106055D02*
D03*
X216913Y88087D02*
D03*
X205413Y101555D02*
D03*
X211913Y110055D02*
D03*
X267461Y134508D02*
D03*
X288913Y133055D02*
D03*
X247913Y93555D02*
D03*
X268689Y74279D02*
D03*
X207413Y64055D02*
D03*
X262913Y136555D02*
D03*
X257913Y135555D02*
D03*
X274413Y146555D02*
D03*
X250913Y145055D02*
D03*
X224539Y144929D02*
D03*
X286102Y138744D02*
D03*
X293976Y138618D02*
D03*
X301913Y147555D02*
D03*
X290039Y141681D02*
D03*
X197413Y83055D02*
D03*
X206913Y73299D02*
D03*
X281913Y92055D02*
D03*
X284913Y96555D02*
D03*
X290913Y114055D02*
D03*
X289413Y118555D02*
D03*
X253913Y81555D02*
D03*
X276913Y69555D02*
D03*
X264913Y81555D02*
D03*
X272413Y89555D02*
D03*
X296008Y114961D02*
D03*
X295413Y129555D02*
D03*
X278913Y140055D02*
D03*
X232413Y128555D02*
D03*
X234413Y114055D02*
D03*
X219913Y115055D02*
D03*
X304913Y68555D02*
D03*
Y78555D02*
D03*
Y100555D02*
D03*
X212413Y97555D02*
D03*
X227669Y127311D02*
D03*
X221413Y126055D02*
D03*
X226913Y104555D02*
D03*
X211945Y134524D02*
D03*
X217413Y138555D02*
D03*
X219413Y147555D02*
D03*
X208413Y141555D02*
D03*
X229724Y173819D02*
D03*
X223031D02*
D03*
Y163583D02*
D03*
X95433Y268847D02*
D03*
X58933Y292846D02*
D03*
X153933Y310846D02*
D03*
X39915Y271864D02*
D03*
X39933Y300346D02*
D03*
X59433Y241347D02*
D03*
X40177Y237846D02*
D03*
X98496Y314409D02*
D03*
X87433Y269346D02*
D03*
X86433Y276346D02*
D03*
X43433Y262846D02*
D03*
X133433Y278847D02*
D03*
X81433Y313347D02*
D03*
X52433Y258347D02*
D03*
X50433Y266846D02*
D03*
X91933Y279346D02*
D03*
X80933Y300847D02*
D03*
X124933Y249346D02*
D03*
X118433Y262846D02*
D03*
X131433Y269847D02*
D03*
X54933Y295847D02*
D03*
X39433Y294847D02*
D03*
X45071Y296209D02*
D03*
X91433Y244346D02*
D03*
Y248346D02*
D03*
X103433Y314347D02*
D03*
X74933D02*
D03*
X50933Y300346D02*
D03*
X58433Y275346D02*
D03*
X59433Y257378D02*
D03*
X47933Y270847D02*
D03*
X54433Y279346D02*
D03*
X109980Y303799D02*
D03*
X131433Y302346D02*
D03*
X90433Y262846D02*
D03*
X111209Y243571D02*
D03*
X49933Y233347D02*
D03*
X105433Y305847D02*
D03*
X100433Y304847D02*
D03*
X116933Y315846D02*
D03*
X93433Y314347D02*
D03*
X67059Y314220D02*
D03*
X128622Y308035D02*
D03*
X136496Y307909D02*
D03*
X144433Y316846D02*
D03*
X132559Y310972D02*
D03*
X39933Y252346D02*
D03*
X49433Y242590D02*
D03*
X124433Y261347D02*
D03*
X127433Y265846D02*
D03*
X133433Y283347D02*
D03*
X131933Y287846D02*
D03*
X96433Y250847D02*
D03*
X119433Y238846D02*
D03*
X107433Y250847D02*
D03*
X114933Y258846D02*
D03*
X138528Y284252D02*
D03*
X137933Y298847D02*
D03*
X121433Y309347D02*
D03*
X74933Y297847D02*
D03*
X76933Y283347D02*
D03*
X62433Y284347D02*
D03*
X147433Y237846D02*
D03*
Y247847D02*
D03*
Y269847D02*
D03*
X54933Y266846D02*
D03*
X70189Y296602D02*
D03*
X63933Y295346D02*
D03*
X69433Y273847D02*
D03*
X54465Y303815D02*
D03*
X59933Y307846D02*
D03*
X61933Y316846D02*
D03*
X50933Y310846D02*
D03*
X72244Y343110D02*
D03*
X65551D02*
D03*
Y332874D02*
D03*
X252913Y268847D02*
D03*
X216413Y292846D02*
D03*
X311413Y310846D02*
D03*
X197396Y271864D02*
D03*
X197413Y300346D02*
D03*
X216913Y241347D02*
D03*
X197658Y237846D02*
D03*
X255976Y314409D02*
D03*
X244913Y269346D02*
D03*
X243913Y276346D02*
D03*
X200913Y262846D02*
D03*
X290913Y278847D02*
D03*
X238913Y313347D02*
D03*
X209913Y258347D02*
D03*
X207913Y266846D02*
D03*
X249413Y279346D02*
D03*
X238413Y300847D02*
D03*
X282413Y249346D02*
D03*
X275913Y262846D02*
D03*
X288913Y269847D02*
D03*
X212413Y295847D02*
D03*
X196913Y294847D02*
D03*
X202551Y296209D02*
D03*
X248913Y244346D02*
D03*
Y248346D02*
D03*
X260913Y314347D02*
D03*
X232413D02*
D03*
X208413Y300346D02*
D03*
X215913Y275346D02*
D03*
X216913Y257378D02*
D03*
X205413Y270847D02*
D03*
X211913Y279346D02*
D03*
X267461Y303799D02*
D03*
X288913Y302346D02*
D03*
X247913Y262846D02*
D03*
X268689Y243571D02*
D03*
X207413Y233347D02*
D03*
X262913Y305847D02*
D03*
X257913Y304847D02*
D03*
X274413Y315846D02*
D03*
X250913Y314347D02*
D03*
X224539Y314220D02*
D03*
X286102Y308035D02*
D03*
X293976Y307909D02*
D03*
X301913Y316846D02*
D03*
X290039Y310972D02*
D03*
X197413Y252346D02*
D03*
X206913Y242590D02*
D03*
X281913Y261347D02*
D03*
X284913Y265846D02*
D03*
X290913Y283347D02*
D03*
X289413Y287846D02*
D03*
X253913Y250847D02*
D03*
X276913Y238846D02*
D03*
X264913Y250847D02*
D03*
X272413Y258846D02*
D03*
X296008Y284252D02*
D03*
X295413Y298847D02*
D03*
X278913Y309347D02*
D03*
X232413Y297847D02*
D03*
X234413Y283347D02*
D03*
X219913Y284347D02*
D03*
X304913Y237846D02*
D03*
Y247847D02*
D03*
Y269847D02*
D03*
X212413Y266846D02*
D03*
X227669Y296602D02*
D03*
X221413Y295346D02*
D03*
X226913Y273847D02*
D03*
X211945Y303815D02*
D03*
X217413Y307846D02*
D03*
X219413Y316846D02*
D03*
X208413Y310846D02*
D03*
X229724Y343110D02*
D03*
X223031D02*
D03*
Y332874D02*
D03*
X95433Y438138D02*
D03*
X58933Y462138D02*
D03*
X153933Y480138D02*
D03*
X39915Y441155D02*
D03*
X39933Y469638D02*
D03*
X59433Y410638D02*
D03*
X40177Y407138D02*
D03*
X98496Y483701D02*
D03*
X87433Y438638D02*
D03*
X86433Y445638D02*
D03*
X43433Y432138D02*
D03*
X133433Y448138D02*
D03*
X81433Y482638D02*
D03*
X52433Y427638D02*
D03*
X50433Y436138D02*
D03*
X91933Y448638D02*
D03*
X80933Y470138D02*
D03*
X124933Y418638D02*
D03*
X118433Y432138D02*
D03*
X131433Y439138D02*
D03*
X54933Y465138D02*
D03*
X39433Y464138D02*
D03*
X45071Y465500D02*
D03*
X91433Y413638D02*
D03*
Y417638D02*
D03*
X103433Y483638D02*
D03*
X74933D02*
D03*
X50933Y469638D02*
D03*
X58433Y444638D02*
D03*
X59433Y426669D02*
D03*
X47933Y440138D02*
D03*
X54433Y448638D02*
D03*
X109980Y473091D02*
D03*
X131433Y471638D02*
D03*
X90433Y432138D02*
D03*
X111209Y412862D02*
D03*
X49933Y402638D02*
D03*
X105433Y475138D02*
D03*
X100433Y474138D02*
D03*
X116933Y485138D02*
D03*
X93433Y483638D02*
D03*
X67059Y483512D02*
D03*
X128622Y477327D02*
D03*
X136496Y477201D02*
D03*
X144433Y486138D02*
D03*
X132559Y480264D02*
D03*
X39933Y421638D02*
D03*
X49433Y411882D02*
D03*
X124433Y430638D02*
D03*
X127433Y435138D02*
D03*
X133433Y452638D02*
D03*
X131933Y457138D02*
D03*
X96433Y420138D02*
D03*
X119433Y408138D02*
D03*
X107433Y420138D02*
D03*
X114933Y428138D02*
D03*
X138528Y453543D02*
D03*
X137933Y468138D02*
D03*
X121433Y478638D02*
D03*
X74933Y467138D02*
D03*
X76933Y452638D02*
D03*
X62433Y453638D02*
D03*
X147433Y407138D02*
D03*
Y417138D02*
D03*
Y439138D02*
D03*
X54933Y436138D02*
D03*
X70189Y465894D02*
D03*
X63933Y464638D02*
D03*
X69433Y443138D02*
D03*
X54465Y473106D02*
D03*
X59933Y477138D02*
D03*
X61933Y486138D02*
D03*
X50933Y480138D02*
D03*
X72244Y512402D02*
D03*
X65551D02*
D03*
Y502165D02*
D03*
X252913Y438138D02*
D03*
X216413Y462138D02*
D03*
X311413Y480138D02*
D03*
X197396Y441155D02*
D03*
X197413Y469638D02*
D03*
X216913Y410638D02*
D03*
X197658Y407138D02*
D03*
X255976Y483701D02*
D03*
X244913Y438638D02*
D03*
X243913Y445638D02*
D03*
X200913Y432138D02*
D03*
X290913Y448138D02*
D03*
X238913Y482638D02*
D03*
X209913Y427638D02*
D03*
X207913Y436138D02*
D03*
X249413Y448638D02*
D03*
X238413Y470138D02*
D03*
X282413Y418638D02*
D03*
X275913Y432138D02*
D03*
X288913Y439138D02*
D03*
X212413Y465138D02*
D03*
X196913Y464138D02*
D03*
X202551Y465500D02*
D03*
X248913Y413638D02*
D03*
Y417638D02*
D03*
X260913Y483638D02*
D03*
X232413D02*
D03*
X208413Y469638D02*
D03*
X215913Y444638D02*
D03*
X216913Y426669D02*
D03*
X205413Y440138D02*
D03*
X211913Y448638D02*
D03*
X267461Y473091D02*
D03*
X288913Y471638D02*
D03*
X247913Y432138D02*
D03*
X268689Y412862D02*
D03*
X207413Y402638D02*
D03*
X262913Y475138D02*
D03*
X257913Y474138D02*
D03*
X274413Y485138D02*
D03*
X250913Y483638D02*
D03*
X224539Y483512D02*
D03*
X286102Y477327D02*
D03*
X293976Y477201D02*
D03*
X301913Y486138D02*
D03*
X290039Y480264D02*
D03*
X197413Y421638D02*
D03*
X206913Y411882D02*
D03*
X281913Y430638D02*
D03*
X284913Y435138D02*
D03*
X290913Y452638D02*
D03*
X289413Y457138D02*
D03*
X253913Y420138D02*
D03*
X276913Y408138D02*
D03*
X264913Y420138D02*
D03*
X272413Y428138D02*
D03*
X296008Y453543D02*
D03*
X295413Y468138D02*
D03*
X278913Y478638D02*
D03*
X232413Y467138D02*
D03*
X234413Y452638D02*
D03*
X219913Y453638D02*
D03*
X304913Y407138D02*
D03*
Y417138D02*
D03*
Y439138D02*
D03*
X212413Y436138D02*
D03*
X227669Y465894D02*
D03*
X221413Y464638D02*
D03*
X226913Y443138D02*
D03*
X211945Y473106D02*
D03*
X217413Y477138D02*
D03*
X219413Y486138D02*
D03*
X208413Y480138D02*
D03*
X229724Y512402D02*
D03*
X223031D02*
D03*
Y502165D02*
D03*
D110*
X105847Y123642D02*
D03*
X110571D02*
D03*
X115295D02*
D03*
X120020D02*
D03*
X105847Y118917D02*
D03*
X110571D02*
D03*
X115295D02*
D03*
X120020D02*
D03*
X105847Y114193D02*
D03*
X110571D02*
D03*
X115295D02*
D03*
X120020D02*
D03*
X105847Y109468D02*
D03*
X110571D02*
D03*
X115295D02*
D03*
X120020D02*
D03*
X263327Y123642D02*
D03*
X268051D02*
D03*
X272776D02*
D03*
X277500D02*
D03*
X263327Y118917D02*
D03*
X268051D02*
D03*
X272776D02*
D03*
X277500D02*
D03*
X263327Y114193D02*
D03*
X268051D02*
D03*
X272776D02*
D03*
X277500D02*
D03*
X263327Y109468D02*
D03*
X268051D02*
D03*
X272776D02*
D03*
X277500D02*
D03*
X105847Y292933D02*
D03*
X110571D02*
D03*
X115295D02*
D03*
X120020D02*
D03*
X105847Y288209D02*
D03*
X110571D02*
D03*
X115295D02*
D03*
X120020D02*
D03*
X105847Y283484D02*
D03*
X110571D02*
D03*
X115295D02*
D03*
X120020D02*
D03*
X105847Y278760D02*
D03*
X110571D02*
D03*
X115295D02*
D03*
X120020D02*
D03*
X263327Y292933D02*
D03*
X268051D02*
D03*
X272776D02*
D03*
X277500D02*
D03*
X263327Y288209D02*
D03*
X268051D02*
D03*
X272776D02*
D03*
X277500D02*
D03*
X263327Y283484D02*
D03*
X268051D02*
D03*
X272776D02*
D03*
X277500D02*
D03*
X263327Y278760D02*
D03*
X268051D02*
D03*
X272776D02*
D03*
X277500D02*
D03*
X105847Y462224D02*
D03*
X110571D02*
D03*
X115295D02*
D03*
X120020D02*
D03*
X105847Y457500D02*
D03*
X110571D02*
D03*
X115295D02*
D03*
X120020D02*
D03*
X105847Y452776D02*
D03*
X110571D02*
D03*
X115295D02*
D03*
X120020D02*
D03*
X105847Y448051D02*
D03*
X110571D02*
D03*
X115295D02*
D03*
X120020D02*
D03*
X263327Y462224D02*
D03*
X268051D02*
D03*
X272776D02*
D03*
X277500D02*
D03*
X263327Y457500D02*
D03*
X268051D02*
D03*
X272776D02*
D03*
X277500D02*
D03*
X263327Y452776D02*
D03*
X268051D02*
D03*
X272776D02*
D03*
X277500D02*
D03*
X263327Y448051D02*
D03*
X268051D02*
D03*
X272776D02*
D03*
X277500D02*
D03*
M02*
