G04 Layer_Physical_Order=2*
G04 Layer_Color=57008*
%FSLAX25Y25*%
%MOIN*%
G70*
G01*
G75*
%ADD46C,0.00787*%
%ADD47C,0.00984*%
%ADD48C,0.01969*%
%ADD49C,0.02000*%
%ADD52C,0.02756*%
%ADD53C,0.02598*%
%ADD54C,0.03000*%
%ADD55C,0.05000*%
%ADD56C,0.04331*%
G36*
X198565Y490343D02*
X198604Y490338D01*
X198648Y490333D01*
X198757Y490308D01*
X198870Y490274D01*
X198929Y490249D01*
X198993Y490215D01*
X199047Y490180D01*
X199106Y490141D01*
X199155Y490092D01*
X199204Y490037D01*
X199209Y490033D01*
X199214Y490023D01*
X199229Y490008D01*
X199244Y489983D01*
X199263Y489954D01*
X199283Y489919D01*
X199303Y489880D01*
X199327Y489831D01*
X199372Y489728D01*
X199411Y489605D01*
X199440Y489472D01*
X199445Y489398D01*
X199450Y489324D01*
Y489314D01*
Y489285D01*
X199445Y489241D01*
X199440Y489186D01*
X199435Y489117D01*
X199426Y489044D01*
X199406Y488965D01*
X199386Y488886D01*
X199381Y488876D01*
X199376Y488852D01*
X199362Y488807D01*
X199337Y488753D01*
X199312Y488689D01*
X199278Y488616D01*
X199239Y488537D01*
X199194Y488458D01*
X199189Y488448D01*
X199170Y488419D01*
X199140Y488375D01*
X199091Y488311D01*
X199032Y488227D01*
X198958Y488133D01*
X198870Y488025D01*
X198766Y487907D01*
X198761Y487902D01*
X198757Y487892D01*
X198742Y487878D01*
X198722Y487858D01*
X198673Y487804D01*
X198619Y487735D01*
X198555Y487666D01*
X198501Y487597D01*
X198447Y487538D01*
X198427Y487509D01*
X198412Y487489D01*
X198407Y487484D01*
X198402Y487474D01*
X198388Y487455D01*
X198368Y487430D01*
X198333Y487366D01*
X198294Y487297D01*
X199450D01*
Y486638D01*
X197413D01*
Y486643D01*
Y486653D01*
X197418Y486672D01*
X197423Y486702D01*
Y486736D01*
X197433Y486771D01*
X197438Y486815D01*
X197448Y486864D01*
X197472Y486972D01*
X197507Y487090D01*
X197556Y487213D01*
X197610Y487341D01*
Y487346D01*
X197620Y487356D01*
X197630Y487376D01*
X197645Y487405D01*
X197664Y487435D01*
X197689Y487479D01*
X197718Y487523D01*
X197753Y487577D01*
X197797Y487641D01*
X197841Y487705D01*
X197896Y487779D01*
X197955Y487858D01*
X198023Y487942D01*
X198097Y488030D01*
X198176Y488129D01*
X198265Y488227D01*
X198269Y488232D01*
X198279Y488247D01*
X198299Y488266D01*
X198328Y488296D01*
X198358Y488335D01*
X198392Y488375D01*
X198466Y488463D01*
X198550Y488561D01*
X198624Y488660D01*
X198658Y488704D01*
X198693Y488749D01*
X198717Y488788D01*
X198737Y488817D01*
Y488822D01*
X198742Y488827D01*
X198757Y488857D01*
X198781Y488901D01*
X198806Y488960D01*
X198825Y489029D01*
X198850Y489103D01*
X198865Y489186D01*
X198870Y489270D01*
Y489275D01*
Y489280D01*
Y489309D01*
X198865Y489354D01*
X198855Y489408D01*
X198840Y489467D01*
X198820Y489526D01*
X198796Y489585D01*
X198757Y489634D01*
X198752Y489639D01*
X198737Y489654D01*
X198712Y489673D01*
X198683Y489698D01*
X198638Y489723D01*
X198589Y489742D01*
X198535Y489757D01*
X198471Y489762D01*
X198456D01*
X198437Y489757D01*
X198412Y489752D01*
X198383Y489742D01*
X198348Y489733D01*
X198314Y489713D01*
X198274Y489688D01*
X198240Y489659D01*
X198201Y489619D01*
X198166Y489575D01*
X198137Y489521D01*
X198107Y489452D01*
X198082Y489378D01*
X198068Y489290D01*
X198058Y489186D01*
X197482Y489260D01*
Y489265D01*
X197487Y489285D01*
Y489314D01*
X197492Y489354D01*
X197502Y489398D01*
X197512Y489452D01*
X197527Y489511D01*
X197541Y489575D01*
X197581Y489708D01*
X197635Y489846D01*
X197704Y489974D01*
X197748Y490028D01*
X197792Y490082D01*
X197797Y490087D01*
X197802Y490092D01*
X197822Y490106D01*
X197841Y490121D01*
X197866Y490146D01*
X197896Y490165D01*
X197935Y490190D01*
X197979Y490215D01*
X198023Y490239D01*
X198078Y490264D01*
X198196Y490308D01*
X198333Y490338D01*
X198407Y490343D01*
X198486Y490347D01*
X198530D01*
X198565Y490343D01*
D02*
G37*
G36*
X41084D02*
X41124Y490338D01*
X41168Y490333D01*
X41276Y490308D01*
X41389Y490274D01*
X41448Y490249D01*
X41512Y490215D01*
X41567Y490180D01*
X41625Y490141D01*
X41675Y490092D01*
X41724Y490037D01*
X41729Y490033D01*
X41734Y490023D01*
X41749Y490008D01*
X41763Y489983D01*
X41783Y489954D01*
X41803Y489919D01*
X41822Y489880D01*
X41847Y489831D01*
X41891Y489728D01*
X41931Y489605D01*
X41960Y489472D01*
X41965Y489398D01*
X41970Y489324D01*
Y489314D01*
Y489285D01*
X41965Y489241D01*
X41960Y489186D01*
X41955Y489117D01*
X41945Y489044D01*
X41926Y488965D01*
X41906Y488886D01*
X41901Y488876D01*
X41896Y488852D01*
X41881Y488807D01*
X41857Y488753D01*
X41832Y488689D01*
X41798Y488616D01*
X41758Y488537D01*
X41714Y488458D01*
X41709Y488448D01*
X41690Y488419D01*
X41660Y488375D01*
X41611Y488311D01*
X41552Y488227D01*
X41478Y488133D01*
X41389Y488025D01*
X41286Y487907D01*
X41281Y487902D01*
X41276Y487892D01*
X41262Y487878D01*
X41242Y487858D01*
X41193Y487804D01*
X41138Y487735D01*
X41074Y487666D01*
X41020Y487597D01*
X40966Y487538D01*
X40947Y487509D01*
X40932Y487489D01*
X40927Y487484D01*
X40922Y487474D01*
X40907Y487455D01*
X40887Y487430D01*
X40853Y487366D01*
X40814Y487297D01*
X41970D01*
Y486638D01*
X39933D01*
Y486643D01*
Y486653D01*
X39938Y486672D01*
X39943Y486702D01*
Y486736D01*
X39953Y486771D01*
X39958Y486815D01*
X39968Y486864D01*
X39992Y486972D01*
X40027Y487090D01*
X40076Y487213D01*
X40130Y487341D01*
Y487346D01*
X40140Y487356D01*
X40150Y487376D01*
X40164Y487405D01*
X40184Y487435D01*
X40209Y487479D01*
X40238Y487523D01*
X40273Y487577D01*
X40317Y487641D01*
X40361Y487705D01*
X40415Y487779D01*
X40474Y487858D01*
X40543Y487942D01*
X40617Y488030D01*
X40696Y488129D01*
X40784Y488227D01*
X40789Y488232D01*
X40799Y488247D01*
X40819Y488266D01*
X40848Y488296D01*
X40878Y488335D01*
X40912Y488375D01*
X40986Y488463D01*
X41070Y488561D01*
X41143Y488660D01*
X41178Y488704D01*
X41212Y488749D01*
X41237Y488788D01*
X41256Y488817D01*
Y488822D01*
X41262Y488827D01*
X41276Y488857D01*
X41301Y488901D01*
X41325Y488960D01*
X41345Y489029D01*
X41370Y489103D01*
X41385Y489186D01*
X41389Y489270D01*
Y489275D01*
Y489280D01*
Y489309D01*
X41385Y489354D01*
X41375Y489408D01*
X41360Y489467D01*
X41340Y489526D01*
X41316Y489585D01*
X41276Y489634D01*
X41271Y489639D01*
X41256Y489654D01*
X41232Y489673D01*
X41202Y489698D01*
X41158Y489723D01*
X41109Y489742D01*
X41055Y489757D01*
X40991Y489762D01*
X40976D01*
X40956Y489757D01*
X40932Y489752D01*
X40902Y489742D01*
X40868Y489733D01*
X40833Y489713D01*
X40794Y489688D01*
X40760Y489659D01*
X40720Y489619D01*
X40686Y489575D01*
X40656Y489521D01*
X40627Y489452D01*
X40602Y489378D01*
X40587Y489290D01*
X40578Y489186D01*
X40002Y489260D01*
Y489265D01*
X40007Y489285D01*
Y489314D01*
X40012Y489354D01*
X40022Y489398D01*
X40031Y489452D01*
X40046Y489511D01*
X40061Y489575D01*
X40100Y489708D01*
X40154Y489846D01*
X40223Y489974D01*
X40268Y490028D01*
X40312Y490082D01*
X40317Y490087D01*
X40322Y490092D01*
X40341Y490106D01*
X40361Y490121D01*
X40386Y490146D01*
X40415Y490165D01*
X40455Y490190D01*
X40499Y490215D01*
X40543Y490239D01*
X40597Y490264D01*
X40715Y490308D01*
X40853Y490338D01*
X40927Y490343D01*
X41006Y490347D01*
X41050D01*
X41084Y490343D01*
D02*
G37*
G36*
X225053Y489948D02*
X225093Y489521D01*
X222061Y486489D01*
X221519Y486653D01*
X221453Y486983D01*
X220974Y487699D01*
X220258Y488177D01*
X219413Y488346D01*
X218568Y488177D01*
X217852Y487699D01*
X217374Y486983D01*
X217206Y486138D01*
X217374Y485293D01*
X217852Y484577D01*
X218568Y484098D01*
X218898Y484032D01*
X219062Y483490D01*
X217915Y482342D01*
X213913D01*
X213913Y482342D01*
X213453Y482250D01*
X213062Y481989D01*
X207562Y476489D01*
X207301Y476099D01*
X207209Y475638D01*
X207209Y475638D01*
Y471437D01*
X206852Y471199D01*
X206374Y470483D01*
X206206Y469638D01*
X206374Y468793D01*
X206591Y468468D01*
Y452977D01*
X205444Y451830D01*
X205049Y451239D01*
X204910Y450541D01*
X204910Y450541D01*
Y446712D01*
X196125Y437926D01*
X195730Y437335D01*
X195591Y436638D01*
X195591Y436638D01*
Y422983D01*
X195421Y422802D01*
X194921Y423001D01*
Y462391D01*
X195421Y462531D01*
X196069Y462098D01*
X196913Y461930D01*
X197758Y462098D01*
X198475Y462577D01*
X198953Y463293D01*
X199121Y464138D01*
X198953Y464983D01*
X198475Y465699D01*
X197758Y466178D01*
X196913Y466346D01*
X196069Y466178D01*
X195421Y465744D01*
X194921Y465884D01*
Y483131D01*
X207913D01*
X208681Y483284D01*
X209333Y483719D01*
X209768Y484370D01*
X209920Y485138D01*
Y490119D01*
X224016D01*
X224620Y490239D01*
X225053Y489948D01*
D02*
G37*
G36*
X67573D02*
X67613Y489521D01*
X64581Y486489D01*
X64038Y486653D01*
X63973Y486983D01*
X63494Y487699D01*
X62778Y488177D01*
X61933Y488346D01*
X61088Y488177D01*
X60372Y487699D01*
X59893Y486983D01*
X59725Y486138D01*
X59893Y485293D01*
X60372Y484577D01*
X61088Y484098D01*
X61418Y484032D01*
X61582Y483490D01*
X60434Y482342D01*
X56433D01*
X56433Y482342D01*
X55972Y482250D01*
X55581Y481989D01*
X50081Y476489D01*
X49821Y476099D01*
X49729Y475638D01*
X49729Y475638D01*
Y471437D01*
X49372Y471199D01*
X48893Y470483D01*
X48725Y469638D01*
X48893Y468793D01*
X49111Y468468D01*
Y452977D01*
X47963Y451830D01*
X47568Y451239D01*
X47429Y450541D01*
X47430Y450541D01*
Y446712D01*
X38644Y437926D01*
X38249Y437335D01*
X38111Y436638D01*
X38111Y436638D01*
Y422983D01*
X37940Y422802D01*
X37440Y423001D01*
Y462391D01*
X37940Y462531D01*
X38588Y462098D01*
X39433Y461930D01*
X40278Y462098D01*
X40994Y462577D01*
X41473Y463293D01*
X41641Y464138D01*
X41473Y464983D01*
X40994Y465699D01*
X40278Y466178D01*
X39433Y466346D01*
X38588Y466178D01*
X37940Y465744D01*
X37440Y465884D01*
Y483131D01*
X50433D01*
X51201Y483284D01*
X51852Y483719D01*
X52287Y484370D01*
X52440Y485138D01*
Y490119D01*
X66535D01*
X67139Y490239D01*
X67573Y489948D01*
D02*
G37*
G36*
X292772Y484576D02*
Y479000D01*
X292415Y478762D01*
X291937Y478046D01*
X291769Y477201D01*
X291937Y476356D01*
X292195Y475970D01*
X291927Y475470D01*
X290913D01*
X290021Y475292D01*
X289264Y474787D01*
X288176Y473699D01*
X288069Y473677D01*
X287352Y473199D01*
X286874Y472483D01*
X286852Y472375D01*
X284413Y469936D01*
X279610Y474740D01*
X278853Y475245D01*
X277961Y475423D01*
X267461D01*
X266568Y475245D01*
X265811Y474740D01*
X265386Y474103D01*
X264953Y474293D01*
X265020Y474632D01*
X265121Y475138D01*
X264953Y475983D01*
X264475Y476699D01*
X263758Y477177D01*
X262913Y477346D01*
X262069Y477177D01*
X261352Y476699D01*
X260874Y475983D01*
X260706Y475138D01*
X260874Y474293D01*
X261352Y473577D01*
X262069Y473098D01*
X262913Y472930D01*
X263758Y473098D01*
X264475Y473577D01*
X264873Y474172D01*
X265306Y473983D01*
X265239Y473644D01*
X265128Y473091D01*
X265306Y472198D01*
X265811Y471441D01*
X266568Y470936D01*
X267461Y470758D01*
X276995D01*
X282081Y465672D01*
Y448104D01*
X274430Y440452D01*
X273924Y439696D01*
X273746Y438803D01*
Y434470D01*
X236220D01*
Y451444D01*
X236453Y451793D01*
X236621Y452638D01*
X236453Y453483D01*
X235975Y454199D01*
X235258Y454677D01*
X234413Y454846D01*
X233569Y454677D01*
X232852Y454199D01*
X232374Y453483D01*
X232206Y452638D01*
X232374Y451793D01*
X232607Y451444D01*
Y434470D01*
X221720D01*
Y452444D01*
X221953Y452793D01*
X222121Y453638D01*
X221953Y454483D01*
X221475Y455199D01*
X220758Y455678D01*
X219913Y455846D01*
X219069Y455678D01*
X218352Y455199D01*
X217874Y454483D01*
X217706Y453638D01*
X217874Y452793D01*
X218107Y452444D01*
Y434470D01*
X214505D01*
X214237Y434970D01*
X214453Y435293D01*
X214621Y436138D01*
X214453Y436983D01*
X213974Y437699D01*
X213618Y437937D01*
Y441138D01*
X213618Y441138D01*
X213526Y441599D01*
X213265Y441989D01*
X213265Y441989D01*
X210118Y445137D01*
Y446632D01*
X210618Y446899D01*
X211069Y446598D01*
X211913Y446430D01*
X212758Y446598D01*
X213474Y447077D01*
X213953Y447793D01*
X214121Y448638D01*
X213953Y449483D01*
X213474Y450199D01*
X212758Y450677D01*
X212429Y450743D01*
X212264Y451286D01*
X219912Y458934D01*
X225413D01*
X225413Y458934D01*
X225874Y459025D01*
X226265Y459286D01*
X228521Y461542D01*
X228521Y461542D01*
X228782Y461933D01*
X228873Y462394D01*
Y464094D01*
X229230Y464333D01*
X229709Y465049D01*
X229877Y465894D01*
X229709Y466739D01*
X229337Y467295D01*
X229528Y467734D01*
X229932Y467764D01*
X230255Y467387D01*
X230206Y467138D01*
X230374Y466293D01*
X230852Y465577D01*
X231569Y465098D01*
X232413Y464930D01*
X233258Y465098D01*
X233975Y465577D01*
X234453Y466293D01*
X234621Y467138D01*
X234453Y467983D01*
X234236Y468308D01*
Y482468D01*
X234453Y482793D01*
X234529Y483177D01*
X236668Y485315D01*
X238712D01*
X238762Y484815D01*
X238593Y484782D01*
X238069Y484678D01*
X237352Y484199D01*
X236874Y483483D01*
X236706Y482638D01*
X236874Y481793D01*
X237352Y481077D01*
X237609Y480905D01*
Y477638D01*
X237708Y477139D01*
X237991Y476715D01*
X241109Y473597D01*
Y467178D01*
X225991Y452060D01*
X225708Y451637D01*
X225609Y451138D01*
Y444870D01*
X225352Y444699D01*
X224874Y443983D01*
X224706Y443138D01*
X224874Y442293D01*
X225352Y441577D01*
X226068Y441098D01*
X226913Y440930D01*
X227758Y441098D01*
X228474Y441577D01*
X228953Y442293D01*
X229121Y443138D01*
X228953Y443983D01*
X228474Y444699D01*
X228218Y444870D01*
Y450597D01*
X243336Y465715D01*
X243619Y466139D01*
X243718Y466638D01*
Y474138D01*
X243619Y474637D01*
X243336Y475060D01*
X240218Y478178D01*
Y480905D01*
X240475Y481077D01*
X240953Y481793D01*
X241121Y482638D01*
X240953Y483483D01*
X240475Y484199D01*
X239758Y484678D01*
X239234Y484782D01*
X239065Y484815D01*
X239114Y485315D01*
X253850D01*
X254117Y484815D01*
X253937Y484546D01*
X253769Y483701D01*
X253937Y482856D01*
X254415Y482140D01*
X254672Y481968D01*
Y479241D01*
X253491Y478060D01*
X253208Y477637D01*
X253109Y477138D01*
Y448678D01*
X251714Y447283D01*
X251326Y447602D01*
X251453Y447793D01*
X251621Y448638D01*
X251453Y449483D01*
X250974Y450199D01*
X250258Y450677D01*
X249413Y450846D01*
X248569Y450677D01*
X247852Y450199D01*
X247374Y449483D01*
X247206Y448638D01*
X247374Y447793D01*
X247852Y447077D01*
X248569Y446598D01*
X249413Y446430D01*
X250258Y446598D01*
X250449Y446726D01*
X250768Y446337D01*
X245216Y440785D01*
X244913Y440846D01*
X244069Y440677D01*
X243352Y440199D01*
X242874Y439483D01*
X242706Y438638D01*
X242874Y437793D01*
X243352Y437077D01*
X244069Y436598D01*
X244913Y436430D01*
X245758Y436598D01*
X246475Y437077D01*
X246953Y437793D01*
X247121Y438638D01*
X247061Y438940D01*
X255336Y447215D01*
X255619Y447639D01*
X255718Y448138D01*
Y472626D01*
X256218Y472778D01*
X256352Y472577D01*
X257068Y472098D01*
X257913Y471930D01*
X258758Y472098D01*
X259474Y472577D01*
X259953Y473293D01*
X260121Y474138D01*
X259953Y474983D01*
X259474Y475699D01*
X258758Y476178D01*
X257913Y476346D01*
X257068Y476178D01*
X256352Y475699D01*
X256218Y475498D01*
X255718Y475650D01*
Y476597D01*
X256899Y477778D01*
X257182Y478201D01*
X257281Y478701D01*
Y481968D01*
X257538Y482140D01*
X258016Y482856D01*
X258184Y483701D01*
X258016Y484546D01*
X257836Y484815D01*
X258103Y485315D01*
X258659D01*
X259091Y484883D01*
Y484808D01*
X258874Y484483D01*
X258706Y483638D01*
X258874Y482793D01*
X259352Y482077D01*
X260068Y481598D01*
X260913Y481430D01*
X261758Y481598D01*
X262474Y482077D01*
X262953Y482793D01*
X263121Y483638D01*
X262953Y484483D01*
X262736Y484808D01*
Y485638D01*
X262736Y485638D01*
X262597Y486335D01*
X262202Y486927D01*
X261069Y488060D01*
X261276Y488560D01*
X288789D01*
X292772Y484576D01*
D02*
G37*
G36*
X135292D02*
Y479000D01*
X134935Y478762D01*
X134456Y478046D01*
X134288Y477201D01*
X134456Y476356D01*
X134714Y475970D01*
X134447Y475470D01*
X133433D01*
X132541Y475292D01*
X131784Y474787D01*
X130696Y473699D01*
X130588Y473677D01*
X129872Y473199D01*
X129393Y472483D01*
X129372Y472375D01*
X126933Y469936D01*
X122129Y474740D01*
X121373Y475245D01*
X120480Y475423D01*
X109980D01*
X109088Y475245D01*
X108331Y474740D01*
X107906Y474103D01*
X107473Y474293D01*
X107540Y474632D01*
X107641Y475138D01*
X107473Y475983D01*
X106994Y476699D01*
X106278Y477177D01*
X105433Y477346D01*
X104588Y477177D01*
X103872Y476699D01*
X103393Y475983D01*
X103225Y475138D01*
X103393Y474293D01*
X103872Y473577D01*
X104588Y473098D01*
X105433Y472930D01*
X106278Y473098D01*
X106994Y473577D01*
X107392Y474172D01*
X107826Y473983D01*
X107758Y473644D01*
X107648Y473091D01*
X107826Y472198D01*
X108331Y471441D01*
X109088Y470936D01*
X109980Y470758D01*
X119514D01*
X124601Y465672D01*
Y448104D01*
X116949Y440452D01*
X116444Y439696D01*
X116266Y438803D01*
Y434470D01*
X78739D01*
Y451444D01*
X78973Y451793D01*
X79141Y452638D01*
X78973Y453483D01*
X78494Y454199D01*
X77778Y454677D01*
X76933Y454846D01*
X76088Y454677D01*
X75372Y454199D01*
X74893Y453483D01*
X74725Y452638D01*
X74893Y451793D01*
X75127Y451444D01*
Y434470D01*
X64239D01*
Y452444D01*
X64473Y452793D01*
X64641Y453638D01*
X64473Y454483D01*
X63994Y455199D01*
X63278Y455678D01*
X62433Y455846D01*
X61588Y455678D01*
X60872Y455199D01*
X60393Y454483D01*
X60225Y453638D01*
X60393Y452793D01*
X60627Y452444D01*
Y434470D01*
X57024D01*
X56757Y434970D01*
X56973Y435293D01*
X57141Y436138D01*
X56973Y436983D01*
X56494Y437699D01*
X56137Y437937D01*
Y441138D01*
X56137Y441138D01*
X56046Y441599D01*
X55785Y441989D01*
X55785Y441989D01*
X52637Y445137D01*
Y446632D01*
X53137Y446899D01*
X53588Y446598D01*
X54433Y446430D01*
X55278Y446598D01*
X55994Y447077D01*
X56473Y447793D01*
X56641Y448638D01*
X56473Y449483D01*
X55994Y450199D01*
X55278Y450677D01*
X54949Y450743D01*
X54784Y451286D01*
X62432Y458934D01*
X67933D01*
X67933Y458934D01*
X68394Y459025D01*
X68785Y459286D01*
X71040Y461542D01*
X71040Y461542D01*
X71302Y461933D01*
X71393Y462394D01*
Y464094D01*
X71750Y464333D01*
X72229Y465049D01*
X72397Y465894D01*
X72229Y466739D01*
X71857Y467295D01*
X72048Y467734D01*
X72452Y467764D01*
X72775Y467387D01*
X72725Y467138D01*
X72893Y466293D01*
X73372Y465577D01*
X74088Y465098D01*
X74933Y464930D01*
X75778Y465098D01*
X76494Y465577D01*
X76973Y466293D01*
X77141Y467138D01*
X76973Y467983D01*
X76755Y468308D01*
Y482468D01*
X76973Y482793D01*
X77049Y483177D01*
X79188Y485315D01*
X81232D01*
X81281Y484815D01*
X81112Y484782D01*
X80588Y484678D01*
X79872Y484199D01*
X79393Y483483D01*
X79225Y482638D01*
X79393Y481793D01*
X79872Y481077D01*
X80129Y480905D01*
Y477638D01*
X80228Y477139D01*
X80511Y476715D01*
X83628Y473597D01*
Y467178D01*
X68511Y452060D01*
X68228Y451637D01*
X68129Y451138D01*
Y444870D01*
X67872Y444699D01*
X67393Y443983D01*
X67225Y443138D01*
X67393Y442293D01*
X67872Y441577D01*
X68588Y441098D01*
X69433Y440930D01*
X70278Y441098D01*
X70994Y441577D01*
X71473Y442293D01*
X71641Y443138D01*
X71473Y443983D01*
X70994Y444699D01*
X70738Y444870D01*
Y450597D01*
X85856Y465715D01*
X86138Y466139D01*
X86238Y466638D01*
Y474138D01*
X86138Y474637D01*
X85856Y475060D01*
X82738Y478178D01*
Y480905D01*
X82994Y481077D01*
X83473Y481793D01*
X83641Y482638D01*
X83473Y483483D01*
X82994Y484199D01*
X82278Y484678D01*
X81754Y484782D01*
X81585Y484815D01*
X81634Y485315D01*
X96369D01*
X96637Y484815D01*
X96456Y484546D01*
X96288Y483701D01*
X96456Y482856D01*
X96935Y482140D01*
X97192Y481968D01*
Y479241D01*
X96011Y478060D01*
X95728Y477637D01*
X95628Y477138D01*
Y448678D01*
X94234Y447283D01*
X93845Y447602D01*
X93973Y447793D01*
X94141Y448638D01*
X93973Y449483D01*
X93494Y450199D01*
X92778Y450677D01*
X91933Y450846D01*
X91088Y450677D01*
X90372Y450199D01*
X89893Y449483D01*
X89725Y448638D01*
X89893Y447793D01*
X90372Y447077D01*
X91088Y446598D01*
X91933Y446430D01*
X92778Y446598D01*
X92969Y446726D01*
X93287Y446337D01*
X87736Y440785D01*
X87433Y440846D01*
X86588Y440677D01*
X85872Y440199D01*
X85393Y439483D01*
X85225Y438638D01*
X85393Y437793D01*
X85872Y437077D01*
X86588Y436598D01*
X87433Y436430D01*
X88278Y436598D01*
X88994Y437077D01*
X89473Y437793D01*
X89641Y438638D01*
X89581Y438940D01*
X97856Y447215D01*
X98138Y447639D01*
X98238Y448138D01*
Y472626D01*
X98738Y472778D01*
X98872Y472577D01*
X99588Y472098D01*
X100433Y471930D01*
X101278Y472098D01*
X101994Y472577D01*
X102473Y473293D01*
X102641Y474138D01*
X102473Y474983D01*
X101994Y475699D01*
X101278Y476178D01*
X100433Y476346D01*
X99588Y476178D01*
X98872Y475699D01*
X98738Y475498D01*
X98238Y475650D01*
Y476597D01*
X99418Y477778D01*
X99701Y478201D01*
X99801Y478701D01*
Y481968D01*
X100057Y482140D01*
X100536Y482856D01*
X100704Y483701D01*
X100536Y484546D01*
X100356Y484815D01*
X100623Y485315D01*
X101178D01*
X101611Y484883D01*
Y484808D01*
X101393Y484483D01*
X101225Y483638D01*
X101393Y482793D01*
X101872Y482077D01*
X102588Y481598D01*
X103433Y481430D01*
X104278Y481598D01*
X104994Y482077D01*
X105473Y482793D01*
X105641Y483638D01*
X105473Y484483D01*
X105255Y484808D01*
Y485638D01*
X105255Y485638D01*
X105117Y486335D01*
X104722Y486927D01*
X103589Y488060D01*
X103796Y488560D01*
X131308D01*
X135292Y484576D01*
D02*
G37*
G36*
X228740Y490119D02*
X230538D01*
X230730Y489657D01*
X227562Y486489D01*
X227301Y486099D01*
X227209Y485638D01*
X227209Y485638D01*
Y477637D01*
X223883Y474310D01*
X213744D01*
X213506Y474667D01*
X212790Y475146D01*
X211945Y475314D01*
X211100Y475146D01*
X210384Y474667D01*
X210118Y474269D01*
X209618Y474421D01*
Y475139D01*
X214412Y479934D01*
X218413D01*
X218413Y479934D01*
X218874Y480025D01*
X219265Y480286D01*
X227229Y488251D01*
X227229Y488251D01*
X227490Y488642D01*
X227582Y489102D01*
Y489977D01*
X228082Y490250D01*
X228740Y490119D01*
D02*
G37*
G36*
X71260D02*
X73058D01*
X73249Y489657D01*
X70082Y486489D01*
X69820Y486099D01*
X69729Y485638D01*
X69729Y485638D01*
Y477637D01*
X66403Y474310D01*
X56264D01*
X56026Y474667D01*
X55309Y475146D01*
X54465Y475314D01*
X53620Y475146D01*
X52903Y474667D01*
X52637Y474269D01*
X52137Y474421D01*
Y475139D01*
X56932Y479934D01*
X60933D01*
X60933Y479934D01*
X61394Y480025D01*
X61785Y480286D01*
X69749Y488251D01*
X69749Y488251D01*
X70010Y488642D01*
X70102Y489102D01*
Y489977D01*
X70602Y490250D01*
X71260Y490119D01*
D02*
G37*
G36*
X226015Y467315D02*
X225630Y466739D01*
X225462Y465894D01*
X225630Y465049D01*
X226108Y464333D01*
X226465Y464094D01*
Y462892D01*
X224915Y461342D01*
X219413D01*
X218952Y461250D01*
X218562Y460989D01*
X218562Y460989D01*
X210698Y453125D01*
X210236Y453317D01*
Y463599D01*
X210736Y463751D01*
X210852Y463577D01*
X211568Y463098D01*
X212413Y462930D01*
X213258Y463098D01*
X213974Y463577D01*
X214453Y464293D01*
X214621Y465138D01*
X214453Y465983D01*
X213974Y466699D01*
X213258Y467177D01*
X212565Y467315D01*
X212614Y467815D01*
X225816D01*
X226015Y467315D01*
D02*
G37*
G36*
X68535D02*
X68149Y466739D01*
X67981Y465894D01*
X68149Y465049D01*
X68628Y464333D01*
X68985Y464094D01*
Y462892D01*
X67434Y461342D01*
X61933D01*
X61472Y461250D01*
X61081Y460989D01*
X61081Y460989D01*
X53217Y453125D01*
X52755Y453317D01*
Y463599D01*
X53255Y463751D01*
X53372Y463577D01*
X54088Y463098D01*
X54933Y462930D01*
X55778Y463098D01*
X56494Y463577D01*
X56973Y464293D01*
X57141Y465138D01*
X56973Y465983D01*
X56494Y466699D01*
X55778Y467177D01*
X55085Y467315D01*
X55134Y467815D01*
X68336D01*
X68535Y467315D01*
D02*
G37*
G36*
X287374Y456293D02*
X287852Y455577D01*
X288568Y455098D01*
X289413Y454930D01*
X289603Y454968D01*
X289798Y454497D01*
X289352Y454199D01*
X288874Y453483D01*
X288706Y452638D01*
X288874Y451793D01*
X289352Y451077D01*
X289967Y450666D01*
X290010Y450458D01*
Y450317D01*
X289967Y450110D01*
X289352Y449699D01*
X288874Y448983D01*
X288706Y448138D01*
X288874Y447293D01*
X289352Y446577D01*
X290069Y446098D01*
X290913Y445930D01*
X291758Y446098D01*
X292192Y446388D01*
X292692Y446121D01*
Y413606D01*
X285761Y406674D01*
X260232D01*
X255751Y411156D01*
X255064Y411683D01*
X254264Y412014D01*
X253406Y412127D01*
X251039D01*
X250803Y412568D01*
X250953Y412793D01*
X251121Y413638D01*
X250953Y414483D01*
X250475Y415199D01*
X250192Y415388D01*
Y415888D01*
X250475Y416077D01*
X250953Y416793D01*
X251121Y417638D01*
X250953Y418483D01*
X250475Y419199D01*
X249758Y419677D01*
X248913Y419846D01*
X248068Y419677D01*
X247352Y419199D01*
X246874Y418483D01*
X246706Y417638D01*
X246874Y416793D01*
X247352Y416077D01*
X247635Y415888D01*
Y415388D01*
X247352Y415199D01*
X246874Y414483D01*
X246706Y413638D01*
X246874Y412793D01*
X247024Y412568D01*
X246788Y412127D01*
X226087D01*
X225229Y412014D01*
X224429Y411683D01*
X223742Y411156D01*
X218540Y405954D01*
X207413D01*
X206555Y405841D01*
X205755Y405509D01*
X205069Y404982D01*
X204542Y404296D01*
X204211Y403496D01*
X204098Y402638D01*
X204211Y401780D01*
X204542Y400980D01*
X205069Y400293D01*
X205262Y400145D01*
X205092Y399645D01*
X194921D01*
Y420640D01*
X195134Y420712D01*
X195421Y420723D01*
X195852Y420077D01*
X196569Y419598D01*
X197413Y419430D01*
X198258Y419598D01*
X198975Y420077D01*
X199453Y420793D01*
X199621Y421638D01*
X199453Y422483D01*
X199236Y422808D01*
Y429906D01*
X199736Y430174D01*
X200021Y429983D01*
X200913Y429806D01*
X208360D01*
X208512Y429306D01*
X208352Y429199D01*
X207874Y428483D01*
X207706Y427638D01*
X207874Y426793D01*
X208352Y426077D01*
X209068Y425598D01*
X209913Y425430D01*
X210758Y425598D01*
X211474Y426077D01*
X211953Y426793D01*
X212121Y427638D01*
X211953Y428483D01*
X211474Y429199D01*
X211315Y429306D01*
X211467Y429806D01*
X270322D01*
X270589Y429306D01*
X270374Y428983D01*
X270206Y428138D01*
X270374Y427293D01*
X270852Y426577D01*
X271568Y426098D01*
X272413Y425930D01*
X273247Y426096D01*
X273337Y426112D01*
X273746Y425825D01*
Y415769D01*
X273172Y415194D01*
X268689D01*
X267796Y415017D01*
X267040Y414511D01*
X266534Y413755D01*
X266357Y412862D01*
X266534Y411970D01*
X267040Y411213D01*
X267796Y410708D01*
X268689Y410530D01*
X274138D01*
X275030Y410708D01*
X275787Y411213D01*
X277728Y413154D01*
X278233Y413911D01*
X278411Y414803D01*
Y437837D01*
X286063Y445489D01*
X286568Y446245D01*
X286746Y447138D01*
Y456888D01*
X287246Y456937D01*
X287374Y456293D01*
D02*
G37*
G36*
X129893D02*
X130372Y455577D01*
X131088Y455098D01*
X131933Y454930D01*
X132123Y454968D01*
X132318Y454497D01*
X131872Y454199D01*
X131393Y453483D01*
X131225Y452638D01*
X131393Y451793D01*
X131872Y451077D01*
X132487Y450666D01*
X132530Y450458D01*
Y450317D01*
X132487Y450110D01*
X131872Y449699D01*
X131393Y448983D01*
X131225Y448138D01*
X131393Y447293D01*
X131872Y446577D01*
X132588Y446098D01*
X133433Y445930D01*
X134278Y446098D01*
X134712Y446388D01*
X135212Y446121D01*
Y413606D01*
X128280Y406674D01*
X102752D01*
X98270Y411156D01*
X97584Y411683D01*
X96784Y412014D01*
X95926Y412127D01*
X93558D01*
X93322Y412568D01*
X93473Y412793D01*
X93641Y413638D01*
X93473Y414483D01*
X92994Y415199D01*
X92712Y415388D01*
Y415888D01*
X92994Y416077D01*
X93473Y416793D01*
X93641Y417638D01*
X93473Y418483D01*
X92994Y419199D01*
X92278Y419677D01*
X91433Y419846D01*
X90588Y419677D01*
X89872Y419199D01*
X89393Y418483D01*
X89225Y417638D01*
X89393Y416793D01*
X89872Y416077D01*
X90155Y415888D01*
Y415388D01*
X89872Y415199D01*
X89393Y414483D01*
X89225Y413638D01*
X89393Y412793D01*
X89544Y412568D01*
X89308Y412127D01*
X68607D01*
X67748Y412014D01*
X66949Y411683D01*
X66262Y411156D01*
X61060Y405954D01*
X49933D01*
X49075Y405841D01*
X48275Y405509D01*
X47589Y404982D01*
X47061Y404296D01*
X46730Y403496D01*
X46617Y402638D01*
X46730Y401780D01*
X47061Y400980D01*
X47589Y400293D01*
X47782Y400145D01*
X47612Y399645D01*
X37440D01*
Y420640D01*
X37653Y420712D01*
X37940Y420723D01*
X38372Y420077D01*
X39088Y419598D01*
X39933Y419430D01*
X40778Y419598D01*
X41494Y420077D01*
X41973Y420793D01*
X42141Y421638D01*
X41973Y422483D01*
X41756Y422808D01*
Y429906D01*
X42255Y430174D01*
X42541Y429983D01*
X43433Y429806D01*
X50880D01*
X51032Y429306D01*
X50872Y429199D01*
X50393Y428483D01*
X50225Y427638D01*
X50393Y426793D01*
X50872Y426077D01*
X51588Y425598D01*
X52433Y425430D01*
X53278Y425598D01*
X53994Y426077D01*
X54473Y426793D01*
X54641Y427638D01*
X54473Y428483D01*
X53994Y429199D01*
X53835Y429306D01*
X53986Y429806D01*
X112842D01*
X113109Y429306D01*
X112893Y428983D01*
X112725Y428138D01*
X112893Y427293D01*
X113372Y426577D01*
X114088Y426098D01*
X114933Y425930D01*
X115766Y426096D01*
X115857Y426112D01*
X116266Y425825D01*
Y415769D01*
X115691Y415194D01*
X111209D01*
X110316Y415017D01*
X109560Y414511D01*
X109054Y413755D01*
X108876Y412862D01*
X109054Y411970D01*
X109560Y411213D01*
X110316Y410708D01*
X111209Y410530D01*
X116657D01*
X117550Y410708D01*
X118307Y411213D01*
X120248Y413154D01*
X120753Y413911D01*
X120931Y414803D01*
Y437837D01*
X128582Y445489D01*
X129088Y446245D01*
X129265Y447138D01*
Y456888D01*
X129765Y456937D01*
X129893Y456293D01*
D02*
G37*
G36*
X246550Y404995D02*
X246437Y404848D01*
X246140Y404129D01*
X246038Y403359D01*
X246140Y402588D01*
X246437Y401869D01*
X246910Y401253D01*
X247527Y400779D01*
X248245Y400482D01*
X249016Y400380D01*
X249787Y400482D01*
X250505Y400779D01*
X251122Y401253D01*
X251595Y401869D01*
X251893Y402588D01*
X251994Y403359D01*
X251893Y404129D01*
X251614Y404802D01*
X251691Y405011D01*
X251864Y405308D01*
X252182Y405346D01*
X256514Y401014D01*
X257201Y400487D01*
X258001Y400156D01*
X258083Y400145D01*
X258050Y399645D01*
X222234D01*
X222065Y400145D01*
X222258Y400293D01*
X227460Y405496D01*
X233306D01*
X233527Y405047D01*
X233456Y404955D01*
X233137Y404185D01*
X233094Y403859D01*
X236221D01*
X239348D01*
X239305Y404185D01*
X238986Y404955D01*
X238915Y405047D01*
X239136Y405496D01*
X246304D01*
X246550Y404995D01*
D02*
G37*
G36*
X89070D02*
X88957Y404848D01*
X88659Y404129D01*
X88558Y403359D01*
X88659Y402588D01*
X88957Y401869D01*
X89430Y401253D01*
X90047Y400779D01*
X90765Y400482D01*
X91536Y400380D01*
X92307Y400482D01*
X93025Y400779D01*
X93642Y401253D01*
X94115Y401869D01*
X94413Y402588D01*
X94514Y403359D01*
X94413Y404129D01*
X94134Y404802D01*
X94210Y405011D01*
X94384Y405308D01*
X94701Y405346D01*
X99034Y401014D01*
X99721Y400487D01*
X100520Y400156D01*
X100602Y400145D01*
X100570Y399645D01*
X64754D01*
X64584Y400145D01*
X64778Y400293D01*
X69980Y405496D01*
X75825D01*
X76047Y405047D01*
X75976Y404955D01*
X75657Y404185D01*
X75614Y403859D01*
X78741D01*
X81867D01*
X81824Y404185D01*
X81506Y404955D01*
X81435Y405047D01*
X81656Y405496D01*
X88824D01*
X89070Y404995D01*
D02*
G37*
G36*
X312953Y474409D02*
X313106Y473641D01*
X313541Y472990D01*
X314193Y472555D01*
X314961Y472402D01*
X320040D01*
Y444920D01*
X314961D01*
X314193Y444768D01*
X313541Y444333D01*
X313106Y443681D01*
X312953Y442913D01*
Y399645D01*
X287943D01*
X287910Y400145D01*
X287992Y400156D01*
X288792Y400487D01*
X289479Y401014D01*
X298353Y409888D01*
X298879Y410574D01*
X299211Y411374D01*
X299324Y412232D01*
Y453543D01*
X299211Y454401D01*
X298879Y455201D01*
X298353Y455888D01*
X297666Y456415D01*
X296866Y456746D01*
X296008Y456859D01*
X295150Y456746D01*
X294350Y456415D01*
X293663Y455888D01*
X293136Y455201D01*
X292848Y454505D01*
X292807Y454471D01*
X292521Y454358D01*
X292290Y454322D01*
X291758Y454677D01*
X290913Y454846D01*
X290724Y454808D01*
X290529Y455279D01*
X290974Y455577D01*
X291453Y456293D01*
X291621Y457138D01*
X291453Y457983D01*
X290974Y458699D01*
X290258Y459177D01*
X289413Y459346D01*
X288568Y459177D01*
X287852Y458699D01*
X287374Y457983D01*
X287246Y457339D01*
X286746Y457388D01*
Y465672D01*
X291879Y470806D01*
X298413D01*
X299306Y470983D01*
X300062Y471489D01*
X303562Y474989D01*
X304068Y475745D01*
X304246Y476638D01*
Y486138D01*
X304068Y487030D01*
X303562Y487787D01*
X302806Y488293D01*
X301913Y488470D01*
X301021Y488293D01*
X300264Y487787D01*
X299759Y487030D01*
X299581Y486138D01*
Y477604D01*
X297447Y475470D01*
X296025D01*
X295758Y475970D01*
X296016Y476356D01*
X296184Y477201D01*
X296016Y478046D01*
X295537Y478762D01*
X295181Y479000D01*
Y485075D01*
X295181Y485075D01*
X295089Y485536D01*
X294828Y485926D01*
X291097Y489657D01*
X291289Y490119D01*
X312953D01*
Y474409D01*
D02*
G37*
G36*
X155473D02*
X155626Y473641D01*
X156061Y472990D01*
X156712Y472555D01*
X157480Y472402D01*
X162560D01*
Y444920D01*
X157480D01*
X156712Y444768D01*
X156061Y444333D01*
X155626Y443681D01*
X155473Y442913D01*
Y399645D01*
X130463D01*
X130430Y400145D01*
X130512Y400156D01*
X131312Y400487D01*
X131998Y401014D01*
X140872Y409888D01*
X141399Y410574D01*
X141730Y411374D01*
X141843Y412232D01*
Y453543D01*
X141730Y454401D01*
X141399Y455201D01*
X140872Y455888D01*
X140185Y456415D01*
X139386Y456746D01*
X138528Y456859D01*
X137669Y456746D01*
X136870Y456415D01*
X136183Y455888D01*
X135656Y455201D01*
X135368Y454505D01*
X135327Y454471D01*
X135041Y454358D01*
X134810Y454322D01*
X134278Y454677D01*
X133433Y454846D01*
X133244Y454808D01*
X133048Y455279D01*
X133494Y455577D01*
X133973Y456293D01*
X134141Y457138D01*
X133973Y457983D01*
X133494Y458699D01*
X132778Y459177D01*
X131933Y459346D01*
X131088Y459177D01*
X130372Y458699D01*
X129893Y457983D01*
X129765Y457339D01*
X129265Y457388D01*
Y465672D01*
X134399Y470806D01*
X140933D01*
X141826Y470983D01*
X142582Y471489D01*
X146082Y474989D01*
X146588Y475745D01*
X146765Y476638D01*
Y486138D01*
X146588Y487030D01*
X146082Y487787D01*
X145326Y488293D01*
X144433Y488470D01*
X143541Y488293D01*
X142784Y487787D01*
X142278Y487030D01*
X142101Y486138D01*
Y477604D01*
X139967Y475470D01*
X138545D01*
X138278Y475970D01*
X138536Y476356D01*
X138704Y477201D01*
X138536Y478046D01*
X138057Y478762D01*
X137700Y479000D01*
Y485075D01*
X137700Y485075D01*
X137609Y485536D01*
X137348Y485926D01*
X133617Y489657D01*
X133808Y490119D01*
X155473D01*
Y474409D01*
D02*
G37*
G36*
X198565Y321051D02*
X198604Y321046D01*
X198648Y321041D01*
X198757Y321017D01*
X198870Y320982D01*
X198929Y320958D01*
X198993Y320923D01*
X199047Y320889D01*
X199106Y320849D01*
X199155Y320800D01*
X199204Y320746D01*
X199209Y320741D01*
X199214Y320731D01*
X199229Y320717D01*
X199244Y320692D01*
X199263Y320662D01*
X199283Y320628D01*
X199303Y320589D01*
X199327Y320539D01*
X199372Y320436D01*
X199411Y320313D01*
X199440Y320180D01*
X199445Y320107D01*
X199450Y320033D01*
Y320023D01*
Y319993D01*
X199445Y319949D01*
X199440Y319895D01*
X199435Y319826D01*
X199426Y319752D01*
X199406Y319674D01*
X199386Y319595D01*
X199381Y319585D01*
X199376Y319561D01*
X199362Y319516D01*
X199337Y319462D01*
X199312Y319398D01*
X199278Y319324D01*
X199239Y319246D01*
X199194Y319167D01*
X199189Y319157D01*
X199170Y319127D01*
X199140Y319083D01*
X199091Y319019D01*
X199032Y318936D01*
X198958Y318842D01*
X198870Y318734D01*
X198766Y318616D01*
X198761Y318611D01*
X198757Y318601D01*
X198742Y318586D01*
X198722Y318567D01*
X198673Y318513D01*
X198619Y318444D01*
X198555Y318375D01*
X198501Y318306D01*
X198447Y318247D01*
X198427Y318217D01*
X198412Y318198D01*
X198407Y318193D01*
X198402Y318183D01*
X198388Y318163D01*
X198368Y318139D01*
X198333Y318075D01*
X198294Y318006D01*
X199450D01*
Y317347D01*
X197413D01*
Y317351D01*
Y317361D01*
X197418Y317381D01*
X197423Y317410D01*
Y317445D01*
X197433Y317479D01*
X197438Y317524D01*
X197448Y317573D01*
X197472Y317681D01*
X197507Y317799D01*
X197556Y317922D01*
X197610Y318050D01*
Y318055D01*
X197620Y318065D01*
X197630Y318085D01*
X197645Y318114D01*
X197664Y318144D01*
X197689Y318188D01*
X197718Y318232D01*
X197753Y318286D01*
X197797Y318350D01*
X197841Y318414D01*
X197896Y318488D01*
X197955Y318567D01*
X198023Y318650D01*
X198097Y318739D01*
X198176Y318837D01*
X198265Y318936D01*
X198269Y318940D01*
X198279Y318955D01*
X198299Y318975D01*
X198328Y319005D01*
X198358Y319044D01*
X198392Y319083D01*
X198466Y319172D01*
X198550Y319270D01*
X198624Y319369D01*
X198658Y319413D01*
X198693Y319457D01*
X198717Y319496D01*
X198737Y319526D01*
Y319531D01*
X198742Y319536D01*
X198757Y319565D01*
X198781Y319610D01*
X198806Y319669D01*
X198825Y319738D01*
X198850Y319811D01*
X198865Y319895D01*
X198870Y319979D01*
Y319984D01*
Y319988D01*
Y320018D01*
X198865Y320062D01*
X198855Y320116D01*
X198840Y320176D01*
X198820Y320234D01*
X198796Y320293D01*
X198757Y320343D01*
X198752Y320348D01*
X198737Y320362D01*
X198712Y320382D01*
X198683Y320407D01*
X198638Y320431D01*
X198589Y320451D01*
X198535Y320466D01*
X198471Y320471D01*
X198456D01*
X198437Y320466D01*
X198412Y320461D01*
X198383Y320451D01*
X198348Y320441D01*
X198314Y320422D01*
X198274Y320397D01*
X198240Y320367D01*
X198201Y320328D01*
X198166Y320284D01*
X198137Y320230D01*
X198107Y320161D01*
X198082Y320087D01*
X198068Y319998D01*
X198058Y319895D01*
X197482Y319969D01*
Y319974D01*
X197487Y319993D01*
Y320023D01*
X197492Y320062D01*
X197502Y320107D01*
X197512Y320161D01*
X197527Y320220D01*
X197541Y320284D01*
X197581Y320416D01*
X197635Y320554D01*
X197704Y320682D01*
X197748Y320736D01*
X197792Y320791D01*
X197797Y320795D01*
X197802Y320800D01*
X197822Y320815D01*
X197841Y320830D01*
X197866Y320854D01*
X197896Y320874D01*
X197935Y320899D01*
X197979Y320923D01*
X198023Y320948D01*
X198078Y320972D01*
X198196Y321017D01*
X198333Y321046D01*
X198407Y321051D01*
X198486Y321056D01*
X198530D01*
X198565Y321051D01*
D02*
G37*
G36*
X41084D02*
X41124Y321046D01*
X41168Y321041D01*
X41276Y321017D01*
X41389Y320982D01*
X41448Y320958D01*
X41512Y320923D01*
X41567Y320889D01*
X41625Y320849D01*
X41675Y320800D01*
X41724Y320746D01*
X41729Y320741D01*
X41734Y320731D01*
X41749Y320717D01*
X41763Y320692D01*
X41783Y320662D01*
X41803Y320628D01*
X41822Y320589D01*
X41847Y320539D01*
X41891Y320436D01*
X41931Y320313D01*
X41960Y320180D01*
X41965Y320107D01*
X41970Y320033D01*
Y320023D01*
Y319993D01*
X41965Y319949D01*
X41960Y319895D01*
X41955Y319826D01*
X41945Y319752D01*
X41926Y319674D01*
X41906Y319595D01*
X41901Y319585D01*
X41896Y319561D01*
X41881Y319516D01*
X41857Y319462D01*
X41832Y319398D01*
X41798Y319324D01*
X41758Y319246D01*
X41714Y319167D01*
X41709Y319157D01*
X41690Y319127D01*
X41660Y319083D01*
X41611Y319019D01*
X41552Y318936D01*
X41478Y318842D01*
X41389Y318734D01*
X41286Y318616D01*
X41281Y318611D01*
X41276Y318601D01*
X41262Y318586D01*
X41242Y318567D01*
X41193Y318513D01*
X41138Y318444D01*
X41074Y318375D01*
X41020Y318306D01*
X40966Y318247D01*
X40947Y318217D01*
X40932Y318198D01*
X40927Y318193D01*
X40922Y318183D01*
X40907Y318163D01*
X40887Y318139D01*
X40853Y318075D01*
X40814Y318006D01*
X41970D01*
Y317347D01*
X39933D01*
Y317351D01*
Y317361D01*
X39938Y317381D01*
X39943Y317410D01*
Y317445D01*
X39953Y317479D01*
X39958Y317524D01*
X39968Y317573D01*
X39992Y317681D01*
X40027Y317799D01*
X40076Y317922D01*
X40130Y318050D01*
Y318055D01*
X40140Y318065D01*
X40150Y318085D01*
X40164Y318114D01*
X40184Y318144D01*
X40209Y318188D01*
X40238Y318232D01*
X40273Y318286D01*
X40317Y318350D01*
X40361Y318414D01*
X40415Y318488D01*
X40474Y318567D01*
X40543Y318650D01*
X40617Y318739D01*
X40696Y318837D01*
X40784Y318936D01*
X40789Y318940D01*
X40799Y318955D01*
X40819Y318975D01*
X40848Y319005D01*
X40878Y319044D01*
X40912Y319083D01*
X40986Y319172D01*
X41070Y319270D01*
X41143Y319369D01*
X41178Y319413D01*
X41212Y319457D01*
X41237Y319496D01*
X41256Y319526D01*
Y319531D01*
X41262Y319536D01*
X41276Y319565D01*
X41301Y319610D01*
X41325Y319669D01*
X41345Y319738D01*
X41370Y319811D01*
X41385Y319895D01*
X41389Y319979D01*
Y319984D01*
Y319988D01*
Y320018D01*
X41385Y320062D01*
X41375Y320116D01*
X41360Y320176D01*
X41340Y320234D01*
X41316Y320293D01*
X41276Y320343D01*
X41271Y320348D01*
X41256Y320362D01*
X41232Y320382D01*
X41202Y320407D01*
X41158Y320431D01*
X41109Y320451D01*
X41055Y320466D01*
X40991Y320471D01*
X40976D01*
X40956Y320466D01*
X40932Y320461D01*
X40902Y320451D01*
X40868Y320441D01*
X40833Y320422D01*
X40794Y320397D01*
X40760Y320367D01*
X40720Y320328D01*
X40686Y320284D01*
X40656Y320230D01*
X40627Y320161D01*
X40602Y320087D01*
X40587Y319998D01*
X40578Y319895D01*
X40002Y319969D01*
Y319974D01*
X40007Y319993D01*
Y320023D01*
X40012Y320062D01*
X40022Y320107D01*
X40031Y320161D01*
X40046Y320220D01*
X40061Y320284D01*
X40100Y320416D01*
X40154Y320554D01*
X40223Y320682D01*
X40268Y320736D01*
X40312Y320791D01*
X40317Y320795D01*
X40322Y320800D01*
X40341Y320815D01*
X40361Y320830D01*
X40386Y320854D01*
X40415Y320874D01*
X40455Y320899D01*
X40499Y320923D01*
X40543Y320948D01*
X40597Y320972D01*
X40715Y321017D01*
X40853Y321046D01*
X40927Y321051D01*
X41006Y321056D01*
X41050D01*
X41084Y321051D01*
D02*
G37*
G36*
X225053Y320657D02*
X225093Y320229D01*
X222061Y317197D01*
X221519Y317362D01*
X221453Y317691D01*
X220974Y318408D01*
X220258Y318886D01*
X219413Y319054D01*
X218568Y318886D01*
X217852Y318408D01*
X217374Y317691D01*
X217206Y316846D01*
X217374Y316002D01*
X217852Y315285D01*
X218568Y314807D01*
X218898Y314741D01*
X219062Y314199D01*
X217915Y313051D01*
X213913D01*
X213913Y313051D01*
X213453Y312959D01*
X213062Y312698D01*
X207562Y307198D01*
X207301Y306807D01*
X207209Y306347D01*
X207209Y306346D01*
Y302146D01*
X206852Y301908D01*
X206374Y301191D01*
X206206Y300346D01*
X206374Y299502D01*
X206591Y299176D01*
Y283686D01*
X205444Y282539D01*
X205049Y281947D01*
X204910Y281250D01*
X204910Y281250D01*
Y277420D01*
X196125Y268635D01*
X195730Y268044D01*
X195591Y267347D01*
X195591Y267346D01*
Y253691D01*
X195421Y253511D01*
X194921Y253710D01*
Y293100D01*
X195421Y293240D01*
X196069Y292807D01*
X196913Y292639D01*
X197758Y292807D01*
X198475Y293285D01*
X198953Y294002D01*
X199121Y294847D01*
X198953Y295691D01*
X198475Y296408D01*
X197758Y296886D01*
X196913Y297054D01*
X196069Y296886D01*
X195421Y296453D01*
X194921Y296593D01*
Y313839D01*
X207913D01*
X208681Y313992D01*
X209333Y314427D01*
X209768Y315078D01*
X209920Y315846D01*
Y320828D01*
X224016D01*
X224620Y320948D01*
X225053Y320657D01*
D02*
G37*
G36*
X67573D02*
X67613Y320229D01*
X64581Y317197D01*
X64038Y317362D01*
X63973Y317691D01*
X63494Y318408D01*
X62778Y318886D01*
X61933Y319054D01*
X61088Y318886D01*
X60372Y318408D01*
X59893Y317691D01*
X59725Y316846D01*
X59893Y316002D01*
X60372Y315285D01*
X61088Y314807D01*
X61418Y314741D01*
X61582Y314199D01*
X60434Y313051D01*
X56433D01*
X56433Y313051D01*
X55972Y312959D01*
X55581Y312698D01*
X50081Y307198D01*
X49821Y306807D01*
X49729Y306347D01*
X49729Y306346D01*
Y302146D01*
X49372Y301908D01*
X48893Y301191D01*
X48725Y300346D01*
X48893Y299502D01*
X49111Y299176D01*
Y283686D01*
X47963Y282539D01*
X47568Y281947D01*
X47429Y281250D01*
X47430Y281250D01*
Y277420D01*
X38644Y268635D01*
X38249Y268044D01*
X38111Y267347D01*
X38111Y267346D01*
Y253691D01*
X37940Y253511D01*
X37440Y253710D01*
Y293100D01*
X37940Y293240D01*
X38588Y292807D01*
X39433Y292639D01*
X40278Y292807D01*
X40994Y293285D01*
X41473Y294002D01*
X41641Y294847D01*
X41473Y295691D01*
X40994Y296408D01*
X40278Y296886D01*
X39433Y297054D01*
X38588Y296886D01*
X37940Y296453D01*
X37440Y296593D01*
Y313839D01*
X50433D01*
X51201Y313992D01*
X51852Y314427D01*
X52287Y315078D01*
X52440Y315846D01*
Y320828D01*
X66535D01*
X67139Y320948D01*
X67573Y320657D01*
D02*
G37*
G36*
X292772Y315285D02*
Y309709D01*
X292415Y309471D01*
X291937Y308754D01*
X291769Y307909D01*
X291937Y307065D01*
X292195Y306679D01*
X291927Y306179D01*
X290913D01*
X290021Y306001D01*
X289264Y305496D01*
X288176Y304408D01*
X288069Y304386D01*
X287352Y303908D01*
X286874Y303191D01*
X286852Y303084D01*
X284413Y300645D01*
X279610Y305448D01*
X278853Y305954D01*
X277961Y306131D01*
X267461D01*
X266568Y305954D01*
X265811Y305448D01*
X265386Y304812D01*
X264953Y305002D01*
X265020Y305340D01*
X265121Y305847D01*
X264953Y306691D01*
X264475Y307408D01*
X263758Y307886D01*
X262913Y308054D01*
X262069Y307886D01*
X261352Y307408D01*
X260874Y306691D01*
X260706Y305847D01*
X260874Y305002D01*
X261352Y304285D01*
X262069Y303807D01*
X262913Y303639D01*
X263758Y303807D01*
X264475Y304285D01*
X264873Y304881D01*
X265306Y304692D01*
X265239Y304353D01*
X265128Y303799D01*
X265306Y302907D01*
X265811Y302150D01*
X266568Y301644D01*
X267461Y301467D01*
X276995D01*
X282081Y296380D01*
Y278813D01*
X274430Y271161D01*
X273924Y270404D01*
X273746Y269512D01*
Y265179D01*
X236220D01*
Y282152D01*
X236453Y282502D01*
X236621Y283347D01*
X236453Y284191D01*
X235975Y284908D01*
X235258Y285386D01*
X234413Y285554D01*
X233569Y285386D01*
X232852Y284908D01*
X232374Y284191D01*
X232206Y283347D01*
X232374Y282502D01*
X232607Y282152D01*
Y265179D01*
X221720D01*
Y283152D01*
X221953Y283502D01*
X222121Y284347D01*
X221953Y285191D01*
X221475Y285908D01*
X220758Y286386D01*
X219913Y286554D01*
X219069Y286386D01*
X218352Y285908D01*
X217874Y285191D01*
X217706Y284347D01*
X217874Y283502D01*
X218107Y283152D01*
Y265179D01*
X214505D01*
X214237Y265679D01*
X214453Y266002D01*
X214621Y266846D01*
X214453Y267691D01*
X213974Y268408D01*
X213618Y268646D01*
Y271846D01*
X213618Y271847D01*
X213526Y272307D01*
X213265Y272698D01*
X213265Y272698D01*
X210118Y275845D01*
Y277341D01*
X210618Y277608D01*
X211069Y277307D01*
X211913Y277139D01*
X212758Y277307D01*
X213474Y277785D01*
X213953Y278502D01*
X214121Y279346D01*
X213953Y280191D01*
X213474Y280908D01*
X212758Y281386D01*
X212429Y281452D01*
X212264Y281994D01*
X219912Y289642D01*
X225413D01*
X225413Y289642D01*
X225874Y289734D01*
X226265Y289995D01*
X228521Y292251D01*
X228521Y292251D01*
X228782Y292641D01*
X228873Y293102D01*
Y294803D01*
X229230Y295041D01*
X229709Y295758D01*
X229877Y296602D01*
X229709Y297447D01*
X229337Y298004D01*
X229528Y298443D01*
X229932Y298473D01*
X230255Y298096D01*
X230206Y297847D01*
X230374Y297002D01*
X230852Y296285D01*
X231569Y295807D01*
X232413Y295639D01*
X233258Y295807D01*
X233975Y296285D01*
X234453Y297002D01*
X234621Y297847D01*
X234453Y298691D01*
X234236Y299016D01*
Y313176D01*
X234453Y313502D01*
X234529Y313885D01*
X236668Y316024D01*
X238712D01*
X238762Y315524D01*
X238593Y315490D01*
X238069Y315386D01*
X237352Y314908D01*
X236874Y314191D01*
X236706Y313347D01*
X236874Y312502D01*
X237352Y311785D01*
X237609Y311614D01*
Y308347D01*
X237708Y307847D01*
X237991Y307424D01*
X241109Y304306D01*
Y297887D01*
X225991Y282769D01*
X225708Y282346D01*
X225609Y281846D01*
Y275579D01*
X225352Y275408D01*
X224874Y274691D01*
X224706Y273847D01*
X224874Y273002D01*
X225352Y272285D01*
X226068Y271807D01*
X226913Y271639D01*
X227758Y271807D01*
X228474Y272285D01*
X228953Y273002D01*
X229121Y273847D01*
X228953Y274691D01*
X228474Y275408D01*
X228218Y275579D01*
Y281306D01*
X243336Y296424D01*
X243619Y296847D01*
X243718Y297346D01*
Y304847D01*
X243619Y305346D01*
X243336Y305769D01*
X240218Y308887D01*
Y311614D01*
X240475Y311785D01*
X240953Y312502D01*
X241121Y313347D01*
X240953Y314191D01*
X240475Y314908D01*
X239758Y315386D01*
X239234Y315490D01*
X239065Y315524D01*
X239114Y316024D01*
X253850D01*
X254117Y315524D01*
X253937Y315254D01*
X253769Y314409D01*
X253937Y313565D01*
X254415Y312848D01*
X254672Y312677D01*
Y309950D01*
X253491Y308769D01*
X253208Y308346D01*
X253109Y307846D01*
Y279387D01*
X251714Y277992D01*
X251326Y278311D01*
X251453Y278502D01*
X251621Y279346D01*
X251453Y280191D01*
X250974Y280908D01*
X250258Y281386D01*
X249413Y281554D01*
X248569Y281386D01*
X247852Y280908D01*
X247374Y280191D01*
X247206Y279346D01*
X247374Y278502D01*
X247852Y277785D01*
X248569Y277307D01*
X249413Y277139D01*
X250258Y277307D01*
X250449Y277434D01*
X250768Y277046D01*
X245216Y271494D01*
X244913Y271554D01*
X244069Y271386D01*
X243352Y270908D01*
X242874Y270191D01*
X242706Y269346D01*
X242874Y268502D01*
X243352Y267785D01*
X244069Y267307D01*
X244913Y267139D01*
X245758Y267307D01*
X246475Y267785D01*
X246953Y268502D01*
X247121Y269346D01*
X247061Y269649D01*
X255336Y277924D01*
X255619Y278347D01*
X255718Y278847D01*
Y303335D01*
X256218Y303486D01*
X256352Y303285D01*
X257068Y302807D01*
X257913Y302639D01*
X258758Y302807D01*
X259474Y303285D01*
X259953Y304002D01*
X260121Y304847D01*
X259953Y305691D01*
X259474Y306408D01*
X258758Y306886D01*
X257913Y307054D01*
X257068Y306886D01*
X256352Y306408D01*
X256218Y306207D01*
X255718Y306358D01*
Y307306D01*
X256899Y308487D01*
X257182Y308910D01*
X257281Y309409D01*
Y312677D01*
X257538Y312848D01*
X258016Y313565D01*
X258184Y314409D01*
X258016Y315254D01*
X257836Y315524D01*
X258103Y316024D01*
X258659D01*
X259091Y315592D01*
Y315516D01*
X258874Y315191D01*
X258706Y314347D01*
X258874Y313502D01*
X259352Y312785D01*
X260068Y312307D01*
X260913Y312139D01*
X261758Y312307D01*
X262474Y312785D01*
X262953Y313502D01*
X263121Y314347D01*
X262953Y315191D01*
X262736Y315516D01*
Y316346D01*
X262736Y316347D01*
X262597Y317044D01*
X262202Y317635D01*
X261069Y318768D01*
X261276Y319268D01*
X288789D01*
X292772Y315285D01*
D02*
G37*
G36*
X135292D02*
Y309709D01*
X134935Y309471D01*
X134456Y308754D01*
X134288Y307909D01*
X134456Y307065D01*
X134714Y306679D01*
X134447Y306179D01*
X133433D01*
X132541Y306001D01*
X131784Y305496D01*
X130696Y304408D01*
X130588Y304386D01*
X129872Y303908D01*
X129393Y303191D01*
X129372Y303084D01*
X126933Y300645D01*
X122129Y305448D01*
X121373Y305954D01*
X120480Y306131D01*
X109980D01*
X109088Y305954D01*
X108331Y305448D01*
X107906Y304812D01*
X107473Y305002D01*
X107540Y305340D01*
X107641Y305847D01*
X107473Y306691D01*
X106994Y307408D01*
X106278Y307886D01*
X105433Y308054D01*
X104588Y307886D01*
X103872Y307408D01*
X103393Y306691D01*
X103225Y305847D01*
X103393Y305002D01*
X103872Y304285D01*
X104588Y303807D01*
X105433Y303639D01*
X106278Y303807D01*
X106994Y304285D01*
X107392Y304881D01*
X107826Y304692D01*
X107758Y304353D01*
X107648Y303799D01*
X107826Y302907D01*
X108331Y302150D01*
X109088Y301644D01*
X109980Y301467D01*
X119514D01*
X124601Y296380D01*
Y278813D01*
X116949Y271161D01*
X116444Y270404D01*
X116266Y269512D01*
Y265179D01*
X78739D01*
Y282152D01*
X78973Y282502D01*
X79141Y283347D01*
X78973Y284191D01*
X78494Y284908D01*
X77778Y285386D01*
X76933Y285554D01*
X76088Y285386D01*
X75372Y284908D01*
X74893Y284191D01*
X74725Y283347D01*
X74893Y282502D01*
X75127Y282152D01*
Y265179D01*
X64239D01*
Y283152D01*
X64473Y283502D01*
X64641Y284347D01*
X64473Y285191D01*
X63994Y285908D01*
X63278Y286386D01*
X62433Y286554D01*
X61588Y286386D01*
X60872Y285908D01*
X60393Y285191D01*
X60225Y284347D01*
X60393Y283502D01*
X60627Y283152D01*
Y265179D01*
X57024D01*
X56757Y265679D01*
X56973Y266002D01*
X57141Y266846D01*
X56973Y267691D01*
X56494Y268408D01*
X56137Y268646D01*
Y271846D01*
X56137Y271847D01*
X56046Y272307D01*
X55785Y272698D01*
X55785Y272698D01*
X52637Y275845D01*
Y277341D01*
X53137Y277608D01*
X53588Y277307D01*
X54433Y277139D01*
X55278Y277307D01*
X55994Y277785D01*
X56473Y278502D01*
X56641Y279346D01*
X56473Y280191D01*
X55994Y280908D01*
X55278Y281386D01*
X54949Y281452D01*
X54784Y281994D01*
X62432Y289642D01*
X67933D01*
X67933Y289642D01*
X68394Y289734D01*
X68785Y289995D01*
X71040Y292251D01*
X71040Y292251D01*
X71302Y292641D01*
X71393Y293102D01*
Y294803D01*
X71750Y295041D01*
X72229Y295758D01*
X72397Y296602D01*
X72229Y297447D01*
X71857Y298004D01*
X72048Y298443D01*
X72452Y298473D01*
X72775Y298096D01*
X72725Y297847D01*
X72893Y297002D01*
X73372Y296285D01*
X74088Y295807D01*
X74933Y295639D01*
X75778Y295807D01*
X76494Y296285D01*
X76973Y297002D01*
X77141Y297847D01*
X76973Y298691D01*
X76755Y299016D01*
Y313176D01*
X76973Y313502D01*
X77049Y313885D01*
X79188Y316024D01*
X81232D01*
X81281Y315524D01*
X81112Y315490D01*
X80588Y315386D01*
X79872Y314908D01*
X79393Y314191D01*
X79225Y313347D01*
X79393Y312502D01*
X79872Y311785D01*
X80129Y311614D01*
Y308347D01*
X80228Y307847D01*
X80511Y307424D01*
X83628Y304306D01*
Y297887D01*
X68511Y282769D01*
X68228Y282346D01*
X68129Y281846D01*
Y275579D01*
X67872Y275408D01*
X67393Y274691D01*
X67225Y273847D01*
X67393Y273002D01*
X67872Y272285D01*
X68588Y271807D01*
X69433Y271639D01*
X70278Y271807D01*
X70994Y272285D01*
X71473Y273002D01*
X71641Y273847D01*
X71473Y274691D01*
X70994Y275408D01*
X70738Y275579D01*
Y281306D01*
X85856Y296424D01*
X86138Y296847D01*
X86238Y297346D01*
Y304847D01*
X86138Y305346D01*
X85856Y305769D01*
X82738Y308887D01*
Y311614D01*
X82994Y311785D01*
X83473Y312502D01*
X83641Y313347D01*
X83473Y314191D01*
X82994Y314908D01*
X82278Y315386D01*
X81754Y315490D01*
X81585Y315524D01*
X81634Y316024D01*
X96369D01*
X96637Y315524D01*
X96456Y315254D01*
X96288Y314409D01*
X96456Y313565D01*
X96935Y312848D01*
X97192Y312677D01*
Y309950D01*
X96011Y308769D01*
X95728Y308346D01*
X95628Y307846D01*
Y279387D01*
X94234Y277992D01*
X93845Y278311D01*
X93973Y278502D01*
X94141Y279346D01*
X93973Y280191D01*
X93494Y280908D01*
X92778Y281386D01*
X91933Y281554D01*
X91088Y281386D01*
X90372Y280908D01*
X89893Y280191D01*
X89725Y279346D01*
X89893Y278502D01*
X90372Y277785D01*
X91088Y277307D01*
X91933Y277139D01*
X92778Y277307D01*
X92969Y277434D01*
X93287Y277046D01*
X87736Y271494D01*
X87433Y271554D01*
X86588Y271386D01*
X85872Y270908D01*
X85393Y270191D01*
X85225Y269346D01*
X85393Y268502D01*
X85872Y267785D01*
X86588Y267307D01*
X87433Y267139D01*
X88278Y267307D01*
X88994Y267785D01*
X89473Y268502D01*
X89641Y269346D01*
X89581Y269649D01*
X97856Y277924D01*
X98138Y278347D01*
X98238Y278847D01*
Y303335D01*
X98738Y303486D01*
X98872Y303285D01*
X99588Y302807D01*
X100433Y302639D01*
X101278Y302807D01*
X101994Y303285D01*
X102473Y304002D01*
X102641Y304847D01*
X102473Y305691D01*
X101994Y306408D01*
X101278Y306886D01*
X100433Y307054D01*
X99588Y306886D01*
X98872Y306408D01*
X98738Y306207D01*
X98238Y306358D01*
Y307306D01*
X99418Y308487D01*
X99701Y308910D01*
X99801Y309409D01*
Y312677D01*
X100057Y312848D01*
X100536Y313565D01*
X100704Y314409D01*
X100536Y315254D01*
X100356Y315524D01*
X100623Y316024D01*
X101178D01*
X101611Y315592D01*
Y315516D01*
X101393Y315191D01*
X101225Y314347D01*
X101393Y313502D01*
X101872Y312785D01*
X102588Y312307D01*
X103433Y312139D01*
X104278Y312307D01*
X104994Y312785D01*
X105473Y313502D01*
X105641Y314347D01*
X105473Y315191D01*
X105255Y315516D01*
Y316346D01*
X105255Y316347D01*
X105117Y317044D01*
X104722Y317635D01*
X103589Y318768D01*
X103796Y319268D01*
X131308D01*
X135292Y315285D01*
D02*
G37*
G36*
X228740Y320828D02*
X230538D01*
X230730Y320366D01*
X227562Y317198D01*
X227301Y316807D01*
X227209Y316347D01*
X227209Y316346D01*
Y308345D01*
X223883Y305019D01*
X213744D01*
X213506Y305376D01*
X212790Y305855D01*
X211945Y306023D01*
X211100Y305855D01*
X210384Y305376D01*
X210118Y304978D01*
X209618Y305130D01*
Y305848D01*
X214412Y310642D01*
X218413D01*
X218413Y310642D01*
X218874Y310734D01*
X219265Y310995D01*
X227229Y318959D01*
X227229Y318959D01*
X227490Y319350D01*
X227582Y319811D01*
Y320685D01*
X228082Y320958D01*
X228740Y320828D01*
D02*
G37*
G36*
X71260D02*
X73058D01*
X73249Y320366D01*
X70082Y317198D01*
X69820Y316807D01*
X69729Y316347D01*
X69729Y316346D01*
Y308345D01*
X66403Y305019D01*
X56264D01*
X56026Y305376D01*
X55309Y305855D01*
X54465Y306023D01*
X53620Y305855D01*
X52903Y305376D01*
X52637Y304978D01*
X52137Y305130D01*
Y305848D01*
X56932Y310642D01*
X60933D01*
X60933Y310642D01*
X61394Y310734D01*
X61785Y310995D01*
X69749Y318959D01*
X69749Y318959D01*
X70010Y319350D01*
X70102Y319811D01*
Y320685D01*
X70602Y320958D01*
X71260Y320828D01*
D02*
G37*
G36*
X226015Y298024D02*
X225630Y297447D01*
X225462Y296602D01*
X225630Y295758D01*
X226108Y295041D01*
X226465Y294803D01*
Y293601D01*
X224915Y292051D01*
X219413D01*
X218952Y291959D01*
X218562Y291698D01*
X218562Y291698D01*
X210698Y283834D01*
X210236Y284025D01*
Y294308D01*
X210736Y294460D01*
X210852Y294285D01*
X211568Y293807D01*
X212413Y293639D01*
X213258Y293807D01*
X213974Y294285D01*
X214453Y295002D01*
X214621Y295847D01*
X214453Y296691D01*
X213974Y297408D01*
X213258Y297886D01*
X212565Y298024D01*
X212614Y298524D01*
X225816D01*
X226015Y298024D01*
D02*
G37*
G36*
X68535D02*
X68149Y297447D01*
X67981Y296602D01*
X68149Y295758D01*
X68628Y295041D01*
X68985Y294803D01*
Y293601D01*
X67434Y292051D01*
X61933D01*
X61472Y291959D01*
X61081Y291698D01*
X61081Y291698D01*
X53217Y283834D01*
X52755Y284025D01*
Y294308D01*
X53255Y294460D01*
X53372Y294285D01*
X54088Y293807D01*
X54933Y293639D01*
X55778Y293807D01*
X56494Y294285D01*
X56973Y295002D01*
X57141Y295847D01*
X56973Y296691D01*
X56494Y297408D01*
X55778Y297886D01*
X55085Y298024D01*
X55134Y298524D01*
X68336D01*
X68535Y298024D01*
D02*
G37*
G36*
X287374Y287002D02*
X287852Y286285D01*
X288568Y285807D01*
X289413Y285639D01*
X289603Y285676D01*
X289798Y285205D01*
X289352Y284908D01*
X288874Y284191D01*
X288706Y283347D01*
X288874Y282502D01*
X289352Y281785D01*
X289967Y281374D01*
X290010Y281167D01*
Y281026D01*
X289967Y280819D01*
X289352Y280408D01*
X288874Y279691D01*
X288706Y278847D01*
X288874Y278002D01*
X289352Y277285D01*
X290069Y276807D01*
X290913Y276639D01*
X291758Y276807D01*
X292192Y277097D01*
X292692Y276829D01*
Y244314D01*
X285761Y237383D01*
X260232D01*
X255751Y241864D01*
X255064Y242391D01*
X254264Y242723D01*
X253406Y242836D01*
X251039D01*
X250803Y243277D01*
X250953Y243502D01*
X251121Y244346D01*
X250953Y245191D01*
X250475Y245908D01*
X250192Y246096D01*
Y246597D01*
X250475Y246785D01*
X250953Y247502D01*
X251121Y248346D01*
X250953Y249191D01*
X250475Y249908D01*
X249758Y250386D01*
X248913Y250554D01*
X248068Y250386D01*
X247352Y249908D01*
X246874Y249191D01*
X246706Y248346D01*
X246874Y247502D01*
X247352Y246785D01*
X247635Y246597D01*
Y246096D01*
X247352Y245908D01*
X246874Y245191D01*
X246706Y244346D01*
X246874Y243502D01*
X247024Y243277D01*
X246788Y242836D01*
X226087D01*
X225229Y242723D01*
X224429Y242391D01*
X223742Y241864D01*
X218540Y236662D01*
X207413D01*
X206555Y236549D01*
X205755Y236218D01*
X205069Y235691D01*
X204542Y235004D01*
X204211Y234205D01*
X204098Y233347D01*
X204211Y232488D01*
X204542Y231689D01*
X205069Y231002D01*
X205262Y230854D01*
X205092Y230353D01*
X194921D01*
Y251348D01*
X195134Y251420D01*
X195421Y251432D01*
X195852Y250785D01*
X196569Y250307D01*
X197413Y250139D01*
X198258Y250307D01*
X198975Y250785D01*
X199453Y251502D01*
X199621Y252346D01*
X199453Y253191D01*
X199236Y253517D01*
Y260615D01*
X199736Y260882D01*
X200021Y260692D01*
X200913Y260514D01*
X208360D01*
X208512Y260014D01*
X208352Y259908D01*
X207874Y259191D01*
X207706Y258347D01*
X207874Y257502D01*
X208352Y256785D01*
X209068Y256307D01*
X209913Y256139D01*
X210758Y256307D01*
X211474Y256785D01*
X211953Y257502D01*
X212121Y258347D01*
X211953Y259191D01*
X211474Y259908D01*
X211315Y260014D01*
X211467Y260514D01*
X270322D01*
X270589Y260014D01*
X270374Y259691D01*
X270206Y258846D01*
X270374Y258002D01*
X270852Y257285D01*
X271568Y256807D01*
X272413Y256639D01*
X273247Y256804D01*
X273337Y256821D01*
X273746Y256534D01*
Y246478D01*
X273172Y245903D01*
X268689D01*
X267796Y245726D01*
X267040Y245220D01*
X266534Y244463D01*
X266357Y243571D01*
X266534Y242678D01*
X267040Y241922D01*
X267796Y241416D01*
X268689Y241239D01*
X274138D01*
X275030Y241416D01*
X275787Y241922D01*
X277728Y243863D01*
X278233Y244619D01*
X278411Y245512D01*
Y268546D01*
X286063Y276197D01*
X286568Y276954D01*
X286746Y277847D01*
Y287596D01*
X287246Y287646D01*
X287374Y287002D01*
D02*
G37*
G36*
X129893D02*
X130372Y286285D01*
X131088Y285807D01*
X131933Y285639D01*
X132123Y285676D01*
X132318Y285205D01*
X131872Y284908D01*
X131393Y284191D01*
X131225Y283347D01*
X131393Y282502D01*
X131872Y281785D01*
X132487Y281374D01*
X132530Y281167D01*
Y281026D01*
X132487Y280819D01*
X131872Y280408D01*
X131393Y279691D01*
X131225Y278847D01*
X131393Y278002D01*
X131872Y277285D01*
X132588Y276807D01*
X133433Y276639D01*
X134278Y276807D01*
X134712Y277097D01*
X135212Y276829D01*
Y244314D01*
X128280Y237383D01*
X102752D01*
X98270Y241864D01*
X97584Y242391D01*
X96784Y242723D01*
X95926Y242836D01*
X93558D01*
X93322Y243277D01*
X93473Y243502D01*
X93641Y244346D01*
X93473Y245191D01*
X92994Y245908D01*
X92712Y246096D01*
Y246597D01*
X92994Y246785D01*
X93473Y247502D01*
X93641Y248346D01*
X93473Y249191D01*
X92994Y249908D01*
X92278Y250386D01*
X91433Y250554D01*
X90588Y250386D01*
X89872Y249908D01*
X89393Y249191D01*
X89225Y248346D01*
X89393Y247502D01*
X89872Y246785D01*
X90155Y246597D01*
Y246096D01*
X89872Y245908D01*
X89393Y245191D01*
X89225Y244346D01*
X89393Y243502D01*
X89544Y243277D01*
X89308Y242836D01*
X68607D01*
X67748Y242723D01*
X66949Y242391D01*
X66262Y241864D01*
X61060Y236662D01*
X49933D01*
X49075Y236549D01*
X48275Y236218D01*
X47589Y235691D01*
X47061Y235004D01*
X46730Y234205D01*
X46617Y233347D01*
X46730Y232488D01*
X47061Y231689D01*
X47589Y231002D01*
X47782Y230854D01*
X47612Y230353D01*
X37440D01*
Y251348D01*
X37653Y251420D01*
X37940Y251432D01*
X38372Y250785D01*
X39088Y250307D01*
X39933Y250139D01*
X40778Y250307D01*
X41494Y250785D01*
X41973Y251502D01*
X42141Y252346D01*
X41973Y253191D01*
X41756Y253517D01*
Y260615D01*
X42255Y260882D01*
X42541Y260692D01*
X43433Y260514D01*
X50880D01*
X51032Y260014D01*
X50872Y259908D01*
X50393Y259191D01*
X50225Y258347D01*
X50393Y257502D01*
X50872Y256785D01*
X51588Y256307D01*
X52433Y256139D01*
X53278Y256307D01*
X53994Y256785D01*
X54473Y257502D01*
X54641Y258347D01*
X54473Y259191D01*
X53994Y259908D01*
X53835Y260014D01*
X53986Y260514D01*
X112842D01*
X113109Y260014D01*
X112893Y259691D01*
X112725Y258846D01*
X112893Y258002D01*
X113372Y257285D01*
X114088Y256807D01*
X114933Y256639D01*
X115766Y256804D01*
X115857Y256821D01*
X116266Y256534D01*
Y246478D01*
X115691Y245903D01*
X111209D01*
X110316Y245726D01*
X109560Y245220D01*
X109054Y244463D01*
X108876Y243571D01*
X109054Y242678D01*
X109560Y241922D01*
X110316Y241416D01*
X111209Y241239D01*
X116657D01*
X117550Y241416D01*
X118307Y241922D01*
X120248Y243863D01*
X120753Y244619D01*
X120931Y245512D01*
Y268546D01*
X128582Y276197D01*
X129088Y276954D01*
X129265Y277847D01*
Y287596D01*
X129765Y287646D01*
X129893Y287002D01*
D02*
G37*
G36*
X246550Y235704D02*
X246437Y235556D01*
X246140Y234838D01*
X246038Y234067D01*
X246140Y233296D01*
X246437Y232578D01*
X246910Y231961D01*
X247527Y231488D01*
X248245Y231190D01*
X249016Y231089D01*
X249787Y231190D01*
X250505Y231488D01*
X251122Y231961D01*
X251595Y232578D01*
X251893Y233296D01*
X251994Y234067D01*
X251893Y234838D01*
X251614Y235510D01*
X251691Y235720D01*
X251864Y236017D01*
X252182Y236055D01*
X256514Y231722D01*
X257201Y231196D01*
X258001Y230864D01*
X258083Y230854D01*
X258050Y230353D01*
X222234D01*
X222065Y230854D01*
X222258Y231002D01*
X227460Y236204D01*
X233306D01*
X233527Y235756D01*
X233456Y235664D01*
X233137Y234893D01*
X233094Y234567D01*
X236221D01*
X239348D01*
X239305Y234893D01*
X238986Y235664D01*
X238915Y235756D01*
X239136Y236204D01*
X246304D01*
X246550Y235704D01*
D02*
G37*
G36*
X89070D02*
X88957Y235556D01*
X88659Y234838D01*
X88558Y234067D01*
X88659Y233296D01*
X88957Y232578D01*
X89430Y231961D01*
X90047Y231488D01*
X90765Y231190D01*
X91536Y231089D01*
X92307Y231190D01*
X93025Y231488D01*
X93642Y231961D01*
X94115Y232578D01*
X94413Y233296D01*
X94514Y234067D01*
X94413Y234838D01*
X94134Y235510D01*
X94210Y235720D01*
X94384Y236017D01*
X94701Y236055D01*
X99034Y231722D01*
X99721Y231196D01*
X100520Y230864D01*
X100602Y230854D01*
X100570Y230353D01*
X64754D01*
X64584Y230854D01*
X64778Y231002D01*
X69980Y236204D01*
X75825D01*
X76047Y235756D01*
X75976Y235664D01*
X75657Y234893D01*
X75614Y234567D01*
X78741D01*
X81867D01*
X81824Y234893D01*
X81506Y235664D01*
X81435Y235756D01*
X81656Y236204D01*
X88824D01*
X89070Y235704D01*
D02*
G37*
G36*
X312953Y305118D02*
X313106Y304350D01*
X313541Y303699D01*
X314193Y303264D01*
X314961Y303111D01*
X320040D01*
Y275629D01*
X314961D01*
X314193Y275476D01*
X313541Y275041D01*
X313106Y274390D01*
X312953Y273622D01*
Y230353D01*
X287943D01*
X287910Y230854D01*
X287992Y230864D01*
X288792Y231196D01*
X289479Y231722D01*
X298353Y240596D01*
X298879Y241283D01*
X299211Y242083D01*
X299324Y242941D01*
Y284252D01*
X299211Y285110D01*
X298879Y285910D01*
X298353Y286597D01*
X297666Y287123D01*
X296866Y287455D01*
X296008Y287568D01*
X295150Y287455D01*
X294350Y287123D01*
X293663Y286597D01*
X293136Y285910D01*
X292848Y285214D01*
X292807Y285180D01*
X292521Y285066D01*
X292290Y285031D01*
X291758Y285386D01*
X290913Y285554D01*
X290724Y285517D01*
X290529Y285987D01*
X290974Y286285D01*
X291453Y287002D01*
X291621Y287846D01*
X291453Y288691D01*
X290974Y289408D01*
X290258Y289886D01*
X289413Y290054D01*
X288568Y289886D01*
X287852Y289408D01*
X287374Y288691D01*
X287246Y288048D01*
X286746Y288097D01*
Y296380D01*
X291879Y301514D01*
X298413D01*
X299306Y301692D01*
X300062Y302197D01*
X303562Y305697D01*
X304068Y306454D01*
X304246Y307347D01*
Y316846D01*
X304068Y317739D01*
X303562Y318496D01*
X302806Y319001D01*
X301913Y319179D01*
X301021Y319001D01*
X300264Y318496D01*
X299759Y317739D01*
X299581Y316846D01*
Y308313D01*
X297447Y306179D01*
X296025D01*
X295758Y306679D01*
X296016Y307065D01*
X296184Y307909D01*
X296016Y308754D01*
X295537Y309471D01*
X295181Y309709D01*
Y315783D01*
X295181Y315784D01*
X295089Y316244D01*
X294828Y316635D01*
X291097Y320366D01*
X291289Y320828D01*
X312953D01*
Y305118D01*
D02*
G37*
G36*
X155473D02*
X155626Y304350D01*
X156061Y303699D01*
X156712Y303264D01*
X157480Y303111D01*
X162560D01*
Y275629D01*
X157480D01*
X156712Y275476D01*
X156061Y275041D01*
X155626Y274390D01*
X155473Y273622D01*
Y230353D01*
X130463D01*
X130430Y230854D01*
X130512Y230864D01*
X131312Y231196D01*
X131998Y231722D01*
X140872Y240596D01*
X141399Y241283D01*
X141730Y242083D01*
X141843Y242941D01*
Y284252D01*
X141730Y285110D01*
X141399Y285910D01*
X140872Y286597D01*
X140185Y287123D01*
X139386Y287455D01*
X138528Y287568D01*
X137669Y287455D01*
X136870Y287123D01*
X136183Y286597D01*
X135656Y285910D01*
X135368Y285214D01*
X135327Y285180D01*
X135041Y285066D01*
X134810Y285031D01*
X134278Y285386D01*
X133433Y285554D01*
X133244Y285517D01*
X133048Y285987D01*
X133494Y286285D01*
X133973Y287002D01*
X134141Y287846D01*
X133973Y288691D01*
X133494Y289408D01*
X132778Y289886D01*
X131933Y290054D01*
X131088Y289886D01*
X130372Y289408D01*
X129893Y288691D01*
X129765Y288048D01*
X129265Y288097D01*
Y296380D01*
X134399Y301514D01*
X140933D01*
X141826Y301692D01*
X142582Y302197D01*
X146082Y305697D01*
X146588Y306454D01*
X146765Y307347D01*
Y316846D01*
X146588Y317739D01*
X146082Y318496D01*
X145326Y319001D01*
X144433Y319179D01*
X143541Y319001D01*
X142784Y318496D01*
X142278Y317739D01*
X142101Y316846D01*
Y308313D01*
X139967Y306179D01*
X138545D01*
X138278Y306679D01*
X138536Y307065D01*
X138704Y307909D01*
X138536Y308754D01*
X138057Y309471D01*
X137700Y309709D01*
Y315783D01*
X137700Y315784D01*
X137609Y316244D01*
X137348Y316635D01*
X133617Y320366D01*
X133808Y320828D01*
X155473D01*
Y305118D01*
D02*
G37*
G36*
X198565Y151760D02*
X198604Y151755D01*
X198648Y151750D01*
X198757Y151725D01*
X198870Y151691D01*
X198929Y151666D01*
X198993Y151632D01*
X199047Y151597D01*
X199106Y151558D01*
X199155Y151509D01*
X199204Y151455D01*
X199209Y151450D01*
X199214Y151440D01*
X199229Y151425D01*
X199244Y151401D01*
X199263Y151371D01*
X199283Y151337D01*
X199303Y151297D01*
X199327Y151248D01*
X199372Y151145D01*
X199411Y151022D01*
X199440Y150889D01*
X199445Y150815D01*
X199450Y150741D01*
Y150732D01*
Y150702D01*
X199445Y150658D01*
X199440Y150604D01*
X199435Y150535D01*
X199426Y150461D01*
X199406Y150382D01*
X199386Y150304D01*
X199381Y150294D01*
X199376Y150269D01*
X199362Y150225D01*
X199337Y150171D01*
X199312Y150107D01*
X199278Y150033D01*
X199239Y149954D01*
X199194Y149875D01*
X199189Y149866D01*
X199170Y149836D01*
X199140Y149792D01*
X199091Y149728D01*
X199032Y149644D01*
X198958Y149551D01*
X198870Y149443D01*
X198766Y149325D01*
X198761Y149320D01*
X198757Y149310D01*
X198742Y149295D01*
X198722Y149275D01*
X198673Y149221D01*
X198619Y149152D01*
X198555Y149083D01*
X198501Y149014D01*
X198447Y148956D01*
X198427Y148926D01*
X198412Y148906D01*
X198407Y148901D01*
X198402Y148891D01*
X198388Y148872D01*
X198368Y148847D01*
X198333Y148783D01*
X198294Y148714D01*
X199450D01*
Y148055D01*
X197413D01*
Y148060D01*
Y148070D01*
X197418Y148090D01*
X197423Y148119D01*
Y148153D01*
X197433Y148188D01*
X197438Y148232D01*
X197448Y148281D01*
X197472Y148390D01*
X197507Y148508D01*
X197556Y148631D01*
X197610Y148759D01*
Y148764D01*
X197620Y148773D01*
X197630Y148793D01*
X197645Y148823D01*
X197664Y148852D01*
X197689Y148896D01*
X197718Y148941D01*
X197753Y148995D01*
X197797Y149059D01*
X197841Y149123D01*
X197896Y149197D01*
X197955Y149275D01*
X198023Y149359D01*
X198097Y149448D01*
X198176Y149546D01*
X198265Y149644D01*
X198269Y149649D01*
X198279Y149664D01*
X198299Y149684D01*
X198328Y149713D01*
X198358Y149752D01*
X198392Y149792D01*
X198466Y149880D01*
X198550Y149979D01*
X198624Y150077D01*
X198658Y150121D01*
X198693Y150166D01*
X198717Y150205D01*
X198737Y150235D01*
Y150240D01*
X198742Y150244D01*
X198757Y150274D01*
X198781Y150318D01*
X198806Y150377D01*
X198825Y150446D01*
X198850Y150520D01*
X198865Y150604D01*
X198870Y150687D01*
Y150692D01*
Y150697D01*
Y150727D01*
X198865Y150771D01*
X198855Y150825D01*
X198840Y150884D01*
X198820Y150943D01*
X198796Y151002D01*
X198757Y151051D01*
X198752Y151056D01*
X198737Y151071D01*
X198712Y151091D01*
X198683Y151115D01*
X198638Y151140D01*
X198589Y151160D01*
X198535Y151174D01*
X198471Y151179D01*
X198456D01*
X198437Y151174D01*
X198412Y151170D01*
X198383Y151160D01*
X198348Y151150D01*
X198314Y151130D01*
X198274Y151105D01*
X198240Y151076D01*
X198201Y151037D01*
X198166Y150992D01*
X198137Y150938D01*
X198107Y150869D01*
X198082Y150796D01*
X198068Y150707D01*
X198058Y150604D01*
X197482Y150678D01*
Y150682D01*
X197487Y150702D01*
Y150732D01*
X197492Y150771D01*
X197502Y150815D01*
X197512Y150869D01*
X197527Y150928D01*
X197541Y150992D01*
X197581Y151125D01*
X197635Y151263D01*
X197704Y151391D01*
X197748Y151445D01*
X197792Y151499D01*
X197797Y151504D01*
X197802Y151509D01*
X197822Y151524D01*
X197841Y151539D01*
X197866Y151563D01*
X197896Y151583D01*
X197935Y151607D01*
X197979Y151632D01*
X198023Y151657D01*
X198078Y151681D01*
X198196Y151725D01*
X198333Y151755D01*
X198407Y151760D01*
X198486Y151765D01*
X198530D01*
X198565Y151760D01*
D02*
G37*
G36*
X41084D02*
X41124Y151755D01*
X41168Y151750D01*
X41276Y151725D01*
X41389Y151691D01*
X41448Y151666D01*
X41512Y151632D01*
X41567Y151597D01*
X41625Y151558D01*
X41675Y151509D01*
X41724Y151455D01*
X41729Y151450D01*
X41734Y151440D01*
X41749Y151425D01*
X41763Y151401D01*
X41783Y151371D01*
X41803Y151337D01*
X41822Y151297D01*
X41847Y151248D01*
X41891Y151145D01*
X41931Y151022D01*
X41960Y150889D01*
X41965Y150815D01*
X41970Y150741D01*
Y150732D01*
Y150702D01*
X41965Y150658D01*
X41960Y150604D01*
X41955Y150535D01*
X41945Y150461D01*
X41926Y150382D01*
X41906Y150304D01*
X41901Y150294D01*
X41896Y150269D01*
X41881Y150225D01*
X41857Y150171D01*
X41832Y150107D01*
X41798Y150033D01*
X41758Y149954D01*
X41714Y149875D01*
X41709Y149866D01*
X41690Y149836D01*
X41660Y149792D01*
X41611Y149728D01*
X41552Y149644D01*
X41478Y149551D01*
X41389Y149443D01*
X41286Y149325D01*
X41281Y149320D01*
X41276Y149310D01*
X41262Y149295D01*
X41242Y149275D01*
X41193Y149221D01*
X41138Y149152D01*
X41074Y149083D01*
X41020Y149014D01*
X40966Y148956D01*
X40947Y148926D01*
X40932Y148906D01*
X40927Y148901D01*
X40922Y148891D01*
X40907Y148872D01*
X40887Y148847D01*
X40853Y148783D01*
X40814Y148714D01*
X41970D01*
Y148055D01*
X39933D01*
Y148060D01*
Y148070D01*
X39938Y148090D01*
X39943Y148119D01*
Y148153D01*
X39953Y148188D01*
X39958Y148232D01*
X39968Y148281D01*
X39992Y148390D01*
X40027Y148508D01*
X40076Y148631D01*
X40130Y148759D01*
Y148764D01*
X40140Y148773D01*
X40150Y148793D01*
X40164Y148823D01*
X40184Y148852D01*
X40209Y148896D01*
X40238Y148941D01*
X40273Y148995D01*
X40317Y149059D01*
X40361Y149123D01*
X40415Y149197D01*
X40474Y149275D01*
X40543Y149359D01*
X40617Y149448D01*
X40696Y149546D01*
X40784Y149644D01*
X40789Y149649D01*
X40799Y149664D01*
X40819Y149684D01*
X40848Y149713D01*
X40878Y149752D01*
X40912Y149792D01*
X40986Y149880D01*
X41070Y149979D01*
X41143Y150077D01*
X41178Y150121D01*
X41212Y150166D01*
X41237Y150205D01*
X41256Y150235D01*
Y150240D01*
X41262Y150244D01*
X41276Y150274D01*
X41301Y150318D01*
X41325Y150377D01*
X41345Y150446D01*
X41370Y150520D01*
X41385Y150604D01*
X41389Y150687D01*
Y150692D01*
Y150697D01*
Y150727D01*
X41385Y150771D01*
X41375Y150825D01*
X41360Y150884D01*
X41340Y150943D01*
X41316Y151002D01*
X41276Y151051D01*
X41271Y151056D01*
X41256Y151071D01*
X41232Y151091D01*
X41202Y151115D01*
X41158Y151140D01*
X41109Y151160D01*
X41055Y151174D01*
X40991Y151179D01*
X40976D01*
X40956Y151174D01*
X40932Y151170D01*
X40902Y151160D01*
X40868Y151150D01*
X40833Y151130D01*
X40794Y151105D01*
X40760Y151076D01*
X40720Y151037D01*
X40686Y150992D01*
X40656Y150938D01*
X40627Y150869D01*
X40602Y150796D01*
X40587Y150707D01*
X40578Y150604D01*
X40002Y150678D01*
Y150682D01*
X40007Y150702D01*
Y150732D01*
X40012Y150771D01*
X40022Y150815D01*
X40031Y150869D01*
X40046Y150928D01*
X40061Y150992D01*
X40100Y151125D01*
X40154Y151263D01*
X40223Y151391D01*
X40268Y151445D01*
X40312Y151499D01*
X40317Y151504D01*
X40322Y151509D01*
X40341Y151524D01*
X40361Y151539D01*
X40386Y151563D01*
X40415Y151583D01*
X40455Y151607D01*
X40499Y151632D01*
X40543Y151657D01*
X40597Y151681D01*
X40715Y151725D01*
X40853Y151755D01*
X40927Y151760D01*
X41006Y151765D01*
X41050D01*
X41084Y151760D01*
D02*
G37*
G36*
X225053Y151365D02*
X225093Y150938D01*
X222061Y147906D01*
X221519Y148071D01*
X221453Y148400D01*
X220974Y149116D01*
X220258Y149595D01*
X219413Y149763D01*
X218568Y149595D01*
X217852Y149116D01*
X217374Y148400D01*
X217206Y147555D01*
X217374Y146710D01*
X217852Y145994D01*
X218568Y145515D01*
X218898Y145450D01*
X219062Y144907D01*
X217915Y143759D01*
X213913D01*
X213913Y143759D01*
X213453Y143668D01*
X213062Y143407D01*
X207562Y137907D01*
X207301Y137516D01*
X207209Y137055D01*
X207209Y137055D01*
Y132855D01*
X206852Y132616D01*
X206374Y131900D01*
X206206Y131055D01*
X206374Y130210D01*
X206591Y129885D01*
Y114394D01*
X205444Y113247D01*
X205049Y112656D01*
X204910Y111959D01*
X204910Y111959D01*
Y108129D01*
X196125Y99344D01*
X195730Y98752D01*
X195591Y98055D01*
X195591Y98055D01*
Y84400D01*
X195421Y84219D01*
X194921Y84418D01*
Y123809D01*
X195421Y123948D01*
X196069Y123515D01*
X196913Y123347D01*
X197758Y123515D01*
X198475Y123994D01*
X198953Y124710D01*
X199121Y125555D01*
X198953Y126400D01*
X198475Y127116D01*
X197758Y127595D01*
X196913Y127763D01*
X196069Y127595D01*
X195421Y127162D01*
X194921Y127302D01*
Y144548D01*
X207913D01*
X208681Y144701D01*
X209333Y145136D01*
X209768Y145787D01*
X209920Y146555D01*
Y151536D01*
X224016D01*
X224620Y151656D01*
X225053Y151365D01*
D02*
G37*
G36*
X67573D02*
X67613Y150938D01*
X64581Y147906D01*
X64038Y148071D01*
X63973Y148400D01*
X63494Y149116D01*
X62778Y149595D01*
X61933Y149763D01*
X61088Y149595D01*
X60372Y149116D01*
X59893Y148400D01*
X59725Y147555D01*
X59893Y146710D01*
X60372Y145994D01*
X61088Y145515D01*
X61418Y145450D01*
X61582Y144907D01*
X60434Y143759D01*
X56433D01*
X56433Y143759D01*
X55972Y143668D01*
X55581Y143407D01*
X50081Y137907D01*
X49821Y137516D01*
X49729Y137055D01*
X49729Y137055D01*
Y132855D01*
X49372Y132616D01*
X48893Y131900D01*
X48725Y131055D01*
X48893Y130210D01*
X49111Y129885D01*
Y114394D01*
X47963Y113247D01*
X47568Y112656D01*
X47429Y111959D01*
X47430Y111959D01*
Y108129D01*
X38644Y99344D01*
X38249Y98752D01*
X38111Y98055D01*
X38111Y98055D01*
Y84400D01*
X37940Y84219D01*
X37440Y84418D01*
Y123809D01*
X37940Y123948D01*
X38588Y123515D01*
X39433Y123347D01*
X40278Y123515D01*
X40994Y123994D01*
X41473Y124710D01*
X41641Y125555D01*
X41473Y126400D01*
X40994Y127116D01*
X40278Y127595D01*
X39433Y127763D01*
X38588Y127595D01*
X37940Y127162D01*
X37440Y127302D01*
Y144548D01*
X50433D01*
X51201Y144701D01*
X51852Y145136D01*
X52287Y145787D01*
X52440Y146555D01*
Y151536D01*
X66535D01*
X67139Y151656D01*
X67573Y151365D01*
D02*
G37*
G36*
X292772Y145993D02*
Y140418D01*
X292415Y140179D01*
X291937Y139463D01*
X291769Y138618D01*
X291937Y137773D01*
X292195Y137387D01*
X291927Y136887D01*
X290913D01*
X290021Y136710D01*
X289264Y136204D01*
X288176Y135116D01*
X288069Y135095D01*
X287352Y134616D01*
X286874Y133900D01*
X286852Y133792D01*
X284413Y131353D01*
X279610Y136157D01*
X278853Y136663D01*
X277961Y136840D01*
X267461D01*
X266568Y136663D01*
X265811Y136157D01*
X265386Y135521D01*
X264953Y135710D01*
X265020Y136049D01*
X265121Y136555D01*
X264953Y137400D01*
X264475Y138116D01*
X263758Y138595D01*
X262913Y138763D01*
X262069Y138595D01*
X261352Y138116D01*
X260874Y137400D01*
X260706Y136555D01*
X260874Y135710D01*
X261352Y134994D01*
X262069Y134515D01*
X262913Y134347D01*
X263758Y134515D01*
X264475Y134994D01*
X264873Y135590D01*
X265306Y135400D01*
X265239Y135062D01*
X265128Y134508D01*
X265306Y133615D01*
X265811Y132859D01*
X266568Y132353D01*
X267461Y132176D01*
X276995D01*
X282081Y127089D01*
Y109521D01*
X274430Y101870D01*
X273924Y101113D01*
X273746Y100221D01*
Y95887D01*
X236220D01*
Y112861D01*
X236453Y113210D01*
X236621Y114055D01*
X236453Y114900D01*
X235975Y115616D01*
X235258Y116095D01*
X234413Y116263D01*
X233569Y116095D01*
X232852Y115616D01*
X232374Y114900D01*
X232206Y114055D01*
X232374Y113210D01*
X232607Y112861D01*
Y95887D01*
X221720D01*
Y113861D01*
X221953Y114210D01*
X222121Y115055D01*
X221953Y115900D01*
X221475Y116616D01*
X220758Y117095D01*
X219913Y117263D01*
X219069Y117095D01*
X218352Y116616D01*
X217874Y115900D01*
X217706Y115055D01*
X217874Y114210D01*
X218107Y113861D01*
Y95887D01*
X214505D01*
X214237Y96387D01*
X214453Y96710D01*
X214621Y97555D01*
X214453Y98400D01*
X213974Y99116D01*
X213618Y99355D01*
Y102555D01*
X213618Y102555D01*
X213526Y103016D01*
X213265Y103407D01*
X213265Y103407D01*
X210118Y106554D01*
Y108049D01*
X210618Y108317D01*
X211069Y108015D01*
X211913Y107847D01*
X212758Y108015D01*
X213474Y108494D01*
X213953Y109210D01*
X214121Y110055D01*
X213953Y110900D01*
X213474Y111616D01*
X212758Y112095D01*
X212429Y112160D01*
X212264Y112703D01*
X219912Y120351D01*
X225413D01*
X225413Y120351D01*
X225874Y120443D01*
X226265Y120704D01*
X228521Y122959D01*
X228521Y122959D01*
X228782Y123350D01*
X228873Y123811D01*
Y125511D01*
X229230Y125750D01*
X229709Y126466D01*
X229877Y127311D01*
X229709Y128156D01*
X229337Y128713D01*
X229528Y129152D01*
X229932Y129182D01*
X230255Y128805D01*
X230206Y128555D01*
X230374Y127710D01*
X230852Y126994D01*
X231569Y126515D01*
X232413Y126347D01*
X233258Y126515D01*
X233975Y126994D01*
X234453Y127710D01*
X234621Y128555D01*
X234453Y129400D01*
X234236Y129725D01*
Y143885D01*
X234453Y144210D01*
X234529Y144594D01*
X236668Y146733D01*
X238712D01*
X238762Y146233D01*
X238593Y146199D01*
X238069Y146095D01*
X237352Y145616D01*
X236874Y144900D01*
X236706Y144055D01*
X236874Y143210D01*
X237352Y142494D01*
X237609Y142323D01*
Y139055D01*
X237708Y138556D01*
X237991Y138133D01*
X241109Y135015D01*
Y128595D01*
X225991Y113478D01*
X225708Y113054D01*
X225609Y112555D01*
Y106288D01*
X225352Y106116D01*
X224874Y105400D01*
X224706Y104555D01*
X224874Y103710D01*
X225352Y102994D01*
X226068Y102515D01*
X226913Y102347D01*
X227758Y102515D01*
X228474Y102994D01*
X228953Y103710D01*
X229121Y104555D01*
X228953Y105400D01*
X228474Y106116D01*
X228218Y106288D01*
Y112015D01*
X243336Y127133D01*
X243619Y127556D01*
X243718Y128055D01*
Y135555D01*
X243619Y136054D01*
X243336Y136478D01*
X240218Y139595D01*
Y142323D01*
X240475Y142494D01*
X240953Y143210D01*
X241121Y144055D01*
X240953Y144900D01*
X240475Y145616D01*
X239758Y146095D01*
X239234Y146199D01*
X239065Y146233D01*
X239114Y146733D01*
X253850D01*
X254117Y146233D01*
X253937Y145963D01*
X253769Y145118D01*
X253937Y144273D01*
X254415Y143557D01*
X254672Y143386D01*
Y140658D01*
X253491Y139478D01*
X253208Y139054D01*
X253109Y138555D01*
Y110096D01*
X251714Y108701D01*
X251326Y109019D01*
X251453Y109210D01*
X251621Y110055D01*
X251453Y110900D01*
X250974Y111616D01*
X250258Y112095D01*
X249413Y112263D01*
X248569Y112095D01*
X247852Y111616D01*
X247374Y110900D01*
X247206Y110055D01*
X247374Y109210D01*
X247852Y108494D01*
X248569Y108015D01*
X249413Y107847D01*
X250258Y108015D01*
X250449Y108143D01*
X250768Y107755D01*
X245216Y102203D01*
X244913Y102263D01*
X244069Y102095D01*
X243352Y101616D01*
X242874Y100900D01*
X242706Y100055D01*
X242874Y99210D01*
X243352Y98494D01*
X244069Y98015D01*
X244913Y97847D01*
X245758Y98015D01*
X246475Y98494D01*
X246953Y99210D01*
X247121Y100055D01*
X247061Y100358D01*
X255336Y108633D01*
X255619Y109056D01*
X255718Y109555D01*
Y134043D01*
X256218Y134195D01*
X256352Y133994D01*
X257068Y133515D01*
X257913Y133347D01*
X258758Y133515D01*
X259474Y133994D01*
X259953Y134710D01*
X260121Y135555D01*
X259953Y136400D01*
X259474Y137116D01*
X258758Y137595D01*
X257913Y137763D01*
X257068Y137595D01*
X256352Y137116D01*
X256218Y136915D01*
X255718Y137067D01*
Y138015D01*
X256899Y139196D01*
X257182Y139619D01*
X257281Y140118D01*
Y143386D01*
X257538Y143557D01*
X258016Y144273D01*
X258184Y145118D01*
X258016Y145963D01*
X257836Y146233D01*
X258103Y146733D01*
X258659D01*
X259091Y146300D01*
Y146225D01*
X258874Y145900D01*
X258706Y145055D01*
X258874Y144210D01*
X259352Y143494D01*
X260068Y143015D01*
X260913Y142847D01*
X261758Y143015D01*
X262474Y143494D01*
X262953Y144210D01*
X263121Y145055D01*
X262953Y145900D01*
X262736Y146225D01*
Y147055D01*
X262736Y147055D01*
X262597Y147752D01*
X262202Y148344D01*
X261069Y149477D01*
X261276Y149977D01*
X288789D01*
X292772Y145993D01*
D02*
G37*
G36*
X135292D02*
Y140418D01*
X134935Y140179D01*
X134456Y139463D01*
X134288Y138618D01*
X134456Y137773D01*
X134714Y137387D01*
X134447Y136887D01*
X133433D01*
X132541Y136710D01*
X131784Y136204D01*
X130696Y135116D01*
X130588Y135095D01*
X129872Y134616D01*
X129393Y133900D01*
X129372Y133792D01*
X126933Y131353D01*
X122129Y136157D01*
X121373Y136663D01*
X120480Y136840D01*
X109980D01*
X109088Y136663D01*
X108331Y136157D01*
X107906Y135521D01*
X107473Y135710D01*
X107540Y136049D01*
X107641Y136555D01*
X107473Y137400D01*
X106994Y138116D01*
X106278Y138595D01*
X105433Y138763D01*
X104588Y138595D01*
X103872Y138116D01*
X103393Y137400D01*
X103225Y136555D01*
X103393Y135710D01*
X103872Y134994D01*
X104588Y134515D01*
X105433Y134347D01*
X106278Y134515D01*
X106994Y134994D01*
X107392Y135590D01*
X107826Y135400D01*
X107758Y135062D01*
X107648Y134508D01*
X107826Y133615D01*
X108331Y132859D01*
X109088Y132353D01*
X109980Y132176D01*
X119514D01*
X124601Y127089D01*
Y109521D01*
X116949Y101870D01*
X116444Y101113D01*
X116266Y100221D01*
Y95887D01*
X78739D01*
Y112861D01*
X78973Y113210D01*
X79141Y114055D01*
X78973Y114900D01*
X78494Y115616D01*
X77778Y116095D01*
X76933Y116263D01*
X76088Y116095D01*
X75372Y115616D01*
X74893Y114900D01*
X74725Y114055D01*
X74893Y113210D01*
X75127Y112861D01*
Y95887D01*
X64239D01*
Y113861D01*
X64473Y114210D01*
X64641Y115055D01*
X64473Y115900D01*
X63994Y116616D01*
X63278Y117095D01*
X62433Y117263D01*
X61588Y117095D01*
X60872Y116616D01*
X60393Y115900D01*
X60225Y115055D01*
X60393Y114210D01*
X60627Y113861D01*
Y95887D01*
X57024D01*
X56757Y96387D01*
X56973Y96710D01*
X57141Y97555D01*
X56973Y98400D01*
X56494Y99116D01*
X56137Y99355D01*
Y102555D01*
X56137Y102555D01*
X56046Y103016D01*
X55785Y103407D01*
X55785Y103407D01*
X52637Y106554D01*
Y108049D01*
X53137Y108317D01*
X53588Y108015D01*
X54433Y107847D01*
X55278Y108015D01*
X55994Y108494D01*
X56473Y109210D01*
X56641Y110055D01*
X56473Y110900D01*
X55994Y111616D01*
X55278Y112095D01*
X54949Y112160D01*
X54784Y112703D01*
X62432Y120351D01*
X67933D01*
X67933Y120351D01*
X68394Y120443D01*
X68785Y120704D01*
X71040Y122959D01*
X71040Y122959D01*
X71302Y123350D01*
X71393Y123811D01*
Y125511D01*
X71750Y125750D01*
X72229Y126466D01*
X72397Y127311D01*
X72229Y128156D01*
X71857Y128713D01*
X72048Y129152D01*
X72452Y129182D01*
X72775Y128805D01*
X72725Y128555D01*
X72893Y127710D01*
X73372Y126994D01*
X74088Y126515D01*
X74933Y126347D01*
X75778Y126515D01*
X76494Y126994D01*
X76973Y127710D01*
X77141Y128555D01*
X76973Y129400D01*
X76755Y129725D01*
Y143885D01*
X76973Y144210D01*
X77049Y144594D01*
X79188Y146733D01*
X81232D01*
X81281Y146233D01*
X81112Y146199D01*
X80588Y146095D01*
X79872Y145616D01*
X79393Y144900D01*
X79225Y144055D01*
X79393Y143210D01*
X79872Y142494D01*
X80129Y142323D01*
Y139055D01*
X80228Y138556D01*
X80511Y138133D01*
X83628Y135015D01*
Y128595D01*
X68511Y113478D01*
X68228Y113054D01*
X68129Y112555D01*
Y106288D01*
X67872Y106116D01*
X67393Y105400D01*
X67225Y104555D01*
X67393Y103710D01*
X67872Y102994D01*
X68588Y102515D01*
X69433Y102347D01*
X70278Y102515D01*
X70994Y102994D01*
X71473Y103710D01*
X71641Y104555D01*
X71473Y105400D01*
X70994Y106116D01*
X70738Y106288D01*
Y112015D01*
X85856Y127133D01*
X86138Y127556D01*
X86238Y128055D01*
Y135555D01*
X86138Y136054D01*
X85856Y136478D01*
X82738Y139595D01*
Y142323D01*
X82994Y142494D01*
X83473Y143210D01*
X83641Y144055D01*
X83473Y144900D01*
X82994Y145616D01*
X82278Y146095D01*
X81754Y146199D01*
X81585Y146233D01*
X81634Y146733D01*
X96369D01*
X96637Y146233D01*
X96456Y145963D01*
X96288Y145118D01*
X96456Y144273D01*
X96935Y143557D01*
X97192Y143386D01*
Y140658D01*
X96011Y139478D01*
X95728Y139054D01*
X95628Y138555D01*
Y110096D01*
X94234Y108701D01*
X93845Y109019D01*
X93973Y109210D01*
X94141Y110055D01*
X93973Y110900D01*
X93494Y111616D01*
X92778Y112095D01*
X91933Y112263D01*
X91088Y112095D01*
X90372Y111616D01*
X89893Y110900D01*
X89725Y110055D01*
X89893Y109210D01*
X90372Y108494D01*
X91088Y108015D01*
X91933Y107847D01*
X92778Y108015D01*
X92969Y108143D01*
X93287Y107755D01*
X87736Y102203D01*
X87433Y102263D01*
X86588Y102095D01*
X85872Y101616D01*
X85393Y100900D01*
X85225Y100055D01*
X85393Y99210D01*
X85872Y98494D01*
X86588Y98015D01*
X87433Y97847D01*
X88278Y98015D01*
X88994Y98494D01*
X89473Y99210D01*
X89641Y100055D01*
X89581Y100358D01*
X97856Y108633D01*
X98138Y109056D01*
X98238Y109555D01*
Y134043D01*
X98738Y134195D01*
X98872Y133994D01*
X99588Y133515D01*
X100433Y133347D01*
X101278Y133515D01*
X101994Y133994D01*
X102473Y134710D01*
X102641Y135555D01*
X102473Y136400D01*
X101994Y137116D01*
X101278Y137595D01*
X100433Y137763D01*
X99588Y137595D01*
X98872Y137116D01*
X98738Y136915D01*
X98238Y137067D01*
Y138015D01*
X99418Y139196D01*
X99701Y139619D01*
X99801Y140118D01*
Y143386D01*
X100057Y143557D01*
X100536Y144273D01*
X100704Y145118D01*
X100536Y145963D01*
X100356Y146233D01*
X100623Y146733D01*
X101178D01*
X101611Y146300D01*
Y146225D01*
X101393Y145900D01*
X101225Y145055D01*
X101393Y144210D01*
X101872Y143494D01*
X102588Y143015D01*
X103433Y142847D01*
X104278Y143015D01*
X104994Y143494D01*
X105473Y144210D01*
X105641Y145055D01*
X105473Y145900D01*
X105255Y146225D01*
Y147055D01*
X105255Y147055D01*
X105117Y147752D01*
X104722Y148344D01*
X103589Y149477D01*
X103796Y149977D01*
X131308D01*
X135292Y145993D01*
D02*
G37*
G36*
X228740Y151536D02*
X230538D01*
X230730Y151074D01*
X227562Y147907D01*
X227301Y147516D01*
X227209Y147055D01*
X227209Y147055D01*
Y139054D01*
X223883Y135728D01*
X213744D01*
X213506Y136085D01*
X212790Y136563D01*
X211945Y136731D01*
X211100Y136563D01*
X210384Y136085D01*
X210118Y135686D01*
X209618Y135838D01*
Y136556D01*
X214412Y141351D01*
X218413D01*
X218413Y141351D01*
X218874Y141443D01*
X219265Y141704D01*
X227229Y149668D01*
X227229Y149668D01*
X227490Y150059D01*
X227582Y150520D01*
Y151394D01*
X228082Y151667D01*
X228740Y151536D01*
D02*
G37*
G36*
X71260D02*
X73058D01*
X73249Y151074D01*
X70082Y147907D01*
X69820Y147516D01*
X69729Y147055D01*
X69729Y147055D01*
Y139054D01*
X66403Y135728D01*
X56264D01*
X56026Y136085D01*
X55309Y136563D01*
X54465Y136731D01*
X53620Y136563D01*
X52903Y136085D01*
X52637Y135686D01*
X52137Y135838D01*
Y136556D01*
X56932Y141351D01*
X60933D01*
X60933Y141351D01*
X61394Y141443D01*
X61785Y141704D01*
X69749Y149668D01*
X69749Y149668D01*
X70010Y150059D01*
X70102Y150520D01*
Y151394D01*
X70602Y151667D01*
X71260Y151536D01*
D02*
G37*
G36*
X226015Y128733D02*
X225630Y128156D01*
X225462Y127311D01*
X225630Y126466D01*
X226108Y125750D01*
X226465Y125511D01*
Y124310D01*
X224915Y122759D01*
X219413D01*
X218952Y122668D01*
X218562Y122407D01*
X218562Y122407D01*
X210698Y114542D01*
X210236Y114734D01*
Y125017D01*
X210736Y125168D01*
X210852Y124994D01*
X211568Y124515D01*
X212413Y124347D01*
X213258Y124515D01*
X213974Y124994D01*
X214453Y125710D01*
X214621Y126555D01*
X214453Y127400D01*
X213974Y128116D01*
X213258Y128595D01*
X212565Y128733D01*
X212614Y129233D01*
X225816D01*
X226015Y128733D01*
D02*
G37*
G36*
X68535D02*
X68149Y128156D01*
X67981Y127311D01*
X68149Y126466D01*
X68628Y125750D01*
X68985Y125511D01*
Y124310D01*
X67434Y122759D01*
X61933D01*
X61472Y122668D01*
X61081Y122407D01*
X61081Y122407D01*
X53217Y114542D01*
X52755Y114734D01*
Y125017D01*
X53255Y125168D01*
X53372Y124994D01*
X54088Y124515D01*
X54933Y124347D01*
X55778Y124515D01*
X56494Y124994D01*
X56973Y125710D01*
X57141Y126555D01*
X56973Y127400D01*
X56494Y128116D01*
X55778Y128595D01*
X55085Y128733D01*
X55134Y129233D01*
X68336D01*
X68535Y128733D01*
D02*
G37*
G36*
X287374Y117710D02*
X287852Y116994D01*
X288568Y116515D01*
X289413Y116347D01*
X289603Y116385D01*
X289798Y115914D01*
X289352Y115616D01*
X288874Y114900D01*
X288706Y114055D01*
X288874Y113210D01*
X289352Y112494D01*
X289967Y112083D01*
X290010Y111876D01*
Y111734D01*
X289967Y111527D01*
X289352Y111116D01*
X288874Y110400D01*
X288706Y109555D01*
X288874Y108710D01*
X289352Y107994D01*
X290069Y107515D01*
X290913Y107347D01*
X291758Y107515D01*
X292192Y107805D01*
X292692Y107538D01*
Y75023D01*
X285761Y68092D01*
X260232D01*
X255751Y72573D01*
X255064Y73100D01*
X254264Y73431D01*
X253406Y73544D01*
X251039D01*
X250803Y73985D01*
X250953Y74210D01*
X251121Y75055D01*
X250953Y75900D01*
X250475Y76616D01*
X250192Y76805D01*
Y77305D01*
X250475Y77494D01*
X250953Y78210D01*
X251121Y79055D01*
X250953Y79900D01*
X250475Y80616D01*
X249758Y81095D01*
X248913Y81263D01*
X248068Y81095D01*
X247352Y80616D01*
X246874Y79900D01*
X246706Y79055D01*
X246874Y78210D01*
X247352Y77494D01*
X247635Y77305D01*
Y76805D01*
X247352Y76616D01*
X246874Y75900D01*
X246706Y75055D01*
X246874Y74210D01*
X247024Y73985D01*
X246788Y73544D01*
X226087D01*
X225229Y73431D01*
X224429Y73100D01*
X223742Y72573D01*
X218540Y67371D01*
X207413D01*
X206555Y67258D01*
X205755Y66927D01*
X205069Y66400D01*
X204542Y65713D01*
X204211Y64913D01*
X204098Y64055D01*
X204211Y63197D01*
X204542Y62397D01*
X205069Y61711D01*
X205262Y61562D01*
X205092Y61062D01*
X194921D01*
Y82057D01*
X195134Y82129D01*
X195421Y82140D01*
X195852Y81494D01*
X196569Y81015D01*
X197413Y80847D01*
X198258Y81015D01*
X198975Y81494D01*
X199453Y82210D01*
X199621Y83055D01*
X199453Y83900D01*
X199236Y84225D01*
Y91324D01*
X199736Y91591D01*
X200021Y91400D01*
X200913Y91223D01*
X208360D01*
X208512Y90723D01*
X208352Y90616D01*
X207874Y89900D01*
X207706Y89055D01*
X207874Y88210D01*
X208352Y87494D01*
X209068Y87015D01*
X209913Y86847D01*
X210758Y87015D01*
X211474Y87494D01*
X211953Y88210D01*
X212121Y89055D01*
X211953Y89900D01*
X211474Y90616D01*
X211315Y90723D01*
X211467Y91223D01*
X270322D01*
X270589Y90723D01*
X270374Y90400D01*
X270206Y89555D01*
X270374Y88710D01*
X270852Y87994D01*
X271568Y87515D01*
X272413Y87347D01*
X273247Y87513D01*
X273337Y87529D01*
X273746Y87242D01*
Y77187D01*
X273172Y76612D01*
X268689D01*
X267796Y76434D01*
X267040Y75929D01*
X266534Y75172D01*
X266357Y74279D01*
X266534Y73387D01*
X267040Y72630D01*
X267796Y72125D01*
X268689Y71947D01*
X274138D01*
X275030Y72125D01*
X275787Y72630D01*
X277728Y74571D01*
X278233Y75328D01*
X278411Y76221D01*
Y99254D01*
X286063Y106906D01*
X286568Y107663D01*
X286746Y108555D01*
Y118305D01*
X287246Y118354D01*
X287374Y117710D01*
D02*
G37*
G36*
X129893D02*
X130372Y116994D01*
X131088Y116515D01*
X131933Y116347D01*
X132123Y116385D01*
X132318Y115914D01*
X131872Y115616D01*
X131393Y114900D01*
X131225Y114055D01*
X131393Y113210D01*
X131872Y112494D01*
X132487Y112083D01*
X132530Y111876D01*
Y111734D01*
X132487Y111527D01*
X131872Y111116D01*
X131393Y110400D01*
X131225Y109555D01*
X131393Y108710D01*
X131872Y107994D01*
X132588Y107515D01*
X133433Y107347D01*
X134278Y107515D01*
X134712Y107805D01*
X135212Y107538D01*
Y75023D01*
X128280Y68092D01*
X102752D01*
X98270Y72573D01*
X97584Y73100D01*
X96784Y73431D01*
X95926Y73544D01*
X93558D01*
X93322Y73985D01*
X93473Y74210D01*
X93641Y75055D01*
X93473Y75900D01*
X92994Y76616D01*
X92712Y76805D01*
Y77305D01*
X92994Y77494D01*
X93473Y78210D01*
X93641Y79055D01*
X93473Y79900D01*
X92994Y80616D01*
X92278Y81095D01*
X91433Y81263D01*
X90588Y81095D01*
X89872Y80616D01*
X89393Y79900D01*
X89225Y79055D01*
X89393Y78210D01*
X89872Y77494D01*
X90155Y77305D01*
Y76805D01*
X89872Y76616D01*
X89393Y75900D01*
X89225Y75055D01*
X89393Y74210D01*
X89544Y73985D01*
X89308Y73544D01*
X68607D01*
X67748Y73431D01*
X66949Y73100D01*
X66262Y72573D01*
X61060Y67371D01*
X49933D01*
X49075Y67258D01*
X48275Y66927D01*
X47589Y66400D01*
X47061Y65713D01*
X46730Y64913D01*
X46617Y64055D01*
X46730Y63197D01*
X47061Y62397D01*
X47589Y61711D01*
X47782Y61562D01*
X47612Y61062D01*
X37440D01*
Y82057D01*
X37653Y82129D01*
X37940Y82140D01*
X38372Y81494D01*
X39088Y81015D01*
X39933Y80847D01*
X40778Y81015D01*
X41494Y81494D01*
X41973Y82210D01*
X42141Y83055D01*
X41973Y83900D01*
X41756Y84225D01*
Y91324D01*
X42255Y91591D01*
X42541Y91400D01*
X43433Y91223D01*
X50880D01*
X51032Y90723D01*
X50872Y90616D01*
X50393Y89900D01*
X50225Y89055D01*
X50393Y88210D01*
X50872Y87494D01*
X51588Y87015D01*
X52433Y86847D01*
X53278Y87015D01*
X53994Y87494D01*
X54473Y88210D01*
X54641Y89055D01*
X54473Y89900D01*
X53994Y90616D01*
X53835Y90723D01*
X53986Y91223D01*
X112842D01*
X113109Y90723D01*
X112893Y90400D01*
X112725Y89555D01*
X112893Y88710D01*
X113372Y87994D01*
X114088Y87515D01*
X114933Y87347D01*
X115766Y87513D01*
X115857Y87529D01*
X116266Y87242D01*
Y77187D01*
X115691Y76612D01*
X111209D01*
X110316Y76434D01*
X109560Y75929D01*
X109054Y75172D01*
X108876Y74279D01*
X109054Y73387D01*
X109560Y72630D01*
X110316Y72125D01*
X111209Y71947D01*
X116657D01*
X117550Y72125D01*
X118307Y72630D01*
X120248Y74571D01*
X120753Y75328D01*
X120931Y76221D01*
Y99254D01*
X128582Y106906D01*
X129088Y107663D01*
X129265Y108555D01*
Y118305D01*
X129765Y118354D01*
X129893Y117710D01*
D02*
G37*
G36*
X246550Y66413D02*
X246437Y66265D01*
X246140Y65547D01*
X246038Y64776D01*
X246140Y64005D01*
X246437Y63287D01*
X246910Y62670D01*
X247527Y62197D01*
X248245Y61899D01*
X249016Y61798D01*
X249787Y61899D01*
X250505Y62197D01*
X251122Y62670D01*
X251595Y63287D01*
X251893Y64005D01*
X251994Y64776D01*
X251893Y65547D01*
X251614Y66219D01*
X251691Y66428D01*
X251864Y66726D01*
X252182Y66764D01*
X256514Y62431D01*
X257201Y61904D01*
X258001Y61573D01*
X258083Y61562D01*
X258050Y61062D01*
X222234D01*
X222065Y61562D01*
X222258Y61711D01*
X227460Y66913D01*
X233306D01*
X233527Y66464D01*
X233456Y66372D01*
X233137Y65602D01*
X233094Y65276D01*
X236221D01*
X239348D01*
X239305Y65602D01*
X238986Y66372D01*
X238915Y66464D01*
X239136Y66913D01*
X246304D01*
X246550Y66413D01*
D02*
G37*
G36*
X89070D02*
X88957Y66265D01*
X88659Y65547D01*
X88558Y64776D01*
X88659Y64005D01*
X88957Y63287D01*
X89430Y62670D01*
X90047Y62197D01*
X90765Y61899D01*
X91536Y61798D01*
X92307Y61899D01*
X93025Y62197D01*
X93642Y62670D01*
X94115Y63287D01*
X94413Y64005D01*
X94514Y64776D01*
X94413Y65547D01*
X94134Y66219D01*
X94210Y66428D01*
X94384Y66726D01*
X94701Y66764D01*
X99034Y62431D01*
X99721Y61904D01*
X100520Y61573D01*
X100602Y61562D01*
X100570Y61062D01*
X64754D01*
X64584Y61562D01*
X64778Y61711D01*
X69980Y66913D01*
X75825D01*
X76047Y66464D01*
X75976Y66372D01*
X75657Y65602D01*
X75614Y65276D01*
X78741D01*
X81867D01*
X81824Y65602D01*
X81506Y66372D01*
X81435Y66464D01*
X81656Y66913D01*
X88824D01*
X89070Y66413D01*
D02*
G37*
G36*
X312953Y135827D02*
X313106Y135059D01*
X313541Y134408D01*
X314193Y133973D01*
X314961Y133820D01*
X320040D01*
Y106338D01*
X314961D01*
X314193Y106185D01*
X313541Y105750D01*
X313106Y105099D01*
X312953Y104331D01*
Y61062D01*
X287943D01*
X287910Y61562D01*
X287992Y61573D01*
X288792Y61904D01*
X289479Y62431D01*
X298353Y71305D01*
X298879Y71992D01*
X299211Y72791D01*
X299324Y73650D01*
Y114961D01*
X299211Y115819D01*
X298879Y116619D01*
X298353Y117305D01*
X297666Y117832D01*
X296866Y118163D01*
X296008Y118276D01*
X295150Y118163D01*
X294350Y117832D01*
X293663Y117305D01*
X293136Y116619D01*
X292848Y115922D01*
X292807Y115889D01*
X292521Y115775D01*
X292290Y115739D01*
X291758Y116095D01*
X290913Y116263D01*
X290724Y116225D01*
X290529Y116696D01*
X290974Y116994D01*
X291453Y117710D01*
X291621Y118555D01*
X291453Y119400D01*
X290974Y120116D01*
X290258Y120595D01*
X289413Y120763D01*
X288568Y120595D01*
X287852Y120116D01*
X287374Y119400D01*
X287246Y118756D01*
X286746Y118805D01*
Y127089D01*
X291879Y132223D01*
X298413D01*
X299306Y132400D01*
X300062Y132906D01*
X303562Y136406D01*
X304068Y137163D01*
X304246Y138055D01*
Y147555D01*
X304068Y148448D01*
X303562Y149204D01*
X302806Y149710D01*
X301913Y149887D01*
X301021Y149710D01*
X300264Y149204D01*
X299759Y148448D01*
X299581Y147555D01*
Y139021D01*
X297447Y136887D01*
X296025D01*
X295758Y137387D01*
X296016Y137773D01*
X296184Y138618D01*
X296016Y139463D01*
X295537Y140179D01*
X295181Y140418D01*
Y146492D01*
X295181Y146492D01*
X295089Y146953D01*
X294828Y147344D01*
X291097Y151074D01*
X291289Y151536D01*
X312953D01*
Y135827D01*
D02*
G37*
G36*
X155473D02*
X155626Y135059D01*
X156061Y134408D01*
X156712Y133973D01*
X157480Y133820D01*
X162560D01*
Y106338D01*
X157480D01*
X156712Y106185D01*
X156061Y105750D01*
X155626Y105099D01*
X155473Y104331D01*
Y61062D01*
X130463D01*
X130430Y61562D01*
X130512Y61573D01*
X131312Y61904D01*
X131998Y62431D01*
X140872Y71305D01*
X141399Y71992D01*
X141730Y72791D01*
X141843Y73650D01*
Y114961D01*
X141730Y115819D01*
X141399Y116619D01*
X140872Y117305D01*
X140185Y117832D01*
X139386Y118163D01*
X138528Y118276D01*
X137669Y118163D01*
X136870Y117832D01*
X136183Y117305D01*
X135656Y116619D01*
X135368Y115922D01*
X135327Y115889D01*
X135041Y115775D01*
X134810Y115739D01*
X134278Y116095D01*
X133433Y116263D01*
X133244Y116225D01*
X133048Y116696D01*
X133494Y116994D01*
X133973Y117710D01*
X134141Y118555D01*
X133973Y119400D01*
X133494Y120116D01*
X132778Y120595D01*
X131933Y120763D01*
X131088Y120595D01*
X130372Y120116D01*
X129893Y119400D01*
X129765Y118756D01*
X129265Y118805D01*
Y127089D01*
X134399Y132223D01*
X140933D01*
X141826Y132400D01*
X142582Y132906D01*
X146082Y136406D01*
X146588Y137163D01*
X146765Y138055D01*
Y147555D01*
X146588Y148448D01*
X146082Y149204D01*
X145326Y149710D01*
X144433Y149887D01*
X143541Y149710D01*
X142784Y149204D01*
X142278Y148448D01*
X142101Y147555D01*
Y139021D01*
X139967Y136887D01*
X138545D01*
X138278Y137387D01*
X138536Y137773D01*
X138704Y138618D01*
X138536Y139463D01*
X138057Y140179D01*
X137700Y140418D01*
Y146492D01*
X137700Y146492D01*
X137609Y146953D01*
X137348Y147344D01*
X133617Y151074D01*
X133808Y151536D01*
X155473D01*
Y135827D01*
D02*
G37*
%LPC*%
G36*
X202551Y467708D02*
X201706Y467540D01*
X200990Y467061D01*
X200512Y466345D01*
X200343Y465500D01*
X200512Y464655D01*
X200990Y463939D01*
X201706Y463460D01*
X202551Y463292D01*
X203396Y463460D01*
X204112Y463939D01*
X204591Y464655D01*
X204759Y465500D01*
X204591Y466345D01*
X204112Y467061D01*
X203396Y467540D01*
X202551Y467708D01*
D02*
G37*
G36*
X45071D02*
X44226Y467540D01*
X43510Y467061D01*
X43031Y466345D01*
X42863Y465500D01*
X43031Y464655D01*
X43510Y463939D01*
X44226Y463460D01*
X45071Y463292D01*
X45916Y463460D01*
X46632Y463939D01*
X47111Y464655D01*
X47279Y465500D01*
X47111Y466345D01*
X46632Y467061D01*
X45916Y467540D01*
X45071Y467708D01*
D02*
G37*
G36*
X278913Y480846D02*
X278068Y480678D01*
X277352Y480199D01*
X276874Y479483D01*
X276706Y478638D01*
X276874Y477793D01*
X277352Y477077D01*
X278068Y476598D01*
X278913Y476430D01*
X279758Y476598D01*
X280474Y477077D01*
X280953Y477793D01*
X281121Y478638D01*
X280953Y479483D01*
X280474Y480199D01*
X279758Y480678D01*
X278913Y480846D01*
D02*
G37*
G36*
X286102Y479535D02*
X285258Y479366D01*
X284541Y478888D01*
X284063Y478172D01*
X283895Y477327D01*
X284063Y476482D01*
X284541Y475766D01*
X285258Y475287D01*
X286102Y475119D01*
X286947Y475287D01*
X287664Y475766D01*
X288142Y476482D01*
X288310Y477327D01*
X288142Y478172D01*
X287664Y478888D01*
X286947Y479366D01*
X286102Y479535D01*
D02*
G37*
G36*
X243913Y447846D02*
X243069Y447678D01*
X242352Y447199D01*
X241874Y446483D01*
X241706Y445638D01*
X241874Y444793D01*
X242352Y444077D01*
X243069Y443598D01*
X243913Y443430D01*
X244758Y443598D01*
X245475Y444077D01*
X245953Y444793D01*
X246121Y445638D01*
X245953Y446483D01*
X245475Y447199D01*
X244758Y447678D01*
X243913Y447846D01*
D02*
G37*
G36*
X121433Y480846D02*
X120588Y480678D01*
X119872Y480199D01*
X119393Y479483D01*
X119225Y478638D01*
X119393Y477793D01*
X119872Y477077D01*
X120588Y476598D01*
X121433Y476430D01*
X122278Y476598D01*
X122994Y477077D01*
X123473Y477793D01*
X123641Y478638D01*
X123473Y479483D01*
X122994Y480199D01*
X122278Y480678D01*
X121433Y480846D01*
D02*
G37*
G36*
X128622Y479535D02*
X127777Y479366D01*
X127061Y478888D01*
X126582Y478172D01*
X126414Y477327D01*
X126582Y476482D01*
X127061Y475766D01*
X127777Y475287D01*
X128622Y475119D01*
X129467Y475287D01*
X130183Y475766D01*
X130662Y476482D01*
X130830Y477327D01*
X130662Y478172D01*
X130183Y478888D01*
X129467Y479366D01*
X128622Y479535D01*
D02*
G37*
G36*
X86433Y447846D02*
X85588Y447678D01*
X84872Y447199D01*
X84393Y446483D01*
X84225Y445638D01*
X84393Y444793D01*
X84872Y444077D01*
X85588Y443598D01*
X86433Y443430D01*
X87278Y443598D01*
X87994Y444077D01*
X88473Y444793D01*
X88641Y445638D01*
X88473Y446483D01*
X87994Y447199D01*
X87278Y447678D01*
X86433Y447846D01*
D02*
G37*
G36*
X217413Y479346D02*
X216568Y479178D01*
X215852Y478699D01*
X215374Y477983D01*
X215206Y477138D01*
X215374Y476293D01*
X215852Y475577D01*
X216568Y475098D01*
X217413Y474930D01*
X218258Y475098D01*
X218974Y475577D01*
X219453Y476293D01*
X219621Y477138D01*
X219453Y477983D01*
X218974Y478699D01*
X218258Y479178D01*
X217413Y479346D01*
D02*
G37*
G36*
X59933D02*
X59088Y479178D01*
X58372Y478699D01*
X57893Y477983D01*
X57725Y477138D01*
X57893Y476293D01*
X58372Y475577D01*
X59088Y475098D01*
X59933Y474930D01*
X60778Y475098D01*
X61494Y475577D01*
X61973Y476293D01*
X62141Y477138D01*
X61973Y477983D01*
X61494Y478699D01*
X60778Y479178D01*
X59933Y479346D01*
D02*
G37*
G36*
X221413Y466846D02*
X220568Y466678D01*
X219852Y466199D01*
X219374Y465483D01*
X219206Y464638D01*
X219374Y463793D01*
X219852Y463077D01*
X220568Y462598D01*
X221413Y462430D01*
X222258Y462598D01*
X222974Y463077D01*
X223453Y463793D01*
X223621Y464638D01*
X223453Y465483D01*
X222974Y466199D01*
X222258Y466678D01*
X221413Y466846D01*
D02*
G37*
G36*
X63933D02*
X63088Y466678D01*
X62372Y466199D01*
X61893Y465483D01*
X61725Y464638D01*
X61893Y463793D01*
X62372Y463077D01*
X63088Y462598D01*
X63933Y462430D01*
X64778Y462598D01*
X65494Y463077D01*
X65973Y463793D01*
X66141Y464638D01*
X65973Y465483D01*
X65494Y466199D01*
X64778Y466678D01*
X63933Y466846D01*
D02*
G37*
G36*
X288913Y441346D02*
X288069Y441178D01*
X287352Y440699D01*
X286874Y439983D01*
X286706Y439138D01*
X286874Y438293D01*
X287352Y437577D01*
X288069Y437098D01*
X288913Y436930D01*
X289758Y437098D01*
X290475Y437577D01*
X290953Y438293D01*
X291121Y439138D01*
X290953Y439983D01*
X290475Y440699D01*
X289758Y441178D01*
X288913Y441346D01*
D02*
G37*
G36*
X284913Y437346D02*
X284068Y437178D01*
X283352Y436699D01*
X282874Y435983D01*
X282706Y435138D01*
X282874Y434293D01*
X283352Y433577D01*
X284068Y433098D01*
X284913Y432930D01*
X285758Y433098D01*
X286474Y433577D01*
X286953Y434293D01*
X287121Y435138D01*
X286953Y435983D01*
X286474Y436699D01*
X285758Y437178D01*
X284913Y437346D01*
D02*
G37*
G36*
X281913Y432846D02*
X281068Y432678D01*
X280352Y432199D01*
X279874Y431483D01*
X279706Y430638D01*
X279874Y429793D01*
X280352Y429077D01*
X281068Y428598D01*
X281913Y428430D01*
X282758Y428598D01*
X283474Y429077D01*
X283953Y429793D01*
X284121Y430638D01*
X283953Y431483D01*
X283474Y432199D01*
X282758Y432678D01*
X281913Y432846D01*
D02*
G37*
G36*
X216913Y428877D02*
X216069Y428709D01*
X215352Y428230D01*
X214874Y427514D01*
X214706Y426669D01*
X214874Y425824D01*
X215352Y425108D01*
X216069Y424630D01*
X216913Y424462D01*
X217758Y424630D01*
X218475Y425108D01*
X218953Y425824D01*
X219121Y426669D01*
X218953Y427514D01*
X218475Y428230D01*
X217758Y428709D01*
X216913Y428877D01*
D02*
G37*
G36*
X131433Y441346D02*
X130588Y441178D01*
X129872Y440699D01*
X129393Y439983D01*
X129225Y439138D01*
X129393Y438293D01*
X129872Y437577D01*
X130588Y437098D01*
X131433Y436930D01*
X132278Y437098D01*
X132994Y437577D01*
X133473Y438293D01*
X133641Y439138D01*
X133473Y439983D01*
X132994Y440699D01*
X132278Y441178D01*
X131433Y441346D01*
D02*
G37*
G36*
X127433Y437346D02*
X126588Y437178D01*
X125872Y436699D01*
X125393Y435983D01*
X125225Y435138D01*
X125393Y434293D01*
X125872Y433577D01*
X126588Y433098D01*
X127433Y432930D01*
X128278Y433098D01*
X128994Y433577D01*
X129473Y434293D01*
X129641Y435138D01*
X129473Y435983D01*
X128994Y436699D01*
X128278Y437178D01*
X127433Y437346D01*
D02*
G37*
G36*
X124433Y432846D02*
X123588Y432678D01*
X122872Y432199D01*
X122393Y431483D01*
X122225Y430638D01*
X122393Y429793D01*
X122872Y429077D01*
X123588Y428598D01*
X124433Y428430D01*
X125278Y428598D01*
X125994Y429077D01*
X126473Y429793D01*
X126641Y430638D01*
X126473Y431483D01*
X125994Y432199D01*
X125278Y432678D01*
X124433Y432846D01*
D02*
G37*
G36*
X59433Y428877D02*
X58588Y428709D01*
X57872Y428230D01*
X57393Y427514D01*
X57225Y426669D01*
X57393Y425824D01*
X57872Y425108D01*
X58588Y424630D01*
X59433Y424462D01*
X60278Y424630D01*
X60994Y425108D01*
X61473Y425824D01*
X61641Y426669D01*
X61473Y427514D01*
X60994Y428230D01*
X60278Y428709D01*
X59433Y428877D01*
D02*
G37*
G36*
X235721Y402858D02*
X233094D01*
X233137Y402532D01*
X233456Y401762D01*
X233963Y401101D01*
X234625Y400594D01*
X235395Y400275D01*
X235721Y400232D01*
Y402858D01*
D02*
G37*
G36*
X239348D02*
X236721D01*
Y400232D01*
X237047Y400275D01*
X237817Y400594D01*
X238478Y401101D01*
X238986Y401762D01*
X239305Y402532D01*
X239348Y402858D01*
D02*
G37*
G36*
X78241D02*
X75614D01*
X75657Y402532D01*
X75976Y401762D01*
X76483Y401101D01*
X77144Y400594D01*
X77914Y400275D01*
X78241Y400232D01*
Y402858D01*
D02*
G37*
G36*
X81867D02*
X79241D01*
Y400232D01*
X79567Y400275D01*
X80337Y400594D01*
X80998Y401101D01*
X81506Y401762D01*
X81824Y402532D01*
X81867Y402858D01*
D02*
G37*
G36*
X304913Y441346D02*
X304068Y441178D01*
X303352Y440699D01*
X302874Y439983D01*
X302706Y439138D01*
X302874Y438293D01*
X303352Y437577D01*
X304068Y437098D01*
X304913Y436930D01*
X305758Y437098D01*
X306474Y437577D01*
X306953Y438293D01*
X307121Y439138D01*
X306953Y439983D01*
X306474Y440699D01*
X305758Y441178D01*
X304913Y441346D01*
D02*
G37*
G36*
Y419346D02*
X304068Y419177D01*
X303352Y418699D01*
X302874Y417983D01*
X302706Y417138D01*
X302874Y416293D01*
X303352Y415577D01*
X304068Y415098D01*
X304913Y414930D01*
X305758Y415098D01*
X306474Y415577D01*
X306953Y416293D01*
X307121Y417138D01*
X306953Y417983D01*
X306474Y418699D01*
X305758Y419177D01*
X304913Y419346D01*
D02*
G37*
G36*
Y409346D02*
X304068Y409177D01*
X303352Y408699D01*
X302874Y407983D01*
X302706Y407138D01*
X302874Y406293D01*
X303352Y405577D01*
X304068Y405098D01*
X304913Y404930D01*
X305758Y405098D01*
X306474Y405577D01*
X306953Y406293D01*
X307121Y407138D01*
X306953Y407983D01*
X306474Y408699D01*
X305758Y409177D01*
X304913Y409346D01*
D02*
G37*
G36*
X147433Y441346D02*
X146588Y441178D01*
X145872Y440699D01*
X145393Y439983D01*
X145225Y439138D01*
X145393Y438293D01*
X145872Y437577D01*
X146588Y437098D01*
X147433Y436930D01*
X148278Y437098D01*
X148994Y437577D01*
X149473Y438293D01*
X149641Y439138D01*
X149473Y439983D01*
X148994Y440699D01*
X148278Y441178D01*
X147433Y441346D01*
D02*
G37*
G36*
Y419346D02*
X146588Y419177D01*
X145872Y418699D01*
X145393Y417983D01*
X145225Y417138D01*
X145393Y416293D01*
X145872Y415577D01*
X146588Y415098D01*
X147433Y414930D01*
X148278Y415098D01*
X148994Y415577D01*
X149473Y416293D01*
X149641Y417138D01*
X149473Y417983D01*
X148994Y418699D01*
X148278Y419177D01*
X147433Y419346D01*
D02*
G37*
G36*
Y409346D02*
X146588Y409177D01*
X145872Y408699D01*
X145393Y407983D01*
X145225Y407138D01*
X145393Y406293D01*
X145872Y405577D01*
X146588Y405098D01*
X147433Y404930D01*
X148278Y405098D01*
X148994Y405577D01*
X149473Y406293D01*
X149641Y407138D01*
X149473Y407983D01*
X148994Y408699D01*
X148278Y409177D01*
X147433Y409346D01*
D02*
G37*
G36*
X202551Y298416D02*
X201706Y298248D01*
X200990Y297770D01*
X200512Y297054D01*
X200343Y296209D01*
X200512Y295364D01*
X200990Y294648D01*
X201706Y294169D01*
X202551Y294001D01*
X203396Y294169D01*
X204112Y294648D01*
X204591Y295364D01*
X204759Y296209D01*
X204591Y297054D01*
X204112Y297770D01*
X203396Y298248D01*
X202551Y298416D01*
D02*
G37*
G36*
X45071D02*
X44226Y298248D01*
X43510Y297770D01*
X43031Y297054D01*
X42863Y296209D01*
X43031Y295364D01*
X43510Y294648D01*
X44226Y294169D01*
X45071Y294001D01*
X45916Y294169D01*
X46632Y294648D01*
X47111Y295364D01*
X47279Y296209D01*
X47111Y297054D01*
X46632Y297770D01*
X45916Y298248D01*
X45071Y298416D01*
D02*
G37*
G36*
X278913Y311554D02*
X278068Y311386D01*
X277352Y310908D01*
X276874Y310191D01*
X276706Y309347D01*
X276874Y308502D01*
X277352Y307785D01*
X278068Y307307D01*
X278913Y307139D01*
X279758Y307307D01*
X280474Y307785D01*
X280953Y308502D01*
X281121Y309347D01*
X280953Y310191D01*
X280474Y310908D01*
X279758Y311386D01*
X278913Y311554D01*
D02*
G37*
G36*
X286102Y310243D02*
X285258Y310075D01*
X284541Y309597D01*
X284063Y308880D01*
X283895Y308035D01*
X284063Y307191D01*
X284541Y306474D01*
X285258Y305996D01*
X286102Y305828D01*
X286947Y305996D01*
X287664Y306474D01*
X288142Y307191D01*
X288310Y308035D01*
X288142Y308880D01*
X287664Y309597D01*
X286947Y310075D01*
X286102Y310243D01*
D02*
G37*
G36*
X243913Y278554D02*
X243069Y278386D01*
X242352Y277908D01*
X241874Y277191D01*
X241706Y276346D01*
X241874Y275502D01*
X242352Y274785D01*
X243069Y274307D01*
X243913Y274139D01*
X244758Y274307D01*
X245475Y274785D01*
X245953Y275502D01*
X246121Y276346D01*
X245953Y277191D01*
X245475Y277908D01*
X244758Y278386D01*
X243913Y278554D01*
D02*
G37*
G36*
X121433Y311554D02*
X120588Y311386D01*
X119872Y310908D01*
X119393Y310191D01*
X119225Y309347D01*
X119393Y308502D01*
X119872Y307785D01*
X120588Y307307D01*
X121433Y307139D01*
X122278Y307307D01*
X122994Y307785D01*
X123473Y308502D01*
X123641Y309347D01*
X123473Y310191D01*
X122994Y310908D01*
X122278Y311386D01*
X121433Y311554D01*
D02*
G37*
G36*
X128622Y310243D02*
X127777Y310075D01*
X127061Y309597D01*
X126582Y308880D01*
X126414Y308035D01*
X126582Y307191D01*
X127061Y306474D01*
X127777Y305996D01*
X128622Y305828D01*
X129467Y305996D01*
X130183Y306474D01*
X130662Y307191D01*
X130830Y308035D01*
X130662Y308880D01*
X130183Y309597D01*
X129467Y310075D01*
X128622Y310243D01*
D02*
G37*
G36*
X86433Y278554D02*
X85588Y278386D01*
X84872Y277908D01*
X84393Y277191D01*
X84225Y276346D01*
X84393Y275502D01*
X84872Y274785D01*
X85588Y274307D01*
X86433Y274139D01*
X87278Y274307D01*
X87994Y274785D01*
X88473Y275502D01*
X88641Y276346D01*
X88473Y277191D01*
X87994Y277908D01*
X87278Y278386D01*
X86433Y278554D01*
D02*
G37*
G36*
X217413Y310054D02*
X216568Y309886D01*
X215852Y309408D01*
X215374Y308691D01*
X215206Y307846D01*
X215374Y307002D01*
X215852Y306285D01*
X216568Y305807D01*
X217413Y305639D01*
X218258Y305807D01*
X218974Y306285D01*
X219453Y307002D01*
X219621Y307846D01*
X219453Y308691D01*
X218974Y309408D01*
X218258Y309886D01*
X217413Y310054D01*
D02*
G37*
G36*
X59933D02*
X59088Y309886D01*
X58372Y309408D01*
X57893Y308691D01*
X57725Y307846D01*
X57893Y307002D01*
X58372Y306285D01*
X59088Y305807D01*
X59933Y305639D01*
X60778Y305807D01*
X61494Y306285D01*
X61973Y307002D01*
X62141Y307846D01*
X61973Y308691D01*
X61494Y309408D01*
X60778Y309886D01*
X59933Y310054D01*
D02*
G37*
G36*
X221413Y297554D02*
X220568Y297386D01*
X219852Y296908D01*
X219374Y296191D01*
X219206Y295346D01*
X219374Y294502D01*
X219852Y293785D01*
X220568Y293307D01*
X221413Y293139D01*
X222258Y293307D01*
X222974Y293785D01*
X223453Y294502D01*
X223621Y295346D01*
X223453Y296191D01*
X222974Y296908D01*
X222258Y297386D01*
X221413Y297554D01*
D02*
G37*
G36*
X63933D02*
X63088Y297386D01*
X62372Y296908D01*
X61893Y296191D01*
X61725Y295346D01*
X61893Y294502D01*
X62372Y293785D01*
X63088Y293307D01*
X63933Y293139D01*
X64778Y293307D01*
X65494Y293785D01*
X65973Y294502D01*
X66141Y295346D01*
X65973Y296191D01*
X65494Y296908D01*
X64778Y297386D01*
X63933Y297554D01*
D02*
G37*
G36*
X288913Y272054D02*
X288069Y271886D01*
X287352Y271408D01*
X286874Y270691D01*
X286706Y269847D01*
X286874Y269002D01*
X287352Y268285D01*
X288069Y267807D01*
X288913Y267639D01*
X289758Y267807D01*
X290475Y268285D01*
X290953Y269002D01*
X291121Y269847D01*
X290953Y270691D01*
X290475Y271408D01*
X289758Y271886D01*
X288913Y272054D01*
D02*
G37*
G36*
X284913Y268054D02*
X284068Y267886D01*
X283352Y267408D01*
X282874Y266691D01*
X282706Y265846D01*
X282874Y265002D01*
X283352Y264285D01*
X284068Y263807D01*
X284913Y263639D01*
X285758Y263807D01*
X286474Y264285D01*
X286953Y265002D01*
X287121Y265846D01*
X286953Y266691D01*
X286474Y267408D01*
X285758Y267886D01*
X284913Y268054D01*
D02*
G37*
G36*
X281913Y263554D02*
X281068Y263386D01*
X280352Y262908D01*
X279874Y262191D01*
X279706Y261347D01*
X279874Y260502D01*
X280352Y259785D01*
X281068Y259307D01*
X281913Y259139D01*
X282758Y259307D01*
X283474Y259785D01*
X283953Y260502D01*
X284121Y261347D01*
X283953Y262191D01*
X283474Y262908D01*
X282758Y263386D01*
X281913Y263554D01*
D02*
G37*
G36*
X216913Y259586D02*
X216069Y259418D01*
X215352Y258939D01*
X214874Y258223D01*
X214706Y257378D01*
X214874Y256533D01*
X215352Y255817D01*
X216069Y255338D01*
X216913Y255170D01*
X217758Y255338D01*
X218475Y255817D01*
X218953Y256533D01*
X219121Y257378D01*
X218953Y258223D01*
X218475Y258939D01*
X217758Y259418D01*
X216913Y259586D01*
D02*
G37*
G36*
X131433Y272054D02*
X130588Y271886D01*
X129872Y271408D01*
X129393Y270691D01*
X129225Y269847D01*
X129393Y269002D01*
X129872Y268285D01*
X130588Y267807D01*
X131433Y267639D01*
X132278Y267807D01*
X132994Y268285D01*
X133473Y269002D01*
X133641Y269847D01*
X133473Y270691D01*
X132994Y271408D01*
X132278Y271886D01*
X131433Y272054D01*
D02*
G37*
G36*
X127433Y268054D02*
X126588Y267886D01*
X125872Y267408D01*
X125393Y266691D01*
X125225Y265846D01*
X125393Y265002D01*
X125872Y264285D01*
X126588Y263807D01*
X127433Y263639D01*
X128278Y263807D01*
X128994Y264285D01*
X129473Y265002D01*
X129641Y265846D01*
X129473Y266691D01*
X128994Y267408D01*
X128278Y267886D01*
X127433Y268054D01*
D02*
G37*
G36*
X124433Y263554D02*
X123588Y263386D01*
X122872Y262908D01*
X122393Y262191D01*
X122225Y261347D01*
X122393Y260502D01*
X122872Y259785D01*
X123588Y259307D01*
X124433Y259139D01*
X125278Y259307D01*
X125994Y259785D01*
X126473Y260502D01*
X126641Y261347D01*
X126473Y262191D01*
X125994Y262908D01*
X125278Y263386D01*
X124433Y263554D01*
D02*
G37*
G36*
X59433Y259586D02*
X58588Y259418D01*
X57872Y258939D01*
X57393Y258223D01*
X57225Y257378D01*
X57393Y256533D01*
X57872Y255817D01*
X58588Y255338D01*
X59433Y255170D01*
X60278Y255338D01*
X60994Y255817D01*
X61473Y256533D01*
X61641Y257378D01*
X61473Y258223D01*
X60994Y258939D01*
X60278Y259418D01*
X59433Y259586D01*
D02*
G37*
G36*
X235721Y233567D02*
X233094D01*
X233137Y233241D01*
X233456Y232471D01*
X233963Y231810D01*
X234625Y231302D01*
X235395Y230983D01*
X235721Y230940D01*
Y233567D01*
D02*
G37*
G36*
X239348D02*
X236721D01*
Y230940D01*
X237047Y230983D01*
X237817Y231302D01*
X238478Y231810D01*
X238986Y232471D01*
X239305Y233241D01*
X239348Y233567D01*
D02*
G37*
G36*
X78241D02*
X75614D01*
X75657Y233241D01*
X75976Y232471D01*
X76483Y231810D01*
X77144Y231302D01*
X77914Y230983D01*
X78241Y230940D01*
Y233567D01*
D02*
G37*
G36*
X81867D02*
X79241D01*
Y230940D01*
X79567Y230983D01*
X80337Y231302D01*
X80998Y231810D01*
X81506Y232471D01*
X81824Y233241D01*
X81867Y233567D01*
D02*
G37*
G36*
X304913Y272054D02*
X304068Y271886D01*
X303352Y271408D01*
X302874Y270691D01*
X302706Y269847D01*
X302874Y269002D01*
X303352Y268285D01*
X304068Y267807D01*
X304913Y267639D01*
X305758Y267807D01*
X306474Y268285D01*
X306953Y269002D01*
X307121Y269847D01*
X306953Y270691D01*
X306474Y271408D01*
X305758Y271886D01*
X304913Y272054D01*
D02*
G37*
G36*
Y250054D02*
X304068Y249886D01*
X303352Y249408D01*
X302874Y248691D01*
X302706Y247847D01*
X302874Y247002D01*
X303352Y246285D01*
X304068Y245807D01*
X304913Y245639D01*
X305758Y245807D01*
X306474Y246285D01*
X306953Y247002D01*
X307121Y247847D01*
X306953Y248691D01*
X306474Y249408D01*
X305758Y249886D01*
X304913Y250054D01*
D02*
G37*
G36*
Y240054D02*
X304068Y239886D01*
X303352Y239408D01*
X302874Y238691D01*
X302706Y237846D01*
X302874Y237002D01*
X303352Y236285D01*
X304068Y235807D01*
X304913Y235639D01*
X305758Y235807D01*
X306474Y236285D01*
X306953Y237002D01*
X307121Y237846D01*
X306953Y238691D01*
X306474Y239408D01*
X305758Y239886D01*
X304913Y240054D01*
D02*
G37*
G36*
X147433Y272054D02*
X146588Y271886D01*
X145872Y271408D01*
X145393Y270691D01*
X145225Y269847D01*
X145393Y269002D01*
X145872Y268285D01*
X146588Y267807D01*
X147433Y267639D01*
X148278Y267807D01*
X148994Y268285D01*
X149473Y269002D01*
X149641Y269847D01*
X149473Y270691D01*
X148994Y271408D01*
X148278Y271886D01*
X147433Y272054D01*
D02*
G37*
G36*
Y250054D02*
X146588Y249886D01*
X145872Y249408D01*
X145393Y248691D01*
X145225Y247847D01*
X145393Y247002D01*
X145872Y246285D01*
X146588Y245807D01*
X147433Y245639D01*
X148278Y245807D01*
X148994Y246285D01*
X149473Y247002D01*
X149641Y247847D01*
X149473Y248691D01*
X148994Y249408D01*
X148278Y249886D01*
X147433Y250054D01*
D02*
G37*
G36*
Y240054D02*
X146588Y239886D01*
X145872Y239408D01*
X145393Y238691D01*
X145225Y237846D01*
X145393Y237002D01*
X145872Y236285D01*
X146588Y235807D01*
X147433Y235639D01*
X148278Y235807D01*
X148994Y236285D01*
X149473Y237002D01*
X149641Y237846D01*
X149473Y238691D01*
X148994Y239408D01*
X148278Y239886D01*
X147433Y240054D01*
D02*
G37*
G36*
X202551Y129125D02*
X201706Y128957D01*
X200990Y128478D01*
X200512Y127762D01*
X200343Y126917D01*
X200512Y126072D01*
X200990Y125356D01*
X201706Y124878D01*
X202551Y124709D01*
X203396Y124878D01*
X204112Y125356D01*
X204591Y126072D01*
X204759Y126917D01*
X204591Y127762D01*
X204112Y128478D01*
X203396Y128957D01*
X202551Y129125D01*
D02*
G37*
G36*
X45071D02*
X44226Y128957D01*
X43510Y128478D01*
X43031Y127762D01*
X42863Y126917D01*
X43031Y126072D01*
X43510Y125356D01*
X44226Y124878D01*
X45071Y124709D01*
X45916Y124878D01*
X46632Y125356D01*
X47111Y126072D01*
X47279Y126917D01*
X47111Y127762D01*
X46632Y128478D01*
X45916Y128957D01*
X45071Y129125D01*
D02*
G37*
G36*
X278913Y142263D02*
X278068Y142095D01*
X277352Y141616D01*
X276874Y140900D01*
X276706Y140055D01*
X276874Y139210D01*
X277352Y138494D01*
X278068Y138015D01*
X278913Y137847D01*
X279758Y138015D01*
X280474Y138494D01*
X280953Y139210D01*
X281121Y140055D01*
X280953Y140900D01*
X280474Y141616D01*
X279758Y142095D01*
X278913Y142263D01*
D02*
G37*
G36*
X286102Y140952D02*
X285258Y140784D01*
X284541Y140305D01*
X284063Y139589D01*
X283895Y138744D01*
X284063Y137899D01*
X284541Y137183D01*
X285258Y136704D01*
X286102Y136536D01*
X286947Y136704D01*
X287664Y137183D01*
X288142Y137899D01*
X288310Y138744D01*
X288142Y139589D01*
X287664Y140305D01*
X286947Y140784D01*
X286102Y140952D01*
D02*
G37*
G36*
X243913Y109263D02*
X243069Y109095D01*
X242352Y108616D01*
X241874Y107900D01*
X241706Y107055D01*
X241874Y106210D01*
X242352Y105494D01*
X243069Y105015D01*
X243913Y104847D01*
X244758Y105015D01*
X245475Y105494D01*
X245953Y106210D01*
X246121Y107055D01*
X245953Y107900D01*
X245475Y108616D01*
X244758Y109095D01*
X243913Y109263D01*
D02*
G37*
G36*
X121433Y142263D02*
X120588Y142095D01*
X119872Y141616D01*
X119393Y140900D01*
X119225Y140055D01*
X119393Y139210D01*
X119872Y138494D01*
X120588Y138015D01*
X121433Y137847D01*
X122278Y138015D01*
X122994Y138494D01*
X123473Y139210D01*
X123641Y140055D01*
X123473Y140900D01*
X122994Y141616D01*
X122278Y142095D01*
X121433Y142263D01*
D02*
G37*
G36*
X128622Y140952D02*
X127777Y140784D01*
X127061Y140305D01*
X126582Y139589D01*
X126414Y138744D01*
X126582Y137899D01*
X127061Y137183D01*
X127777Y136704D01*
X128622Y136536D01*
X129467Y136704D01*
X130183Y137183D01*
X130662Y137899D01*
X130830Y138744D01*
X130662Y139589D01*
X130183Y140305D01*
X129467Y140784D01*
X128622Y140952D01*
D02*
G37*
G36*
X86433Y109263D02*
X85588Y109095D01*
X84872Y108616D01*
X84393Y107900D01*
X84225Y107055D01*
X84393Y106210D01*
X84872Y105494D01*
X85588Y105015D01*
X86433Y104847D01*
X87278Y105015D01*
X87994Y105494D01*
X88473Y106210D01*
X88641Y107055D01*
X88473Y107900D01*
X87994Y108616D01*
X87278Y109095D01*
X86433Y109263D01*
D02*
G37*
G36*
X217413Y140763D02*
X216568Y140595D01*
X215852Y140116D01*
X215374Y139400D01*
X215206Y138555D01*
X215374Y137710D01*
X215852Y136994D01*
X216568Y136515D01*
X217413Y136347D01*
X218258Y136515D01*
X218974Y136994D01*
X219453Y137710D01*
X219621Y138555D01*
X219453Y139400D01*
X218974Y140116D01*
X218258Y140595D01*
X217413Y140763D01*
D02*
G37*
G36*
X59933D02*
X59088Y140595D01*
X58372Y140116D01*
X57893Y139400D01*
X57725Y138555D01*
X57893Y137710D01*
X58372Y136994D01*
X59088Y136515D01*
X59933Y136347D01*
X60778Y136515D01*
X61494Y136994D01*
X61973Y137710D01*
X62141Y138555D01*
X61973Y139400D01*
X61494Y140116D01*
X60778Y140595D01*
X59933Y140763D01*
D02*
G37*
G36*
X221413Y128263D02*
X220568Y128095D01*
X219852Y127616D01*
X219374Y126900D01*
X219206Y126055D01*
X219374Y125210D01*
X219852Y124494D01*
X220568Y124015D01*
X221413Y123847D01*
X222258Y124015D01*
X222974Y124494D01*
X223453Y125210D01*
X223621Y126055D01*
X223453Y126900D01*
X222974Y127616D01*
X222258Y128095D01*
X221413Y128263D01*
D02*
G37*
G36*
X63933D02*
X63088Y128095D01*
X62372Y127616D01*
X61893Y126900D01*
X61725Y126055D01*
X61893Y125210D01*
X62372Y124494D01*
X63088Y124015D01*
X63933Y123847D01*
X64778Y124015D01*
X65494Y124494D01*
X65973Y125210D01*
X66141Y126055D01*
X65973Y126900D01*
X65494Y127616D01*
X64778Y128095D01*
X63933Y128263D01*
D02*
G37*
G36*
X288913Y102763D02*
X288069Y102595D01*
X287352Y102116D01*
X286874Y101400D01*
X286706Y100555D01*
X286874Y99710D01*
X287352Y98994D01*
X288069Y98515D01*
X288913Y98347D01*
X289758Y98515D01*
X290475Y98994D01*
X290953Y99710D01*
X291121Y100555D01*
X290953Y101400D01*
X290475Y102116D01*
X289758Y102595D01*
X288913Y102763D01*
D02*
G37*
G36*
X284913Y98763D02*
X284068Y98595D01*
X283352Y98116D01*
X282874Y97400D01*
X282706Y96555D01*
X282874Y95710D01*
X283352Y94994D01*
X284068Y94515D01*
X284913Y94347D01*
X285758Y94515D01*
X286474Y94994D01*
X286953Y95710D01*
X287121Y96555D01*
X286953Y97400D01*
X286474Y98116D01*
X285758Y98595D01*
X284913Y98763D01*
D02*
G37*
G36*
X281913Y94263D02*
X281068Y94095D01*
X280352Y93616D01*
X279874Y92900D01*
X279706Y92055D01*
X279874Y91210D01*
X280352Y90494D01*
X281068Y90015D01*
X281913Y89847D01*
X282758Y90015D01*
X283474Y90494D01*
X283953Y91210D01*
X284121Y92055D01*
X283953Y92900D01*
X283474Y93616D01*
X282758Y94095D01*
X281913Y94263D01*
D02*
G37*
G36*
X216913Y90294D02*
X216069Y90126D01*
X215352Y89648D01*
X214874Y88932D01*
X214706Y88087D01*
X214874Y87242D01*
X215352Y86525D01*
X216069Y86047D01*
X216913Y85879D01*
X217758Y86047D01*
X218475Y86525D01*
X218953Y87242D01*
X219121Y88087D01*
X218953Y88932D01*
X218475Y89648D01*
X217758Y90126D01*
X216913Y90294D01*
D02*
G37*
G36*
X131433Y102763D02*
X130588Y102595D01*
X129872Y102116D01*
X129393Y101400D01*
X129225Y100555D01*
X129393Y99710D01*
X129872Y98994D01*
X130588Y98515D01*
X131433Y98347D01*
X132278Y98515D01*
X132994Y98994D01*
X133473Y99710D01*
X133641Y100555D01*
X133473Y101400D01*
X132994Y102116D01*
X132278Y102595D01*
X131433Y102763D01*
D02*
G37*
G36*
X127433Y98763D02*
X126588Y98595D01*
X125872Y98116D01*
X125393Y97400D01*
X125225Y96555D01*
X125393Y95710D01*
X125872Y94994D01*
X126588Y94515D01*
X127433Y94347D01*
X128278Y94515D01*
X128994Y94994D01*
X129473Y95710D01*
X129641Y96555D01*
X129473Y97400D01*
X128994Y98116D01*
X128278Y98595D01*
X127433Y98763D01*
D02*
G37*
G36*
X124433Y94263D02*
X123588Y94095D01*
X122872Y93616D01*
X122393Y92900D01*
X122225Y92055D01*
X122393Y91210D01*
X122872Y90494D01*
X123588Y90015D01*
X124433Y89847D01*
X125278Y90015D01*
X125994Y90494D01*
X126473Y91210D01*
X126641Y92055D01*
X126473Y92900D01*
X125994Y93616D01*
X125278Y94095D01*
X124433Y94263D01*
D02*
G37*
G36*
X59433Y90294D02*
X58588Y90126D01*
X57872Y89648D01*
X57393Y88932D01*
X57225Y88087D01*
X57393Y87242D01*
X57872Y86525D01*
X58588Y86047D01*
X59433Y85879D01*
X60278Y86047D01*
X60994Y86525D01*
X61473Y87242D01*
X61641Y88087D01*
X61473Y88932D01*
X60994Y89648D01*
X60278Y90126D01*
X59433Y90294D01*
D02*
G37*
G36*
X235721Y64276D02*
X233094D01*
X233137Y63950D01*
X233456Y63179D01*
X233963Y62518D01*
X234625Y62011D01*
X235395Y61692D01*
X235721Y61649D01*
Y64276D01*
D02*
G37*
G36*
X239348D02*
X236721D01*
Y61649D01*
X237047Y61692D01*
X237817Y62011D01*
X238478Y62518D01*
X238986Y63179D01*
X239305Y63950D01*
X239348Y64276D01*
D02*
G37*
G36*
X78241D02*
X75614D01*
X75657Y63950D01*
X75976Y63179D01*
X76483Y62518D01*
X77144Y62011D01*
X77914Y61692D01*
X78241Y61649D01*
Y64276D01*
D02*
G37*
G36*
X81867D02*
X79241D01*
Y61649D01*
X79567Y61692D01*
X80337Y62011D01*
X80998Y62518D01*
X81506Y63179D01*
X81824Y63950D01*
X81867Y64276D01*
D02*
G37*
G36*
X304913Y102763D02*
X304068Y102595D01*
X303352Y102116D01*
X302874Y101400D01*
X302706Y100555D01*
X302874Y99710D01*
X303352Y98994D01*
X304068Y98515D01*
X304913Y98347D01*
X305758Y98515D01*
X306474Y98994D01*
X306953Y99710D01*
X307121Y100555D01*
X306953Y101400D01*
X306474Y102116D01*
X305758Y102595D01*
X304913Y102763D01*
D02*
G37*
G36*
Y80763D02*
X304068Y80595D01*
X303352Y80116D01*
X302874Y79400D01*
X302706Y78555D01*
X302874Y77710D01*
X303352Y76994D01*
X304068Y76515D01*
X304913Y76347D01*
X305758Y76515D01*
X306474Y76994D01*
X306953Y77710D01*
X307121Y78555D01*
X306953Y79400D01*
X306474Y80116D01*
X305758Y80595D01*
X304913Y80763D01*
D02*
G37*
G36*
Y70763D02*
X304068Y70595D01*
X303352Y70116D01*
X302874Y69400D01*
X302706Y68555D01*
X302874Y67710D01*
X303352Y66994D01*
X304068Y66515D01*
X304913Y66347D01*
X305758Y66515D01*
X306474Y66994D01*
X306953Y67710D01*
X307121Y68555D01*
X306953Y69400D01*
X306474Y70116D01*
X305758Y70595D01*
X304913Y70763D01*
D02*
G37*
G36*
X147433Y102763D02*
X146588Y102595D01*
X145872Y102116D01*
X145393Y101400D01*
X145225Y100555D01*
X145393Y99710D01*
X145872Y98994D01*
X146588Y98515D01*
X147433Y98347D01*
X148278Y98515D01*
X148994Y98994D01*
X149473Y99710D01*
X149641Y100555D01*
X149473Y101400D01*
X148994Y102116D01*
X148278Y102595D01*
X147433Y102763D01*
D02*
G37*
G36*
Y80763D02*
X146588Y80595D01*
X145872Y80116D01*
X145393Y79400D01*
X145225Y78555D01*
X145393Y77710D01*
X145872Y76994D01*
X146588Y76515D01*
X147433Y76347D01*
X148278Y76515D01*
X148994Y76994D01*
X149473Y77710D01*
X149641Y78555D01*
X149473Y79400D01*
X148994Y80116D01*
X148278Y80595D01*
X147433Y80763D01*
D02*
G37*
G36*
Y70763D02*
X146588Y70595D01*
X145872Y70116D01*
X145393Y69400D01*
X145225Y68555D01*
X145393Y67710D01*
X145872Y66994D01*
X146588Y66515D01*
X147433Y66347D01*
X148278Y66515D01*
X148994Y66994D01*
X149473Y67710D01*
X149641Y68555D01*
X149473Y69400D01*
X148994Y70116D01*
X148278Y70595D01*
X147433Y70763D01*
D02*
G37*
%LPD*%
D46*
X131807Y151181D02*
X136496Y146492D01*
Y138618D02*
Y146492D01*
X91433Y75055D02*
X91933Y74555D01*
X54933Y97555D02*
Y102555D01*
X51433Y106055D02*
X54933Y102555D01*
X51433Y106055D02*
Y111055D01*
X61933Y121555D01*
X67933D01*
X70189Y123811D01*
Y127311D01*
X70933Y147055D02*
X75059Y151181D01*
X70933Y138555D02*
Y147055D01*
X66902Y134524D02*
X70933Y138555D01*
X54465Y134524D02*
X66902D01*
X75059Y151181D02*
X131807D01*
X68898Y150520D02*
Y170473D01*
X72244Y173819D01*
X60933Y142555D02*
X68898Y150520D01*
X56433Y142555D02*
X60933D01*
X50933Y137055D02*
X56433Y142555D01*
X50933Y131055D02*
Y137055D01*
X289287Y151181D02*
X293976Y146492D01*
Y138618D02*
Y146492D01*
X248913Y75055D02*
X249413Y74555D01*
X212413Y97555D02*
Y102555D01*
X208913Y106055D02*
X212413Y102555D01*
X208913Y106055D02*
Y111055D01*
X219413Y121555D01*
X225413D01*
X227669Y123811D01*
Y127311D01*
X228413Y147055D02*
X232539Y151181D01*
X228413Y138555D02*
Y147055D01*
X224382Y134524D02*
X228413Y138555D01*
X211945Y134524D02*
X224382D01*
X232539Y151181D02*
X289287D01*
X226378Y150520D02*
Y170473D01*
X229724Y173819D01*
X218413Y142555D02*
X226378Y150520D01*
X213913Y142555D02*
X218413D01*
X208413Y137055D02*
X213913Y142555D01*
X208413Y131055D02*
Y137055D01*
X131807Y320472D02*
X136496Y315784D01*
Y307909D02*
Y315784D01*
X91433Y244346D02*
X91933Y243847D01*
X54933Y266846D02*
Y271847D01*
X51433Y275346D02*
X54933Y271847D01*
X51433Y275346D02*
Y280346D01*
X61933Y290846D01*
X67933D01*
X70189Y293102D01*
Y296602D01*
X70933Y316347D02*
X75059Y320472D01*
X70933Y307846D02*
Y316347D01*
X66902Y303815D02*
X70933Y307846D01*
X54465Y303815D02*
X66902D01*
X75059Y320472D02*
X131807D01*
X68898Y319811D02*
Y339764D01*
X72244Y343110D01*
X60933Y311846D02*
X68898Y319811D01*
X56433Y311846D02*
X60933D01*
X50933Y306347D02*
X56433Y311846D01*
X50933Y300346D02*
Y306347D01*
X289287Y320472D02*
X293976Y315784D01*
Y307909D02*
Y315784D01*
X248913Y244346D02*
X249413Y243847D01*
X212413Y266846D02*
Y271847D01*
X208913Y275346D02*
X212413Y271847D01*
X208913Y275346D02*
Y280346D01*
X219413Y290846D01*
X225413D01*
X227669Y293102D01*
Y296602D01*
X228413Y316347D02*
X232539Y320472D01*
X228413Y307846D02*
Y316347D01*
X224382Y303815D02*
X228413Y307846D01*
X211945Y303815D02*
X224382D01*
X232539Y320472D02*
X289287D01*
X226378Y319811D02*
Y339764D01*
X229724Y343110D01*
X218413Y311846D02*
X226378Y319811D01*
X213913Y311846D02*
X218413D01*
X208413Y306347D02*
X213913Y311846D01*
X208413Y300346D02*
Y306347D01*
X131807Y489764D02*
X136496Y485075D01*
Y477201D02*
Y485075D01*
X91433Y413638D02*
X91933Y413138D01*
X54933Y436138D02*
Y441138D01*
X51433Y444638D02*
X54933Y441138D01*
X51433Y444638D02*
Y449638D01*
X61933Y460138D01*
X67933D01*
X70189Y462394D01*
Y465894D01*
X70933Y485638D02*
X75059Y489764D01*
X70933Y477138D02*
Y485638D01*
X66902Y473106D02*
X70933Y477138D01*
X54465Y473106D02*
X66902D01*
X75059Y489764D02*
X131807D01*
X68898Y489102D02*
Y509055D01*
X72244Y512402D01*
X60933Y481138D02*
X68898Y489102D01*
X56433Y481138D02*
X60933D01*
X50933Y475638D02*
X56433Y481138D01*
X50933Y469638D02*
Y475638D01*
X289287Y489764D02*
X293976Y485075D01*
Y477201D02*
Y485075D01*
X248913Y413638D02*
X249413Y413138D01*
X212413Y436138D02*
Y441138D01*
X208913Y444638D02*
X212413Y441138D01*
X208913Y444638D02*
Y449638D01*
X219413Y460138D01*
X225413D01*
X227669Y462394D01*
Y465894D01*
X228413Y485638D02*
X232539Y489764D01*
X228413Y477138D02*
Y485638D01*
X224382Y473106D02*
X228413Y477138D01*
X211945Y473106D02*
X224382D01*
X232539Y489764D02*
X289287D01*
X226378Y489102D02*
Y509055D01*
X229724Y512402D01*
X218413Y481138D02*
X226378Y489102D01*
X213913Y481138D02*
X218413D01*
X208413Y475638D02*
X213913Y481138D01*
X208413Y469638D02*
Y475638D01*
D47*
X96933Y109555D02*
Y138555D01*
X87433Y100055D02*
X96933Y109555D01*
X69433Y104555D02*
Y112555D01*
X84933Y128055D02*
Y135555D01*
X69433Y112555D02*
X84933Y128055D01*
X81433Y139055D02*
X84933Y135555D01*
X81433Y139055D02*
Y144055D01*
X98496Y140118D02*
Y145118D01*
X96933Y138555D02*
X98496Y140118D01*
X254413Y109555D02*
Y138555D01*
X244913Y100055D02*
X254413Y109555D01*
X226913Y104555D02*
Y112555D01*
X242413Y128055D02*
Y135555D01*
X226913Y112555D02*
X242413Y128055D01*
X238913Y139055D02*
X242413Y135555D01*
X238913Y139055D02*
Y144055D01*
X255976Y140118D02*
Y145118D01*
X254413Y138555D02*
X255976Y140118D01*
X96933Y278847D02*
Y307846D01*
X87433Y269346D02*
X96933Y278847D01*
X69433Y273847D02*
Y281846D01*
X84933Y297346D02*
Y304847D01*
X69433Y281846D02*
X84933Y297346D01*
X81433Y308347D02*
X84933Y304847D01*
X81433Y308347D02*
Y313347D01*
X98496Y309409D02*
Y314409D01*
X96933Y307846D02*
X98496Y309409D01*
X254413Y278847D02*
Y307846D01*
X244913Y269346D02*
X254413Y278847D01*
X226913Y273847D02*
Y281846D01*
X242413Y297346D02*
Y304847D01*
X226913Y281846D02*
X242413Y297346D01*
X238913Y308347D02*
X242413Y304847D01*
X238913Y308347D02*
Y313347D01*
X255976Y309409D02*
Y314409D01*
X254413Y307846D02*
X255976Y309409D01*
X96933Y448138D02*
Y477138D01*
X87433Y438638D02*
X96933Y448138D01*
X69433Y443138D02*
Y451138D01*
X84933Y466638D02*
Y474138D01*
X69433Y451138D02*
X84933Y466638D01*
X81433Y477638D02*
X84933Y474138D01*
X81433Y477638D02*
Y482638D01*
X98496Y478701D02*
Y483701D01*
X96933Y477138D02*
X98496Y478701D01*
X254413Y448138D02*
Y477138D01*
X244913Y438638D02*
X254413Y448138D01*
X226913Y443138D02*
Y451138D01*
X242413Y466638D02*
Y474138D01*
X226913Y451138D02*
X242413Y466638D01*
X238913Y477638D02*
X242413Y474138D01*
X238913Y477638D02*
Y482638D01*
X255976Y478701D02*
Y483701D01*
X254413Y477138D02*
X255976Y478701D01*
D48*
X76933Y93555D02*
Y114055D01*
X62433Y93555D02*
Y115055D01*
X234413Y93555D02*
Y114055D01*
X219913Y93555D02*
Y115055D01*
X76933Y262846D02*
Y283347D01*
X62433Y262846D02*
Y284347D01*
X234413Y262846D02*
Y283347D01*
X219913Y262846D02*
Y284347D01*
X76933Y432138D02*
Y452638D01*
X62433Y432138D02*
Y453638D01*
X234413Y432138D02*
Y452638D01*
X219913Y432138D02*
Y453638D01*
D49*
X50933Y113640D02*
Y131055D01*
X39933Y83055D02*
Y98055D01*
X49252Y107374D01*
Y111959D01*
X50933Y113640D01*
X103433Y145055D02*
Y147055D01*
X101933Y148555D02*
X103433Y147055D01*
X74933Y128555D02*
Y145055D01*
X50933Y131055D02*
X74933D01*
X74933Y145055D02*
X78433Y148555D01*
X101933D01*
X208413Y113640D02*
Y131055D01*
X197413Y83055D02*
Y98055D01*
X206732Y107374D01*
Y111959D01*
X208413Y113640D01*
X260913Y145055D02*
Y147055D01*
X259413Y148555D02*
X260913Y147055D01*
X232413Y128555D02*
Y145055D01*
X208413Y131055D02*
X232413D01*
X232413Y145055D02*
X235913Y148555D01*
X259413D01*
X50933Y282931D02*
Y300346D01*
X39933Y252346D02*
Y267347D01*
X49252Y276665D01*
Y281250D01*
X50933Y282931D01*
X103433Y314347D02*
Y316347D01*
X101933Y317846D02*
X103433Y316347D01*
X74933Y297847D02*
Y314347D01*
X50933Y300346D02*
X74933D01*
X74933Y314347D02*
X78433Y317846D01*
X101933D01*
X208413Y282931D02*
Y300346D01*
X197413Y252346D02*
Y267347D01*
X206732Y276665D01*
Y281250D01*
X208413Y282931D01*
X260913Y314347D02*
Y316347D01*
X259413Y317846D02*
X260913Y316347D01*
X232413Y297847D02*
Y314347D01*
X208413Y300346D02*
X232413D01*
X232413Y314347D02*
X235913Y317846D01*
X259413D01*
X50933Y452222D02*
Y469638D01*
X39933Y421638D02*
Y436638D01*
X49252Y445957D01*
Y450541D01*
X50933Y452222D01*
X103433Y483638D02*
Y485638D01*
X101933Y487138D02*
X103433Y485638D01*
X74933Y467138D02*
Y483638D01*
X50933Y469638D02*
X74933D01*
X74933Y483638D02*
X78433Y487138D01*
X101933D01*
X208413Y452222D02*
Y469638D01*
X197413Y421638D02*
Y436638D01*
X206732Y445957D01*
Y450541D01*
X208413Y452222D01*
X260913Y483638D02*
Y485638D01*
X259413Y487138D02*
X260913Y485638D01*
X232413Y467138D02*
Y483638D01*
X208413Y469638D02*
X232413D01*
X232413Y483638D02*
X235913Y487138D01*
X259413D01*
D52*
X95433Y99555D02*
D03*
X58933Y123555D02*
D03*
X153933Y141555D02*
D03*
X39915Y102573D02*
D03*
X39933Y131055D02*
D03*
X59433Y72055D02*
D03*
X40177Y68555D02*
D03*
X98496Y145118D02*
D03*
X87433Y100055D02*
D03*
X43433Y93555D02*
D03*
X81433Y144055D02*
D03*
X80933Y131555D02*
D03*
X124933Y80055D02*
D03*
X118433Y93555D02*
D03*
X91433Y75055D02*
D03*
X103433Y145055D02*
D03*
X74933D02*
D03*
X50933Y131055D02*
D03*
X58433Y106055D02*
D03*
X109980Y134508D02*
D03*
X131433Y133055D02*
D03*
X90433Y93555D02*
D03*
X111209Y74279D02*
D03*
X49933Y64055D02*
D03*
X116933Y146555D02*
D03*
X93433Y145055D02*
D03*
X67059Y144929D02*
D03*
X136496Y138618D02*
D03*
X144433Y147555D02*
D03*
X132559Y141681D02*
D03*
X39933Y83055D02*
D03*
X49433Y73299D02*
D03*
X96433Y81555D02*
D03*
X119433Y69555D02*
D03*
X107433Y81555D02*
D03*
X138528Y114961D02*
D03*
X137933Y129555D02*
D03*
X74933Y128555D02*
D03*
X76933Y114055D02*
D03*
X62433Y115055D02*
D03*
X54933Y97555D02*
D03*
X70189Y127311D02*
D03*
X69433Y104555D02*
D03*
X54465Y134524D02*
D03*
X50933Y141555D02*
D03*
X72244Y173819D02*
D03*
X252913Y99555D02*
D03*
X216413Y123555D02*
D03*
X311413Y141555D02*
D03*
X197396Y102573D02*
D03*
X197413Y131055D02*
D03*
X216913Y72055D02*
D03*
X197658Y68555D02*
D03*
X255976Y145118D02*
D03*
X244913Y100055D02*
D03*
X200913Y93555D02*
D03*
X238913Y144055D02*
D03*
X238413Y131555D02*
D03*
X282413Y80055D02*
D03*
X275913Y93555D02*
D03*
X248913Y75055D02*
D03*
X260913Y145055D02*
D03*
X232413D02*
D03*
X208413Y131055D02*
D03*
X215913Y106055D02*
D03*
X267461Y134508D02*
D03*
X288913Y133055D02*
D03*
X247913Y93555D02*
D03*
X268689Y74279D02*
D03*
X207413Y64055D02*
D03*
X274413Y146555D02*
D03*
X250913Y145055D02*
D03*
X224539Y144929D02*
D03*
X293976Y138618D02*
D03*
X301913Y147555D02*
D03*
X290039Y141681D02*
D03*
X197413Y83055D02*
D03*
X206913Y73299D02*
D03*
X253913Y81555D02*
D03*
X276913Y69555D02*
D03*
X264913Y81555D02*
D03*
X296008Y114961D02*
D03*
X295413Y129555D02*
D03*
X232413Y128555D02*
D03*
X234413Y114055D02*
D03*
X219913Y115055D02*
D03*
X212413Y97555D02*
D03*
X227669Y127311D02*
D03*
X226913Y104555D02*
D03*
X211945Y134524D02*
D03*
X208413Y141555D02*
D03*
X229724Y173819D02*
D03*
X95433Y268847D02*
D03*
X58933Y292846D02*
D03*
X153933Y310846D02*
D03*
X39915Y271864D02*
D03*
X39933Y300346D02*
D03*
X59433Y241347D02*
D03*
X40177Y237846D02*
D03*
X98496Y314409D02*
D03*
X87433Y269346D02*
D03*
X43433Y262846D02*
D03*
X81433Y313347D02*
D03*
X80933Y300847D02*
D03*
X124933Y249346D02*
D03*
X118433Y262846D02*
D03*
X91433Y244346D02*
D03*
X103433Y314347D02*
D03*
X74933D02*
D03*
X50933Y300346D02*
D03*
X58433Y275346D02*
D03*
X109980Y303799D02*
D03*
X131433Y302346D02*
D03*
X90433Y262846D02*
D03*
X111209Y243571D02*
D03*
X49933Y233347D02*
D03*
X116933Y315846D02*
D03*
X93433Y314347D02*
D03*
X67059Y314220D02*
D03*
X136496Y307909D02*
D03*
X144433Y316846D02*
D03*
X132559Y310972D02*
D03*
X39933Y252346D02*
D03*
X49433Y242590D02*
D03*
X96433Y250847D02*
D03*
X119433Y238846D02*
D03*
X107433Y250847D02*
D03*
X138528Y284252D02*
D03*
X137933Y298847D02*
D03*
X74933Y297847D02*
D03*
X76933Y283347D02*
D03*
X62433Y284347D02*
D03*
X54933Y266846D02*
D03*
X70189Y296602D02*
D03*
X69433Y273847D02*
D03*
X54465Y303815D02*
D03*
X50933Y310846D02*
D03*
X72244Y343110D02*
D03*
X252913Y268847D02*
D03*
X216413Y292846D02*
D03*
X311413Y310846D02*
D03*
X197396Y271864D02*
D03*
X197413Y300346D02*
D03*
X216913Y241347D02*
D03*
X197658Y237846D02*
D03*
X255976Y314409D02*
D03*
X244913Y269346D02*
D03*
X200913Y262846D02*
D03*
X238913Y313347D02*
D03*
X238413Y300847D02*
D03*
X282413Y249346D02*
D03*
X275913Y262846D02*
D03*
X248913Y244346D02*
D03*
X260913Y314347D02*
D03*
X232413D02*
D03*
X208413Y300346D02*
D03*
X215913Y275346D02*
D03*
X267461Y303799D02*
D03*
X288913Y302346D02*
D03*
X247913Y262846D02*
D03*
X268689Y243571D02*
D03*
X207413Y233347D02*
D03*
X274413Y315846D02*
D03*
X250913Y314347D02*
D03*
X224539Y314220D02*
D03*
X293976Y307909D02*
D03*
X301913Y316846D02*
D03*
X290039Y310972D02*
D03*
X197413Y252346D02*
D03*
X206913Y242590D02*
D03*
X253913Y250847D02*
D03*
X276913Y238846D02*
D03*
X264913Y250847D02*
D03*
X296008Y284252D02*
D03*
X295413Y298847D02*
D03*
X232413Y297847D02*
D03*
X234413Y283347D02*
D03*
X219913Y284347D02*
D03*
X212413Y266846D02*
D03*
X227669Y296602D02*
D03*
X226913Y273847D02*
D03*
X211945Y303815D02*
D03*
X208413Y310846D02*
D03*
X229724Y343110D02*
D03*
X95433Y438138D02*
D03*
X58933Y462138D02*
D03*
X153933Y480138D02*
D03*
X39915Y441155D02*
D03*
X39933Y469638D02*
D03*
X59433Y410638D02*
D03*
X40177Y407138D02*
D03*
X98496Y483701D02*
D03*
X87433Y438638D02*
D03*
X43433Y432138D02*
D03*
X81433Y482638D02*
D03*
X80933Y470138D02*
D03*
X124933Y418638D02*
D03*
X118433Y432138D02*
D03*
X91433Y413638D02*
D03*
X103433Y483638D02*
D03*
X74933D02*
D03*
X50933Y469638D02*
D03*
X58433Y444638D02*
D03*
X109980Y473091D02*
D03*
X131433Y471638D02*
D03*
X90433Y432138D02*
D03*
X111209Y412862D02*
D03*
X49933Y402638D02*
D03*
X116933Y485138D02*
D03*
X93433Y483638D02*
D03*
X67059Y483512D02*
D03*
X136496Y477201D02*
D03*
X144433Y486138D02*
D03*
X132559Y480264D02*
D03*
X39933Y421638D02*
D03*
X49433Y411882D02*
D03*
X96433Y420138D02*
D03*
X119433Y408138D02*
D03*
X107433Y420138D02*
D03*
X138528Y453543D02*
D03*
X137933Y468138D02*
D03*
X74933Y467138D02*
D03*
X76933Y452638D02*
D03*
X62433Y453638D02*
D03*
X54933Y436138D02*
D03*
X70189Y465894D02*
D03*
X69433Y443138D02*
D03*
X54465Y473106D02*
D03*
X50933Y480138D02*
D03*
X72244Y512402D02*
D03*
X252913Y438138D02*
D03*
X216413Y462138D02*
D03*
X311413Y480138D02*
D03*
X197396Y441155D02*
D03*
X197413Y469638D02*
D03*
X216913Y410638D02*
D03*
X197658Y407138D02*
D03*
X255976Y483701D02*
D03*
X244913Y438638D02*
D03*
X200913Y432138D02*
D03*
X238913Y482638D02*
D03*
X238413Y470138D02*
D03*
X282413Y418638D02*
D03*
X275913Y432138D02*
D03*
X248913Y413638D02*
D03*
X260913Y483638D02*
D03*
X232413D02*
D03*
X208413Y469638D02*
D03*
X215913Y444638D02*
D03*
X267461Y473091D02*
D03*
X288913Y471638D02*
D03*
X247913Y432138D02*
D03*
X268689Y412862D02*
D03*
X207413Y402638D02*
D03*
X274413Y485138D02*
D03*
X250913Y483638D02*
D03*
X224539Y483512D02*
D03*
X293976Y477201D02*
D03*
X301913Y486138D02*
D03*
X290039Y480264D02*
D03*
X197413Y421638D02*
D03*
X206913Y411882D02*
D03*
X253913Y420138D02*
D03*
X276913Y408138D02*
D03*
X264913Y420138D02*
D03*
X296008Y453543D02*
D03*
X295413Y468138D02*
D03*
X232413Y467138D02*
D03*
X234413Y452638D02*
D03*
X219913Y453638D02*
D03*
X212413Y436138D02*
D03*
X227669Y465894D02*
D03*
X226913Y443138D02*
D03*
X211945Y473106D02*
D03*
X208413Y480138D02*
D03*
X229724Y512402D02*
D03*
D53*
X105847Y123642D02*
D03*
X110571D02*
D03*
X115295D02*
D03*
X120020D02*
D03*
X105847Y118917D02*
D03*
X110571D02*
D03*
X115295D02*
D03*
X120020D02*
D03*
X105847Y114193D02*
D03*
X110571D02*
D03*
X115295D02*
D03*
X120020D02*
D03*
X105847Y109468D02*
D03*
X110571D02*
D03*
X115295D02*
D03*
X120020D02*
D03*
X263327Y123642D02*
D03*
X268051D02*
D03*
X272776D02*
D03*
X277500D02*
D03*
X263327Y118917D02*
D03*
X268051D02*
D03*
X272776D02*
D03*
X277500D02*
D03*
X263327Y114193D02*
D03*
X268051D02*
D03*
X272776D02*
D03*
X277500D02*
D03*
X263327Y109468D02*
D03*
X268051D02*
D03*
X272776D02*
D03*
X277500D02*
D03*
X105847Y292933D02*
D03*
X110571D02*
D03*
X115295D02*
D03*
X120020D02*
D03*
X105847Y288209D02*
D03*
X110571D02*
D03*
X115295D02*
D03*
X120020D02*
D03*
X105847Y283484D02*
D03*
X110571D02*
D03*
X115295D02*
D03*
X120020D02*
D03*
X105847Y278760D02*
D03*
X110571D02*
D03*
X115295D02*
D03*
X120020D02*
D03*
X263327Y292933D02*
D03*
X268051D02*
D03*
X272776D02*
D03*
X277500D02*
D03*
X263327Y288209D02*
D03*
X268051D02*
D03*
X272776D02*
D03*
X277500D02*
D03*
X263327Y283484D02*
D03*
X268051D02*
D03*
X272776D02*
D03*
X277500D02*
D03*
X263327Y278760D02*
D03*
X268051D02*
D03*
X272776D02*
D03*
X277500D02*
D03*
X105847Y462224D02*
D03*
X110571D02*
D03*
X115295D02*
D03*
X120020D02*
D03*
X105847Y457500D02*
D03*
X110571D02*
D03*
X115295D02*
D03*
X120020D02*
D03*
X105847Y452776D02*
D03*
X110571D02*
D03*
X115295D02*
D03*
X120020D02*
D03*
X105847Y448051D02*
D03*
X110571D02*
D03*
X115295D02*
D03*
X120020D02*
D03*
X263327Y462224D02*
D03*
X268051D02*
D03*
X272776D02*
D03*
X277500D02*
D03*
X263327Y457500D02*
D03*
X268051D02*
D03*
X272776D02*
D03*
X277500D02*
D03*
X263327Y452776D02*
D03*
X268051D02*
D03*
X272776D02*
D03*
X277500D02*
D03*
X263327Y448051D02*
D03*
X268051D02*
D03*
X272776D02*
D03*
X277500D02*
D03*
D54*
X126933Y128055D02*
X133433Y134555D01*
X140933D01*
X144433Y138055D01*
Y147555D01*
X126933Y108555D02*
Y128055D01*
X43433Y93555D02*
X62433D01*
X118598Y76221D02*
Y100221D01*
X90433Y93555D02*
X118433D01*
X120480Y134508D02*
X126933Y128055D01*
X109980Y134508D02*
X120480D01*
X118598Y100221D02*
X126933Y108555D01*
X116657Y74279D02*
X118598Y76221D01*
X111209Y74279D02*
X116657D01*
X76933Y93555D02*
X90433D01*
X62433D02*
X76933D01*
X284413Y128055D02*
X290913Y134555D01*
X298413D01*
X301913Y138055D01*
Y147555D01*
X284413Y108555D02*
Y128055D01*
X200913Y93555D02*
X219913D01*
X276079Y76221D02*
Y100221D01*
X247913Y93555D02*
X275913D01*
X277961Y134508D02*
X284413Y128055D01*
X267461Y134508D02*
X277961D01*
X276079Y100221D02*
X284413Y108555D01*
X274138Y74279D02*
X276079Y76221D01*
X268689Y74279D02*
X274138D01*
X234413Y93555D02*
X247913D01*
X219913D02*
X234413D01*
X126933Y297346D02*
X133433Y303847D01*
X140933D01*
X144433Y307347D01*
Y316846D01*
X126933Y277847D02*
Y297346D01*
X43433Y262846D02*
X62433D01*
X118598Y245512D02*
Y269512D01*
X90433Y262846D02*
X118433D01*
X120480Y303799D02*
X126933Y297346D01*
X109980Y303799D02*
X120480D01*
X118598Y269512D02*
X126933Y277847D01*
X116657Y243571D02*
X118598Y245512D01*
X111209Y243571D02*
X116657D01*
X76933Y262846D02*
X90433D01*
X62433D02*
X76933D01*
X284413Y297346D02*
X290913Y303847D01*
X298413D01*
X301913Y307347D01*
Y316846D01*
X284413Y277847D02*
Y297346D01*
X200913Y262846D02*
X219913D01*
X276079Y245512D02*
Y269512D01*
X247913Y262846D02*
X275913D01*
X277961Y303799D02*
X284413Y297346D01*
X267461Y303799D02*
X277961D01*
X276079Y269512D02*
X284413Y277847D01*
X274138Y243571D02*
X276079Y245512D01*
X268689Y243571D02*
X274138D01*
X234413Y262846D02*
X247913D01*
X219913D02*
X234413D01*
X126933Y466638D02*
X133433Y473138D01*
X140933D01*
X144433Y476638D01*
Y486138D01*
X126933Y447138D02*
Y466638D01*
X43433Y432138D02*
X62433D01*
X118598Y414803D02*
Y438803D01*
X90433Y432138D02*
X118433D01*
X120480Y473091D02*
X126933Y466638D01*
X109980Y473091D02*
X120480D01*
X118598Y438803D02*
X126933Y447138D01*
X116657Y412862D02*
X118598Y414803D01*
X111209Y412862D02*
X116657D01*
X76933Y432138D02*
X90433D01*
X62433D02*
X76933D01*
X284413Y466638D02*
X290913Y473138D01*
X298413D01*
X301913Y476638D01*
Y486138D01*
X284413Y447138D02*
Y466638D01*
X200913Y432138D02*
X219913D01*
X276079Y414803D02*
Y438803D01*
X247913Y432138D02*
X275913D01*
X277961Y473091D02*
X284413Y466638D01*
X267461Y473091D02*
X277961D01*
X276079Y438803D02*
X284413Y447138D01*
X274138Y412862D02*
X276079Y414803D01*
X268689Y412862D02*
X274138D01*
X234413Y432138D02*
X247913D01*
X219913D02*
X234413D01*
D55*
X95926Y70228D02*
X101378Y64776D01*
X68607Y70228D02*
X95926D01*
X62433Y64055D02*
X68607Y70228D01*
X49933Y64055D02*
X62433D01*
X129654Y64776D02*
X138528Y73650D01*
X101378Y64776D02*
X129654D01*
X138528Y73650D02*
Y114961D01*
X253406Y70228D02*
X258859Y64776D01*
X226087Y70228D02*
X253406D01*
X219913Y64055D02*
X226087Y70228D01*
X207413Y64055D02*
X219913D01*
X287134Y64776D02*
X296008Y73650D01*
X258859Y64776D02*
X287134D01*
X296008Y73650D02*
Y114961D01*
X95926Y239520D02*
X101378Y234067D01*
X68607Y239520D02*
X95926D01*
X62433Y233347D02*
X68607Y239520D01*
X49933Y233347D02*
X62433D01*
X129654Y234067D02*
X138528Y242941D01*
X101378Y234067D02*
X129654D01*
X138528Y242941D02*
Y284252D01*
X253406Y239520D02*
X258859Y234067D01*
X226087Y239520D02*
X253406D01*
X219913Y233347D02*
X226087Y239520D01*
X207413Y233347D02*
X219913D01*
X287134Y234067D02*
X296008Y242941D01*
X258859Y234067D02*
X287134D01*
X296008Y242941D02*
Y284252D01*
X95926Y408811D02*
X101378Y403359D01*
X68607Y408811D02*
X95926D01*
X62433Y402638D02*
X68607Y408811D01*
X49933Y402638D02*
X62433D01*
X129654Y403359D02*
X138528Y412232D01*
X101378Y403359D02*
X129654D01*
X138528Y412232D02*
Y453543D01*
X253406Y408811D02*
X258859Y403359D01*
X226087Y408811D02*
X253406D01*
X219913Y402638D02*
X226087Y408811D01*
X207413Y402638D02*
X219913D01*
X287134Y403359D02*
X296008Y412232D01*
X258859Y403359D02*
X287134D01*
X296008Y412232D02*
Y453543D01*
D56*
X101378Y64776D02*
D03*
X78741D02*
D03*
X258859D02*
D03*
X236221D02*
D03*
X101378Y234067D02*
D03*
X78741D02*
D03*
X258859D02*
D03*
X236221D02*
D03*
X101378Y403359D02*
D03*
X78741D02*
D03*
X258859D02*
D03*
X236221D02*
D03*
M02*
